<svg xmlns="http://www.w3.org/2000/svg" viewBox="0 0 974.3 974.3"><defs><style>.cls-1{fill:#ee6c4d;}.cls-2{font-size:60px;}.cls-2,.cls-3{font-family:BaksoSapi, Bakso Sapi;}.cls-3{font-size:145.19px;letter-spacing:0em;}.cls-3,.cls-5{fill:#fff;}.cls-4{fill:#fed42b;}.cls-6{fill:#293241;}.cls-7{fill:#e0fbfc;}.cls-8{fill:#98c1d9;}.cls-9{fill:#666;}.cls-10{fill:#c9dfea;}.cls-11{fill:#fe9a11;}.cls-12{fill:#f2ca50;}.cls-13{fill:#494437;}.cls-14{fill:#cd1a58;}.cls-15{fill:#fefefe;}.cls-16{fill:#161616;}.cls-17{fill:#283241;}.cls-18{fill:#f29e3d;}.cls-19{fill:#df911d;}.cls-20{fill:#fe3379;}.cls-21{opacity:0.51;}.cls-22{fill:#d86a0b;}.cls-23{fill:#3d5a80;}.cls-24{fill:#ec8483;}</style></defs><g id="Calque_2" data-name="Calque 2"><g id="Layer_1" data-name="Layer 1"><circle class="cls-1" cx="487.15" cy="487.15" r="487.15"/><text class="cls-2" transform="translate(312.46 782.76)">Covoitons</text><g id="T-v8"><text class="cls-3" transform="translate(82.7 651.15)">Connexion</text></g><g id="V8"><path d="M344.46,143.34H581.61a32,32,0,0,1,32,32v0a0,0,0,0,1,0,0H312.46a0,0,0,0,1,0,0v0a32,32,0,0,1,32-32Z"/><circle class="cls-4" cx="234.35" cy="375.34" r="19.43"/><path class="cls-5" d="M749.16,381.09c-2.92-21.56-15.59-40.49-34.07-53.36a94.43,94.43,0,0,0-13.57-7.85,6.55,6.55,0,0,1-3.72-5.94V256.52a90.33,90.33,0,0,0-90.33-90.33H319.59a89.25,89.25,0,0,0-89.24,89.24V397.31a6.61,6.61,0,0,0,6.61,6.61h0a6.73,6.73,0,0,1,3,.71,20.36,20.36,0,0,0,9,2.05H731.41a19.7,19.7,0,0,0,13-4.7,15,15,0,0,0,5.39-11.35A71.77,71.77,0,0,0,749.16,381.09Z"/><path class="cls-5" d="M410.48,399A73,73,0,0,1,406,424.24H268.65A73.17,73.17,0,1,1,410.48,399Z"/><rect x="241.3" y="404.67" width="501.97" height="21.11" rx="10.5"/><circle cx="337.61" cy="404.17" r="68.85" transform="translate(-186.91 357.1) rotate(-45)"/><circle class="cls-6" cx="338.34" cy="404.49" r="37.67" transform="translate(-125.23 153.12) rotate(-21.62)"/><circle class="cls-7" cx="338.73" cy="404.29" r="15.7"/><path class="cls-5" d="M691.51,399.12A72.93,72.93,0,0,1,687,424.39H549.68a73.17,73.17,0,1,1,141.83-25.27Z"/><circle cx="618.64" cy="404.33" r="68.85" transform="translate(-104.71 555.87) rotate(-45)"/><circle class="cls-6" cx="619.37" cy="404.64" r="37.67"/><circle class="cls-7" cx="619.76" cy="404.44" r="15.7" transform="translate(-104.46 556.7) rotate(-45)"/><path class="cls-8" d="M402,202.76v53.72a53.71,53.71,0,0,1-53.71,53.71h-22A53.65,53.65,0,0,1,280.65,285a53.7,53.7,0,0,1,7.56-66.48,54.24,54.24,0,0,1,10.05-7.91,53.46,53.46,0,0,1,23.62-7.64q2.13-.18,4.32-.18Z"/><path class="cls-8" d="M546.07,256.21a53.7,53.7,0,0,1-48.55,53.47c-1.7.17-3.43.25-5.17.25h-22a53.72,53.72,0,0,1,0-107.44h22A53.72,53.72,0,0,1,546.07,256.21Z"/><path class="cls-8" d="M693,310.19H562.37V188.57A100.41,100.41,0,0,1,584,186.22h15.26c2-.06,4,0,6.06.09,3.72.19,7.44.61,11.08,1.11a139.26,139.26,0,0,1,17,3.38,108.23,108.23,0,0,1,28.83,12.1q1.93,1.18,3.8,2.46c1.52,1,3,2.13,4.45,3.29a76.72,76.72,0,0,1,17.7,19.6c3,4.8,6,10,7.36,15.4,1.5,6,1.85,12.36,2.09,18.48.49,12.25-.3,24.52.65,36.76.08,1.08.17,2.16.28,3.24C699,307.33,699.42,310.19,693,310.19Z"/><path class="cls-4" d="M750.08,383.12a29,29,0,0,1-27.73-49.74A74.8,74.8,0,0,1,750.08,383.12Z"/><rect class="cls-9" x="230.35" y="353.06" width="20.57" height="7.43"/><rect class="cls-9" x="230.35" y="364.49" width="20.57" height="7.43"/><rect class="cls-9" x="230.35" y="375.91" width="20.57" height="7.43"/><path class="cls-10" d="M659.73,241.24c-2.74-4.53-11.6-5.34-9.66-11.46,1.46-4.62,7.31-7.86,11.21-11.72.63-.65,1.26-1.3,1.88-2l7.3-7.45,30.65-31.28c-14.41-15.34-32.58-16.93-51.7-13.47a86.85,86.85,0,0,0-44.11,22.41,88.31,88.31,0,0,0-27.95,63.92c0,18.71.27,37.41.42,56.12a41.51,41.51,0,0,0,2.31,3.84h84.1c.09-.24.19-.46.28-.69,8.24-19.7,10.32-39.78,3-60.29C663.49,247.91,661.61,244.35,659.73,241.24Zm-27-45.17a17.64,17.64,0,0,1,.66-5.27A14.79,14.79,0,0,1,647.55,180c9.29-.34,16.27,6.28,16.35,15.53a15.91,15.91,0,0,1-1.69,7.4,15.18,15.18,0,0,1-13.66,8.22C639.42,211.26,632.92,205.08,632.72,196.07Z"/><path class="cls-10" d="M692.92,310.19H664.18c.09-.24.19-.46.28-.69,8.24-19.7,10.32-39.78,3-60.29h.46C688.06,264.82,697,285,692.92,310.19Z"/><path class="cls-10" d="M659.72,241.25c-2.74-4.53-11.59-5.35-9.66-11.46,1.47-4.63,7.32-7.87,11.22-11.73,4,9.47,13,14.53,19.53,21.75,1.28,1.41,3.24,1.26,4.83.2,1.26-.83,2.54-2.5,1.38-3.6-7.56-7.22-12.52-17.55-23.86-20.3l37.94-38.74c18.73,15.68,21.07,49.47,5,67.72-3.56,4-5.66,3.33-9,0-2-2-3.54-7.17-8.17-3.77-6.28,4.6-13.67,6.09-21,7.9l-.46,0C663.48,247.92,661.6,244.35,659.72,241.25Zm42.91-41.72c2.51.7,2.54-1.67,2.6-3.36.09-2.8-.52-5.34-3.86-5.83-2.39-.35-2.78,1.47-3.08,2.69C698.46,196.54,700,198.79,702.63,199.53Z"/><path class="cls-10" d="M580.08,310.19h-2.31v-3.84A41.51,41.51,0,0,0,580.08,310.19Z"/><path class="cls-10" d="M632.72,196.07c-.2-9.07,6-15.76,14.82-16.09,9.3-.35,16.28,6.28,16.35,15.52.08,8.85-6.44,15.48-15.35,15.62C639.41,211.26,632.92,205.09,632.72,196.07Zm10.8,9.42c4.3,1.72,8.57,1.51,12.2-1.76,4.48-4,3.77-7.5-1.93-9.31a7.19,7.19,0,0,1-4.4-3.81c-1.08-2,2.36-6.79-3.3-5.85a10,10,0,0,0-8.22,6.93,27.57,27.57,0,0,0-.77,3.78C637.51,200.31,639.33,203.83,643.52,205.49Z"/><path class="cls-10" d="M661.28,218.06c4,9.47,13,14.53,19.53,21.75,1.28,1.41,3.24,1.26,4.83.2,1.26-.83,2.54-2.5,1.38-3.6-7.56-7.22-12.52-17.55-23.86-20.3Z"/><path class="cls-10" d="M698.29,193c.17,3.51,1.66,5.76,4.34,6.5,2.51.7,2.54-1.67,2.6-3.36.09-2.8-.52-5.34-3.86-5.83C699,190,698.59,191.81,698.29,193Z"/><path class="cls-10" d="M637.1,195.47c.41,4.84,2.23,8.36,6.42,10s8.57,1.51,12.2-1.76c4.48-4,3.77-7.5-1.93-9.31a7.19,7.19,0,0,1-4.4-3.81c-1.08-2,2.36-6.79-3.3-5.85a10,10,0,0,0-8.22,6.93A27.57,27.57,0,0,0,637.1,195.47Z"/><path class="cls-11" d="M659.73,241.24c-2.74-4.53-11.6-5.34-9.66-11.46,1.46-4.62,7.31-7.86,11.21-11.72.63-.65,1.26-1.3,1.88-2l7.3-7.45,30.65-31.28c-14.41-15.34-32.58-16.93-51.7-13.47a86.85,86.85,0,0,0-44.11,22.41,88.31,88.31,0,0,0-27.95,63.92c0,18.71.27,37.41.42,56.12a41.51,41.51,0,0,0,2.31,3.84h84.1c.09-.24.19-.46.28-.69,8.24-19.7,10.32-39.78,3-60.29C663.49,247.91,661.61,244.35,659.73,241.24Zm-27-45.17a17.64,17.64,0,0,1,.66-5.27A14.79,14.79,0,0,1,647.55,180c9.29-.34,16.27,6.28,16.35,15.53a15.91,15.91,0,0,1-1.69,7.4,15.18,15.18,0,0,1-13.66,8.22C639.42,211.26,632.92,205.08,632.72,196.07Z"/><path class="cls-12" d="M692.92,310.19H664.18c.09-.24.19-.46.28-.69,8.24-19.7,10.32-39.78,3-60.29h.46C688.06,264.82,697,285,692.92,310.19Z"/><path class="cls-13" d="M659.72,241.25c-2.74-4.53-11.59-5.35-9.66-11.46,1.47-4.63,7.32-7.87,11.22-11.73,4,9.47,13,14.53,19.53,21.75,1.28,1.41,3.24,1.26,4.83.2,1.26-.83,2.54-2.5,1.38-3.6-7.56-7.22-12.52-17.55-23.86-20.3l37.94-38.74c18.73,15.68,21.07,49.47,5,67.72-3.56,4-5.66,3.33-9,0-2-2-3.54-7.17-8.17-3.77-6.28,4.6-13.67,6.09-21,7.9l-.46,0C663.48,247.92,661.6,244.35,659.72,241.25Zm42.91-41.72c2.51.7,2.54-1.67,2.6-3.36.09-2.8-.52-5.34-3.86-5.83-2.39-.35-2.78,1.47-3.08,2.69C698.46,196.54,700,198.79,702.63,199.53Z"/><path class="cls-14" d="M580.08,310.19h-2.31v-3.84A41.51,41.51,0,0,0,580.08,310.19Z"/><path class="cls-15" d="M632.72,196.07c-.2-9.07,6-15.76,14.82-16.09,9.3-.35,16.28,6.28,16.35,15.52.08,8.85-6.44,15.48-15.35,15.62C639.41,211.26,632.92,205.09,632.72,196.07Zm10.8,9.42c4.3,1.72,8.57,1.51,12.2-1.76,4.48-4,3.77-7.5-1.93-9.31a7.19,7.19,0,0,1-4.4-3.81c-1.08-2,2.36-6.79-3.3-5.85a10,10,0,0,0-8.22,6.93,27.57,27.57,0,0,0-.77,3.78C637.51,200.31,639.33,203.83,643.52,205.49Z"/><path class="cls-16" d="M661.28,218.06c4,9.47,13,14.53,19.53,21.75,1.28,1.41,3.24,1.26,4.83.2,1.26-.83,2.54-2.5,1.38-3.6-7.56-7.22-12.52-17.55-23.86-20.3Z"/><path class="cls-16" d="M698.29,193c.17,3.51,1.66,5.76,4.34,6.5,2.51.7,2.54-1.67,2.6-3.36.09-2.8-.52-5.34-3.86-5.83C699,190,698.59,191.81,698.29,193Z"/><path class="cls-16" d="M637.1,195.47c.41,4.84,2.23,8.36,6.42,10s8.57,1.51,12.2-1.76c4.48-4,3.77-7.5-1.93-9.31a7.19,7.19,0,0,1-4.4-3.81c-1.08-2,2.36-6.79-3.3-5.85a10,10,0,0,0-8.22,6.93A27.57,27.57,0,0,0,637.1,195.47Z"/><path class="cls-17" d="M358.84,202.76q-14-14.31-28.21-28.43c-13.34-13.25-28.71-24.31-49.15-21.63.08,20.17,1.06,40.36-.53,60.52q.18,6.87.35,13.75.36,14,.71,27.95l-.5.05c18.44-.16,30.45,11.78,31,31a51,51,0,0,0,6.37,23.69,54,54,0,0,0,7.36.5h22A53.71,53.71,0,0,0,402,256.48v-9.29Q380.46,224.92,358.84,202.76Zm-52.4,10.1a16.56,16.56,0,0,1-8.18-2.28c-5.35-3.16-8.67-9.34-8.32-16.63.48-9.95,7.95-17,17.62-16.59s16.26,8.07,16,18.24a19.25,19.25,0,0,1-1.65,7.34A16.36,16.36,0,0,1,306.44,212.86Z"/><path class="cls-18" d="M312.47,286a51,51,0,0,0,6.37,23.69A53.76,53.76,0,0,1,280.65,285c-.41-9.94.36-20,.86-30C300,254.81,312,266.75,312.47,286Z"/><path class="cls-11" d="M281.48,152.7c.08,20.18,1,40.36-.53,60.52l-39.85.17c-19.95-.36-20.62-1.37-13.93-21.08C235.53,167.67,258.61,150.84,281.48,152.7Zm-10.9,17.43c2.9.25,4.94-1,4.53-3.95s-2.41-5.17-5.38-5.12a5.23,5.23,0,0,0-5.24,5.15C264.54,169.87,268.76,168.45,270.58,170.13Z"/><path class="cls-19" d="M241.1,213.39l39.85-.17q.53,20.85,1.06,41.7C256.25,250.28,247,240.92,241.1,213.39Z"/><path class="cls-20" d="M442.84,291.58A2.44,2.44,0,0,1,440.7,289Z"/><path class="cls-15" d="M307.56,177.36c9.54.39,16.26,8.08,16,18.25-.29,10-7.64,17.43-17.08,17.25-9.86-.19-17-8.38-16.5-18.91C290.42,184,297.89,177,307.56,177.36Zm-1.18,30.09c6.35,0,10.41-3.26,12-9.45s-.94-11.11-6.35-14.06c-1.92-1.05-5.75-2.33-6,.83-.46,6.67-2.79,9.47-9.43,9.35-2.71,0-1.74,3.23-1.12,5.12C297.26,204.55,301.16,207,306.38,207.45Z"/><path class="cls-19" d="M270.58,170.13c-1.82-1.68-6-.26-6.09-3.92a5.23,5.23,0,0,1,5.24-5.15c3-.05,5,2.33,5.38,5.12S273.48,170.38,270.58,170.13Z"/><path class="cls-16" d="M306.37,207.46c-5.21-.49-9.11-2.91-10.86-8.22-.62-1.89-1.59-5.16,1.12-5.12,6.64.12,9-2.68,9.43-9.35.21-3.16,4-1.88,6-.83,5.41,2.95,8,7.74,6.35,14.06S312.73,207.49,306.37,207.46Z"/><path d="M395.17,294.41c-2.19-7.91-4.38-15.83-5.85-23.91a116.25,116.25,0,0,1-1.63-24.22c.21-7.7.58-15.38.17-23.08a181.53,181.53,0,0,0-2.77-23,186.75,186.75,0,0,0-6.68-25.79c-.62-1.82-3.52-1-2.9.8a181.5,181.5,0,0,1,9.23,46c.5,7.67.27,15.31,0,23a126.67,126.67,0,0,0,1.15,24.07c1.43,9.13,3.9,18.06,6.36,27a1.51,1.51,0,0,0,2.9-.8Z"/><path class="cls-6" d="M325.22,141.13c-7.3-25.14,3.72-50.43,24.6-56.49s43.72,9.41,51,34.55c6.75,23.27-2.19,46.67-20.12,54.82l2.79,4.25-10.57,3.07-.24-4.84C352.84,180,332.1,164.85,325.22,141.13Z"/><g class="cls-21"><path class="cls-5" d="M382.34,110c4.22,7.17,9.22,12,11.16,10.91s.09-7.88-4.13-15-9.21-12.06-11.15-10.92S378.12,102.81,382.34,110Z"/><path class="cls-5" d="M392.46,126.32a2.26,2.26,0,1,0,1.54-2.8A2.27,2.27,0,0,0,392.46,126.32Z"/></g><ellipse class="cls-22" cx="388.58" cy="278.54" rx="8.71" ry="12.01"/><path class="cls-8" d="M510.92,203.9a15.24,15.24,0,0,0-7.23,7.6c-4.31,4.07-8.42,8.37-13,12.15-5.13,4.26-6.76,7.84.31,11.69,2.15,1.17,3.85,3.14,5.76,4.75l1.76,1.9v-.14c13.52,23.8,9.24,47-2.13,70.09-7.1,1.19-14.36,7.82-21.21-.66-.17-.21-1.58.51-2.37.88-12.08,5.52-14.71,4.73-20.53-6.13-10.77,11.3-14.58,11.92-28.23,5-1.61-.82-3.59-.92-5.4-1.36-1.81-13.77-.52-27.6-.78-41.4-.43-22.53,10.17-39.29,28.85-50.65,6.5-3.94,9-7.69,8.93-15.28-.14-22.16,14.32-42.18,35.06-50.23,21-8.15,44.38-3.15,59,12.6ZM491,201.6a17.52,17.52,0,0,0,17.85-16.81,17.1,17.1,0,0,0-16.7-17.8A17.31,17.31,0,1,0,491,201.6Z"/><path class="cls-23" d="M538.45,283.81a53.74,53.74,0,0,1-40.93,25.87c10.54-22.3,14.13-44.82,1-67.84,11-.5,22.76,2.76,32.33-5.85l.78.31c1.3,3.5,2.46,7.06,3.92,10.49A58.47,58.47,0,0,1,538.45,283.81Z"/><path class="cls-4" d="M561.22,227.49c-8.07,17-9.13,17.27-22.54,5a5.92,5.92,0,0,0-.79-.51c-6.83-11.45-17.15-19.55-27-28.12l38.78-39.24C566.57,179.07,571.48,205.83,561.22,227.49Zm-7.87-40.92c2.52.08,3.72-2.24,3.22-4.59-.68-3.27-2.84-5.6-6.33-5.62-2.32,0-2.73,2.06-2.58,4.7C548.3,183.62,549.8,186.45,553.35,186.57Z"/><path class="cls-23" d="M484.32,330.58l3.21-5.44c-6.88-1.37-13.55-4.48-20.37,1.51-2.28,2-7.26.92-10.19-2.27-2.2-2.39-3.66-2.94-6.58.11-11.73,12.27-20.11,11.7-31.7-1.32a144.52,144.52,0,0,0,0,34.28c10.39.87,20.29-2,30.29-4A105.88,105.88,0,0,0,484.32,330.58Z"/><path class="cls-7" d="M418.69,323.17c11.59,13,20,13.59,31.7,1.32,2.92-3.05,4.38-2.5,6.58-.11,2.93,3.19,7.91,4.27,10.19,2.27,6.82-6,13.49-2.88,20.37-1.51,2.78-4.53,10-6.1,8.9-13.2-7.1,1.19-14.36,7.82-21.21-.66-.17-.21-1.58.51-2.37.88-12.08,5.52-14.71,4.73-20.53-6.13-10.77,11.3-14.58,11.92-28.23,5-1.61-.82-3.59-.92-5.4-1.36A27.15,27.15,0,0,0,418.69,323.17Z"/><path class="cls-19" d="M537.89,232c-6.83-11.45-17.15-19.55-27-28.12a15.24,15.24,0,0,0-7.23,7.6c11.47,5.5,18,16.47,27.19,24.49l.79.31Z"/><path class="cls-4" d="M530.88,236c-9.19-8-15.72-19-27.19-24.49-4.31,4.07-8.42,8.37-13,12.15-5.13,4.26-6.76,7.84.31,11.69,2.15,1.17,3.85,3.14,5.76,4.75l1.76,1.9v-.14C509.6,241.34,521.31,244.6,530.88,236Z"/><path class="cls-15" d="M492.14,167a17.1,17.1,0,0,1,16.7,17.8A17.52,17.52,0,0,1,491,201.6,17.31,17.31,0,1,1,492.14,167Zm-5.48,28.36c4.78,2.23,9.57,1.7,12.79-2.28,2.66-3.28,9.57-8.7-1.91-10-2.18-.24-3.6-2-4.73-4.08s2.83-7.33-3.36-6.49a11,11,0,0,0-9.45,8,17.49,17.49,0,0,0-.51,3C479.58,189.43,482,193.16,486.66,195.35Z"/><path class="cls-24" d="M498.55,242l-1.76-1.9Z"/><path class="cls-11" d="M547.66,181.06c.64,2.56,2.14,5.39,5.69,5.51,2.52.08,3.72-2.24,3.22-4.59-.68-3.27-2.84-5.6-6.33-5.62C547.92,176.34,547.51,178.42,547.66,181.06Z"/><path class="cls-16" d="M479.49,183.55c.09,5.88,2.48,9.61,7.17,11.8s9.57,1.7,12.79-2.28c2.66-3.28,9.57-8.7-1.91-10-2.18-.24-3.6-2-4.73-4.08s2.83-7.33-3.36-6.49a11,11,0,0,0-9.45,8A17.49,17.49,0,0,0,479.49,183.55Z"/></g></g></g></svg>