<svg xmlns="http://www.w3.org/2000/svg" viewBox="0 0 1578.67 913.48"><defs><style>.cls-1{fill:#038491;}.cls-2{fill:#293241;}.cls-3{fill:#f25e3d;}</style></defs><g id="Calque_3" data-name="Calque 3"><path class="cls-1" d="M4.67,613.42a14.09,14.09,0,0,1,2.2,1.89c.29.31,1,1,1.77,1.79l1.68,1.71c.67.69,1.55,1.56,1.95,1.92l2,1.8c1.67,1.56,7.33,6,9.26,7.31,2.21,1.47,2.81,1.87,3.89,2.63l1.13.78c.78.55,2.42,1.57,3.11,2l1.8,1c2.45,1.39,4.25,2.43,4.88,2.8s2,1.06,4.12,2.09c1.8.86,3.6,1.75,5.15,2.53.69.36,1.45.73,1.68.83s.7.34,1,.52,1.22.59,2,.92,1.57.7,1.83.84,1,.45,1.6.71c1.33.54,2.34,1,4.12,1.8,1.1.5,1.56.69,2.85,1.17.14.05.46.18.72.3,1.26.55,5.39,2.21,7.57,3,1.35.51,3.15,1.21,4,1.56s2.28.91,3.15,1.24l1.76.68,1.87.69,2.59,1c.5.2,2,.74,3.31,1.22s2.9,1.06,3.5,1.3l3,1.14c1.06.39,2.26.85,2.68,1,.72.3,1,.41,2.07.76l1.34.48c1.48.55,2.89,1.07,3.41,1.24.27.08,1.07.37,1.78.64,1.52.57,1.76.66,2.86,1.1,1.78.72,2.93,1.15,3.93,1.51l2.59.94,2.92,1.09c.79.29,2.06.79,2.83,1.12s2.52,1,3.9,1.58l2.52,1,.77,1.23c.43.67.92,1.46,1.09,1.76.57,1,3.46,5,4,5.68.29.34.88,1.07,1.31,1.62s1.33,1.65,2,2.44,1.54,1.81,1.9,2.26,1.05,1.28,1.52,1.85a80.79,80.79,0,0,1,8,11.15,42.53,42.53,0,0,1,2.94,5.88,14.62,14.62,0,0,0,.73,1.7l.24.43-.12-.85a50.24,50.24,0,0,0-1.21-6.46c-.16-.6-.36-1.45-.45-1.9s-.19-.86-.22-.92-.43-1.5-.88-3.19-.85-3.11-.89-3.18-.31-1-.62-2.19-.77-2.7-1-3.44-.42-1.38-.41-1.41-.26-1.08-.59-2.32-.6-2.37-.61-2.51,0-.22.19-.14,1.68.77,2.91,1.34l1.79.83,3.57,1.69L156.4,688c1.65.71,4.92,2.27,6.72,3.21l1.86,1,1.77.94c1.77,1,3.79,2,5,2.64.69.35,1.43.74,1.63.86l.92.51,1.26.68,2.64,1.42c2.19,1.18,3,1.62,4.44,2.5l2,1.18c2.58,1.46,9.26,5.42,10.66,6.31l1.51,1c1.3.84,1.9,1.2,3.61,2.21,1.52.9,4.38,2.7,5,3.16a4,4,0,0,0,.55.33,1.88,1.88,0,0,1,.37.23,5.79,5.79,0,0,0,.63.42c1,.59,3.26,2.08,5.36,3.51l.91.62c1.53,1,1.69,1.21,3.82,4.2s7.55,11.5,9.44,14.81c.49.87,1.13,2,1.4,2.41s.76,1.27,1.07,1.82c1,1.76,1.82,3.11,4.34,7.16,2.06,3.32,2.26,3.63,4.42,6.78a55.09,55.09,0,0,0,3.57,5c.49.61,1.53,2,2.31,3s2.31,3,3.42,4.32,2,2.48,2,2.51,2.47,3.12,3.44,4.3,3.09,3.87,3.39,4.32l.64.86c2.45,3.25,4.2,5.62,5.15,7,2.05,2.93,5.77,8.73,6.56,10.22l.79,1.51a22.33,22.33,0,0,0,1.65,2.92c.09,0-.07-.49-.6-2-.19-.52-.68-1.9-1.09-3.07s-1-2.69-1.31-3.4-.93-2.2-1.39-3.34c-.81-2-1.16-2.81-2.31-5.33-.3-.68-.64-1.42-.74-1.67-.41-1-1.38-3.12-2.05-4.58-.4-.85-1-2.26-1.39-3.12s-1.06-2.4-1.53-3.42c-1.1-2.4-1.57-3.46-2.31-5.26-.33-.8-.92-2.18-1.31-3.06-.7-1.59-3.87-9.48-4.61-11.51-.41-1.1-.74-2-1.38-3.65-.2-.52-.69-1.95-1.09-3.17s-.87-2.64-1.05-3.16a8,8,0,0,1-.29-1,19.42,19.42,0,0,1,1.75,1.18c.21.15.4.28.43.29a3.83,3.83,0,0,1,.61.42c.57.43,2.55,1.82,3.35,2.36.25.16.78.53,1.18.81l3.29,2.3c1.41,1,3,2.07,3.47,2.4l1.09.73c.3.23,4.13,2.73,4.19,2.74l1.7,1.13,2.91,1.95c.7.46,1.9,1.27,2.67,1.8l2.17,1.46c1.36.87,3.49,2.28,3.68,2.41.44.33,3.31,2.19,3.9,2.53.36.21,1.07.63,1.57,1l2.84,1.73c1.06.64,2.54,1.55,3.29,2l1.92,1.21c1,.58,1.34,1,2.72,2.76,1.54,2,3.12,4.08,3.83,5l2.25,2.85c.79,1,1.8,2.27,2.25,2.8,3.28,3.88,3.74,4.4,5.5,6.2.8.81,1.67,1.71,1.93,2a77.65,77.65,0,0,0,9.11,8.43c2.54,2,5.16,4.17,5.65,4.6.2.18,1.23.92,2.29,1.67,1.55,1.09,3.48,2.47,5.06,3.64a153.39,153.39,0,0,1,14.47,11.8,23.3,23.3,0,0,0,2.43,2.26,7.61,7.61,0,0,0-.69-1c-.4-.57-1-1.36-1.25-1.77C347,823.38,346,822,345.16,821c-.41-.48-1.18-1.42-1.73-2.09-2.38-2.93-2.93-3.59-3.69-4.47-.43-.52-1.35-1.59-2-2.39s-2-2.27-2.82-3.27-1.93-2.24-2.36-2.77-1.25-1.49-1.82-2.14c-2.92-3.33-8.49-10.46-11.57-14.81-1.13-1.61-1.31-1.91-1-1.74l2.38,1.22,3.12,1.63c.5.28,1.24.67,1.66.87,1.32.64,2.6,1.29,3.27,1.65l1.49.77c.82.4,2.81,1.5,5.83,3.23.81.47,1.88,1.06,2.38,1.33s1.27.69,1.71,1a21.55,21.55,0,0,0,2.76,1.44c.86.38,1,.47.91.61s.15.29,1.42,1l2.15,1.24c.8.49,2.1,1.26,3.77,2.21,1.34.76,3.66,2.18,4.53,2.77.28.19.77.5,1.1.7l1.18.74,1.88,1.18c.7.44,1.39.89,1.54,1,.62.47,4.25,2.85,5.17,3.41.56.34,2,1.24,3.2,2,2.68,1.72,2.59,1.66,3.86,2.52.57.39,1.51,1,2.09,1.38l1.5,1,1.73,1.09c.71.43,1.83,1.16,2.51,1.61,1.45,1,1.53,1,3.83,2.41l4.08,2.45c2.1,1.27,5.93,3.5,7.74,4.51.4.22,1.48.85,2.39,1.38,2.54,1.49,5,2.77,9.89,5.09,1.08.52,2.3,1.12,2.71,1.34a14.69,14.69,0,0,0,1.6.74c1.11.43,2.23.93,4.45,2,1,.46,3.42,1.47,5.42,2.23l3.87,1.49c.13.06.71.27,1.29.48s1.47.53,2,.73,1.17.42,1.49.52c.57.17,1.71.56,5.25,1.82,1.92.68,3.25,1.09,5.09,1.58.65.17,1.24.34,1.32.38s.65.2,1.26.37,1.9.52,2.83.8c3.56,1.06,7.36,2.06,11.46,3,1,.25,2.29.55,2.75.68,2.47.67,7,1.71,11.54,2.68a5.26,5.26,0,0,0,1.75,0c3.55-.39,9.58-1.15,10-1.26.12,0,.84-.13,1.6-.23,2.5-.34,4.24-.58,5-.7l1-.15,4.64-.68,2.3-.36c2-.31,5.6-.89,6.31-1,.27,0,1.06-.19,1.77-.3l1.88-.33c.32-.07,1.56-.29,2.75-.5s2.61-.46,3.17-.57l4.29-.82c1.81-.34,4.12-.8,5.14-1l1.86-.39,2.64,1.59c1.45.88,3.1,1.86,3.65,2.19,1,.59,1.57,1,4.74,3,1.52,1,1.94,1.36,1.88,1.65a12.45,12.45,0,0,1-3.33.81l-1.29.25-1.18.22-2.1.38-2.85.54c-.82.15-1.71.32-2,.38a3.15,3.15,0,0,1-.51.08c-.05,0-2.13.36-2.81.51l-1.34.23c-.55.09-1.2.21-1.45.27a3.06,3.06,0,0,1-.52.08c-.05,0-1.42.21-2.94.47-.5.09-1.58.26-2.4.38s-1.7.26-2,.32l-.51.09c-.07,0-2.64.36-3.62.53l-2.29.34-2.94.44-2,.28-4.35.52-6.89.84c-1.81.22-3.66.43-4.13.47s-1,.09-1.21.12c-1.06.14-2.83.34-5.29.58-.88.09-2.41.23-3.84.34l-1.58.14c-.92.08-4.08.33-5.72.44l-3.1.22-2.67.18-1.47.1c-1.05.08-3.87.23-6,.33l-1.57.08-1.71.06-1.88.07c-.26,0-1,.06-1.57.08l-2.08.09-2.5.1-2.45.09-2.18.06-2.33,0-2.59,0h-8l-2.79,0c-1.14,0-2.23,0-2.43,0s-1.61,0-5.15-.09l-1.59,0-1.65,0-3.7-.1c-.84,0-5.26-.18-6.25-.23-.51,0-1.34-.07-1.84-.08-1.21,0-2.52-.11-4.35-.24l-5.4-.36c-1-.06-2.2-.15-2.59-.18s-1-.08-1.38-.09l-2.24-.16-2.24-.15-1.12-.08-1.12-.08c-.73,0-4.55-.39-6.13-.56l-2.28-.22-2.23-.22-1.87-.19c-1.08-.09-1-.08-4.2-.42s-5.47-.6-6.61-.76l-2-.26-3.22-.42-2.66-.36c-4-.51-11.56-1.64-15.13-2.25l-3.5-.57-3.59-.6-3.5-.58c-6.23-1-27.43-5.42-34.4-7.17-.59-.15-2.39-.58-4-.94-4.1-1-6.77-1.63-11.18-2.86l-3-.84-2.15-.61-7-1.94c-1.29-.35-2.8-.79-3.36-1l-4.22-1.31-4.51-1.4c-.72-.24-2.49-.79-3.93-1.24-2.74-.84-3.6-1.12-5.76-1.84-1.22-.4-1.6-.53-3.57-1.21l-1.52-.51-1.37-.49c-.34-.13-1-.38-1.54-.55a13.72,13.72,0,0,1-1.29-.48c-.33-.15-1-.41-4.23-1.5l-1.73-.63-3.31-1.2c-2.92-1-2.38-.84-5.27-2-2.37-1-4.64-1.87-6.52-2.65l-4.85-2c-2.52-1-5-2.07-5.41-2.26-.21-.1-.76-.34-1.23-.53s-1.18-.5-1.56-.68l-3.64-1.66c-3.63-1.65-5.61-2.56-6.36-2.92-.43-.22-1.07-.52-1.41-.67s-.93-.42-1.31-.61l-1.6-.77c-2.78-1.29-3.28-1.53-3.57-1.68l-1.45-.73c-1.3-.64-1.68-.83-3.08-1.56l-1.36-.7-1.67-.88c-.74-.39-1.87-1-2.52-1.3s-1.42-.73-1.72-.9-1-.53-1.44-.79-1.05-.56-1.25-.68l-1.62-.91c-1.76-1-2.17-1.2-3.78-2.13-.78-.46-1.57-.9-1.75-1-.37-.18-7.16-4.16-8.11-4.75l-3.38-2.1-1.23-.79c-.33-.24-3.54-2.29-3.62-2.3a2.79,2.79,0,0,1-.46-.3c-.35-.26-1.1-.76-3.1-2.07-1.1-.72-1.31-.86-3.66-2.51L130.54,789c-.8-.55-1.81-1.27-2.25-1.6s-1.13-.83-1.53-1.1-1.28-.91-2-1.42L123,783.54c-.59-.43-7.93-6.26-9.29-7.4l-2-1.68c-.71-.58-1.49-1.24-1.74-1.46a5.68,5.68,0,0,0-.48-.42s-.63-.55-1.35-1.21-1.32-1.21-1.34-1.21-.52-.44-1.11-1l-1.42-1.26c-.19-.17-.49-.43-.65-.59l-.83-.74c-1.35-1.19-1.81-1.61-2.69-2.46l-1.62-1.57c-.37-.36-.95-.92-1.28-1.26l-2.84-2.79c-1.22-1.21-2.39-2.38-2.6-2.61l-.92-1c-.84-.92-1.57-1.72-3.49-3.8-3.57-3.87-5.31-5.91-9.65-11.33a10.56,10.56,0,0,0-2.18-2.37c-.67-.54-1-.61-.6-.15L77.61,741c3.36,4.48,6.51,8.46,8,10.09l1.87,2.15c.81.94,1.57,1.81,1.69,1.93s.53.59.91,1c1.84,2.17,2.37,2.74,5.9,6.37,4.46,4.58,5,5.14,5.69,5.78l1.61,1.52,1.68,1.59,1.68,1.58c2.07,2,3,2.83,4.48,4.14.85.76,1.57,1.38,1.6,1.39a2.32,2.32,0,0,1,.37.32c.18.17.64.57,1,.9l1.45,1.23,1.53,1.31c.44.36,1.09.92,1.45,1.23,2,1.72,7.26,5.9,11.43,9l1.3,1c.92.7,4.46,3.28,5.24,3.83L139,799.1l1.26.88c.4.31,2.56,1.79,4,2.75l1.31.9c.49.35,1.06.73,1.26.85l.72.49a8.74,8.74,0,0,0,.78.51c.23.14,1,.62,1.69,1.08s1.74,1.12,2.32,1.47c1.51.91,3.09,1.88,3.62,2.23l1.41.87,1.15.7c.86.6,6.28,3.77,9.61,5.63l1.95,1.09,1.8,1,2.82,1.56c1.82,1,3,1.63,4,2.15l2.56,1.31c3.47,1.78,5.11,2.62,6,3.06l4,1.93c7.11,3.45,8,3.85,12.18,5.71l2.65,1.18c2.78,1.24,4,1.78,6.72,3,5.6,2.44,6.6,2.85,12.17,5l.87.32,1.38.55c1,.42,2.34.92,3.53,1.36.76.28,2.93,1.13,3.49,1.36s4.37,1.64,6.47,2.39l2,.67c.69.23,1.36.47,1.49.52s1,.35,1.83.64l3.09,1.06,3.56,1.22c1.15.38,2.19.74,2.32.79s2.74.92,5.31,1.74c.72.23,1.75.54,2.29.68s1.08.32,1.21.37c.3.12.88.31,2.38.75l3.3,1,5.92,1.82c2.39.74,3.69,1.12,4.87,1.43l1.81.49,4.6,1.22,8.51,2.25c2.45.67,4.94,1.3,7.31,1.86,1.47.34,2.68.64,2.71.66s10.45,2.4,14.35,3.22c4.87,1,19.44,3.93,19.84,4,.17,0,1.51.25,3,.53s3,.55,3.43.61,1.52.25,2.45.41l4.89.82,4.79.8c.88.15,2.41.38,3.41.5s2.94.4,4.31.61l4.52.64,3.81.54c1.76.26,4.71.62,7.76.95,7.49.82,10.76,1.17,11.06,1.19l1.42.15c1.66.19,4.39.43,7,.64l2.74.21,1.22.1,2,.17c.64.06,2.17.17,3.4.26s2.25.17,2.27.2a30.7,30.7,0,0,1-3.59,1.25c-.54.18-1,.32-1,.32a14.32,14.32,0,0,0-1.44.5,2.69,2.69,0,0,1-.38.12l-1.33.43c-3,1-5.11,1.68-7.32,2.36l-4,1.26c-1.31.41-3.48,1.09-4.81,1.49l-5.13,1.55-4.69,1.42-3.14,1c-1.38.41-1.94.58-5.56,1.62l-4.4,1.27c-5.51,1.6-19.06,5-23.86,6.08l-2.49.53-2.38.51-2.34.5c-1.87.41-8.9,1.69-11.26,2l-2.4.36c-6.68,1-13.86,1.87-16.54,2-.71,0-2,.11-2.88.17l-1.78.12-2,.11-4.45.28c-3,.19-7.81.23-12.48.11l-1.13,0c-1.88,0-5.66-.18-8.26-.3-1.06,0-3.28-.19-5-.33-2.35-.2-10.06-1-10.58-1.13-.3-.07,0-.28,7-4.32l3.94-2.26c.91-.51,2.81-1.63,4.47-2.63.78-.47.79-.48,1.36-.79.26-.14,1-.55,1.59-.92l1.89-1.1,1.82-1.07c.59-.35,1.83-1,2.76-1.55s2.17-1.19,2.75-1.51l2.25-1.28c1.5-.84,1.61-1,.37-.4L283.84,895c-1.19.51-2.41,1-2.73,1.19-.5.23-5.85,2.58-6.81,3l-1.21.54c-1.75.8-4.62,2-6.55,2.86l-1.27.54-1.36.58-1.79.75-2.95,1.24c-4.37,1.85-7.48,3.15-9.36,3.91l-2,.8-2.32-.4c-2.72-.46-11.58-2.29-13.35-2.75-2.64-.69-5.08-1.34-5.73-1.52l-4.78-1.36-2.58-.75c-.72-.21-1.57-.48-1.89-.6s-.88-.31-1.25-.42-.92-.3-1.21-.41-1.28-.46-2.21-.78-2.23-.77-2.89-1-1.43-.53-1.73-.62c-.55-.19-2.58-1-3.39-1.29l-1.34-.53c-2.22-.87-2.84-1.14-9.28-4-2.61-1.16-3.78-1.7-3.84-1.78a2.75,2.75,0,0,1,.9-.6c.53-.28,1.91-1.06,3.07-1.73,2.23-1.28,6.67-3.77,10-5.58l3.79-2.11c1-.57,2.55-1.42,3.45-1.91s2.07-1.12,2.58-1.41l1.23-.69,1.17-.64c.81-.45,3.22-1.71,4.58-2.39l.87-.46.65-.36,1.48-.8a6.22,6.22,0,0,0,1.1-.65s-1.29.44-2.83,1.06l-12.09,4.79c-8.8,3.47-8.83,3.48-12.22,4.8l-4,1.56c-4.64,1.82-10.11,3.8-10.35,3.75a5.44,5.44,0,0,1-.83-.39c-1.59-.84-2-1.06-2.47-1.34l-1.62-.9c-6.21-3.44-9.33-5.32-14.4-8.66l-1.86-1.22c-.38-.24-1.44-1-2.36-1.58s-1.83-1.24-2-1.35l-.68-.46c-.48-.35-.7-.5-2.41-1.69-.84-.59-1.88-1.32-2.29-1.64l-1.88-1.38c-.62-.45-3.32-2.55-6-4.69s-5.2-4.1-5.59-4.37l-1.43-1-1.25-.93-1.65-1.22L133,854.67l-1.55-1.17c-.56-.42-1-.77-1-.77l-1.7-1.3c-.92-.71-2.12-1.64-2.68-2.06-1.33-1-5.26-4.13-6-4.75-1.1-.93-1.67-1.42-2.55-2.15l-1.32-1.1-1-.86-1.92-1.64-2.33-2c-1.4-1.15-5-4.35-6-5.28-.42-.41-1.35-1.27-3.12-2.88-2.47-2.26-4.45-4.13-6.25-5.91-.37-.37-1.32-1.29-2.1-2-2.16-2.08-7.44-7.48-10.63-10.88-4.16-4.42-5-5.32-12.09-13.53-2-2.33-9.15-11.07-9.94-12.19-.23-.33-2.14-2.8-3.57-4.65-.37-.47-1-1.35-1.47-2-1.26-1.75-2.5-3.46-3.23-4.45l-.76-1c0-.07-.45-.62-.89-1.21-1.13-1.52-5.68-8.17-7.27-10.63-5-7.65-9.69-15.45-12.61-20.88-.23-.42-.7-1.26-1.06-1.88-.59-1-1.41-2.57-3.29-6.23l-1.32-2.55c-.37-.7-1.06-2.07-1.53-3.05l-1.67-3.39c-.67-1.37-1.19-2.48-1.74-3.76-.1-.24-.3-.69-2.22-4.94-1.2-2.66-3.53-8.34-4.53-11.07-.23-.61-.66-1.77-1-2.58-1-2.59-3.19-8.88-3.55-10.13s-1.35-4.5-1.84-6c-.54-1.72-2.2-8.07-2.84-10.83-.18-.81-.43-1.87-.55-2.37s-.21-.92-.2-.94-.13-.68-.3-1.48-.49-2.47-.71-3.74-.49-2.79-.6-3.38c-.23-1.19-.26-1.44-.73-5.17A130.71,130.71,0,0,1,.1,642.54c0-.75-.06-1.73-.06-2.19s0-1.2,0-1.65c0-1.15,0-2.19,0-3.51,0-.62.06-1.69.08-2.36.08-2.14.56-7.41.92-10a87.38,87.38,0,0,1,2.14-9.69c.07-.16.16-.18.51-.11a4,4,0,0,1,1,.43Z"/><path class="cls-2" d="M346.1,395.57l-2.38-.1-2.76-.11-3.44-.23c-.5,0-1.69-.1-2.65-.16l-3.1-.18a14.83,14.83,0,0,1-1.52-.11c-.09,0-.7-.07-1.35-.11s-1.29-.09-1.41-.12-.56-.07-1-.1c-1.15-.07-6.81-.84-8-1.08l-1.77-.34-1-.18-2.28-.4c-3.24-.56-4.3-.75-5.13-.94-.43-.11-.89-.21-1-.23-.3-.06-.76-.17-3.05-.72-2-.48-2.19-.53-4.67-1.19l-1.69-.45c-.1,0-.81-.25-1.58-.51-1.45-.48-2.22-.72-3.78-1.18-.49-.14-1.05-.32-1.24-.39s-1-.33-1.74-.57c-1.35-.43-2.73-.92-3.21-1.13s-2.17-.84-3.22-1.23c-.52-.19-1.05-.39-1.18-.45-.64-.27-1.43-.58-2.08-.8s-2-.79-3.63-1.49l-.3-.13.46-.2a9.06,9.06,0,0,1,1.12-.38,4.94,4.94,0,0,0,.86-.27c.11,0,.77-.27,1.49-.49,1.3-.4,1.56-.48,2.93-.86l1.74-.51c.56-.17,1.3-.37,1.64-.45s1.2-.31,1.91-.51l2.65-.7L293,376l1.63-.4c1.76-.39,2.18-.49,3.05-.72s1.22-.31,3.08-.72a8,8,0,0,0,1-.29,1,1,0,0,1,.42-.11,4.09,4.09,0,0,0,.77-.17c.54-.16,1.43-.39,2.63-.68l1.58-.45c.52-.17,1.31-.4,1.74-.51,1.15-.31,2.46-.73,3.56-1.13l1.6-.59a2.47,2.47,0,0,0,.61-.27,22.49,22.49,0,0,0-2.27.34c-.5.09-1.21.2-1.58.24l-1,.11c-.19,0-.85.08-1.47.12l-1.69.12c-.79.07-5.42.06-6.7,0-1.89-.11-3.28-.19-3.65-.23-.66-.08-2.83-.27-3.74-.34s-1.13-.09-2.19-.22l-1.69-.16-2.82-.26c-2.06-.19-9.47-.19-14.25,0a67.13,67.13,0,0,1-12.29-.39,26.28,26.28,0,0,1-3-.55c-.44-.1-1.08-.23-1.44-.29-1-.17-4.31-1.08-5.33-1.44a12.57,12.57,0,0,1-2.36-1.15l-.65-.38c-.17-.09-1-.59-1.83-1.11l-1.72-1c-.21-.12-6.18-4.07-8.06-5.34l-1.29-.85-.82-.57c-.34-.25-.7-.5-.81-.56a10,10,0,0,1-1.72-1.25c1-.24,3.27-.68,4.49-.89.31-.05,1-.18,2.1-.4.28-.05.83-.13,1.24-.16s1-.12,1.29-.17c.64-.12,1.06-.18,2.43-.35l2.14-.27c.65-.09,1.94-.24,2.87-.34l2.65-.29,1.92-.17c.52,0,1.43-.11,2-.16s1.58-.14,2.2-.17,1.36-.08,1.64-.11,1-.09,1.57-.12c1.43-.08,5.54-.48,6.31-.61.34-.06,1-.14,1.41-.18.87-.07,1.89-.21,2.93-.4.86-.15,2-.32,2.14-.33s.07,0,0-.1a17.56,17.56,0,0,0-2.59-.16c-1.36,0-2.73-.09-3-.12l-1.63-.19c-1.64-.18-5.71-.77-6.65-.95l-2.09-.39-2.42-.46c-.65-.13-1.39-.26-1.64-.29l-.84-.11-1-.11c-.49,0-1.53-.2-2.25-.33s-3.58-.5-4.62-.6c-1.54-.14-10.4-.08-12,.08-.65.06-1.71.14-2.36.18s-1.36.09-1.58.11c-1,.13-3.55.22-5.88.23s-2.59,0-2.75-.19-.18-.23,1.64-.65c2.2-.5,8-1.9,9.53-2.32l1.52-.39c.52-.13,1.44-.38,2-.56l1.91-.57c.47-.13,1.51-.47,2.31-.75l2.29-.79a3.1,3.1,0,0,0,.78-.33,9.78,9.78,0,0,0-1.33.19,56.82,56.82,0,0,1-10.42.79c-1.48,0-2.9,0-3.15-.06s-.83-.06-1.3-.07-1.2-.06-1.63-.11-1.27-.13-1.86-.17a10.81,10.81,0,0,1-1.13-.11,5,5,0,0,0-.79-.06c-.4,0-1.24-.08-1.86-.17s-1.88-.2-2.81-.28l-2.09-.16-1.5-.12-1.1-.08-1.42-1.09c-1.59-1.21-1.51-1.15-3.82-2.94-2.55-2-3.22-2.48-5.06-3.87-.93-.71-1.76-1.37-1.85-1.47a.48.48,0,0,0-.28-.18.59.59,0,0,1-.31-.2c-.09-.11-.79-.68-1.55-1.27s-1.82-1.42-2.36-1.86c-1.13-.91-2.15-1.7-2.6-2l-1.19-.9-1.18-.91c-.3-.2-2.39-1.82-4.56-3.52-1.43-1.11-2.11-1.62-2.71-2-.32-.21-.86-.62-1.21-.91l-1.05-.81-.4-.3,1.16-.36,1.83-.57c1.46-.46,2.23-.68,2.9-.85,1.06-.27,2.19-.56,3.13-.83L189,312c1.34-.33,2.46-.64,3.44-.95.28-.09.81-.23,1.18-.32.75-.18,2.32-.64,3.1-.9l1.52-.47c.56-.16,1.65-.52,2.42-.8l2.29-.82c1.43-.51,1.35-.57-.32-.23-1.25.25-2.17.4-3.09.5l-.79.11c-.1,0-.76.08-1.47.12s-1.75.12-2.31.17-3.65.14-6.87.17-5.93.08-6,.11-1.12.08-2.31.12a58.78,58.78,0,0,0-7.29.61l-1.61.28c-.48.08-.22.23-3.63-2.21-3.08-2.21-8.2-5.73-8.33-5.73s-.59-.37-1.27-.82a19.66,19.66,0,0,0-2-1.28,7.17,7.17,0,0,1-.73-.49c-.22-.17-1-.68-1.8-1.14s-1.83-1.09-2.34-1.42-.95-.6-1-.6a3.45,3.45,0,0,1-.55-.34,4.12,4.12,0,0,0-.57-.34,7.6,7.6,0,0,1-.83-.46c-.81-.5-1.39-.81-3.75-2.05-.84-.43-2.1-1.1-2.82-1.48-2.08-1.12-4.39-2.27-5.47-2.71-.9-.37-1.29-.54-2-.86a68,68,0,0,0-7.16-2.75c-.83-.28-1.62-.56-1.74-.61a34.6,34.6,0,0,0-4.17-1.19c-3.9-.89-4.65-1.06-5.52-1.23s-3.08-.46-4.17-.57l-1.86-.17a36.4,36.4,0,0,1-4.57-.53,3.62,3.62,0,0,1-1.07-.38l-.28-.21.68-.69c1-1.06,3.76-3.53,5.29-4.79.75-.62,1.7-1.4,2.1-1.75s1-.83,1.34-1.08l2.17-1.66a106.31,106.31,0,0,1,11.75-7.85c.68-.39,1.59-.94,2-1.22,1.2-.76,6.83-3.7,9.18-4.78l3-1.38c.49-.22,1.16-.5,1.47-.61l1.92-.76c.74-.31,1.62-.66,2-.79,1.17-.44,9-2.95,10.09-3.25.62-.16,1.35-.37,1.63-.45.65-.21,2.78-.74,3.78-1l1.25-.27c.44-.1,1.12-.23,1.52-.29l2-.33,2.36-.4,1.69-.29c.58-.1,3.71-.42,6.59-.67.69-.06,1.9-.14,2.71-.17,1.69-.08,9.16-.09,9.27,0s.55.07,3.74.25c1.73.09,7.59.82,10.32,1.29,2.23.37,3.26.56,3.42.62s1.6.36,2.1.45c.93.16,3.16.7,5.46,1.33l1.52.41c2.9.78,7.41,2.21,10.32,3.27l1.86.67c.8.28,3.46,1.32,4.05,1.57l.62.27,1.41.59,1.58.67c1.43.65,3.05,1.36,3.72,1.64l2.53,1.13c1.22.55,12.11,6,13.58,6.84l1.92,1,1,.57,1,.56c.37.19.85.46,1.07.59s.77.43,1.23.67l1.41.76,2.52,1.41a8.23,8.23,0,0,0,.78.4.64.64,0,0,1,.25.16,42.11,42.11,0,0,0,3.84,2c.46.21,2.62,1.26,4.79,2.34,3.64,1.8,5.16,2.58,8.79,4.51.74.39,2.44,1.27,3.77,1.94s3,1.55,3.78,1.95l2.13,1.16c.43.23.93.52,1.12.63s.43.25.52.29.5.26.9.49,1.6.86,2.65,1.41c1.95,1,2.55,1.32,3.93,2.1.42.24.79.44.81.44a7.37,7.37,0,0,1,.78.45,8.31,8.31,0,0,0,.81.45,3.64,3.64,0,0,1,.61.33c.3.18,1.75,1,3.23,1.76l3.27,1.75c1.36.74,1.91,1.05,2.23,1.25l.48.27,1.35.75,2.39,1.3c.65.34,1.29.68,1.42.76l1.13.62c1.43.76,5.21,2.85,7.26,4,.21.12,1.15.62,2.08,1.1s1.74.92,1.81,1,.76.43,1.55.84c1.27.67,3.65,2,4.14,2.32a2.79,2.79,0,0,0,.33.19c.1,0,.63.33,1.19.65s2,1.07,3.21,1.68,2.25,1.15,2.31,1.2.57.34,1.13.64l1.41.79,1.18.64,1.46.79,2.52,1.35c1,.53,2.25,1.21,2.76,1.5s1.53.84,2.27,1.22c3.43,1.77,5.35,2.8,5.94,3.17a2.32,2.32,0,0,0,.5.26,13.9,13.9,0,0,1,1.27.67c1.47.81,2.23,1.23,3.11,1.69l1.24.69c.48.28,2.46,1.28,3.16,1.59.12.06.37.19.56.31l.85.49,1.69,1c.65.36,2,1.11,3.1,1.66,2.07,1.07,3.09,1.62,3.26,1.75s1,.55,2.14,1.13,2.46,1.28,3,1.57c.87.48,9.67,4.87,10.2,5.08l1.11.5c.48.22.9.4.92.4l1.43.65c.76.36,1.56.73,1.78.81.85.32.63.44-.42.22-.29-.06-1.68-.29-3.07-.51-2.2-.34-5.52-.91-6.6-1.12s-2.07-.4-2.36-.44l-.9-.18-.79-.18c-.44-.08-1.7-.36-3.22-.72-.83-.19-1.76-.4-2.06-.45s-.71-.15-.9-.21-.87-.22-1.49-.35-1.28-.28-1.46-.34l-.73-.17c-.22,0-.75-.17-1.19-.29s-1.5-.39-2.36-.6l-2.71-.69-1.75-.44c-.34-.08-.84-.22-1.12-.32-.53-.17-1-.31-3.72-1.1l-2.25-.67-1.81-.57c-1.82-.56-3.6-1.12-4.28-1.35l-1.41-.44-4.22-1.33c-1.28-.45-5.56-1.92-6.2-2.13l-1.07-.38c-.66-.26-1.29-.49-4.91-1.82l-2.87-1.11c-.12-.06-.94-.36-1.8-.68l-1.92-.72c-.33-.14-1-.4-2.28-.87-.36-.13-.81-.31-1-.39a2,2,0,0,0-.44-.16,2,2,0,0,1-.43-.16c-.32-.15-1.33-.54-3.85-1.51s-7.07-2.78-7.78-3.09c-1.23-.54-1.65-.73-2.08-.9l-1.46-.63-3.22-1.32c-1.17-.48-2.19-.9-2.25-.95a6.87,6.87,0,0,0-.85-.34,8.1,8.1,0,0,1-.95-.39c-.13-.08-.66-.3-1.19-.51l-1.41-.58-1.07-.44c-.34-.13-.88-.36-1.21-.51a6.11,6.11,0,0,0-.66-.28,6.8,6.8,0,0,1-.64-.26c-.32-.15-1.19-.51-1.94-.8s-1.43-.57-1.52-.62l-1.36-.56c-.64-.26-1.28-.51-1.4-.57s-1.69-.71-3.16-1.3c-.43-.18-.83-.36-.9-.4s-.74-.34-1.52-.66c-1.54-.65-1.84-.78-2.59-1.11-.28-.13-1-.42-1.52-.65a8.11,8.11,0,0,1-1.12-.52.49.49,0,0,0-.26-.1,2.42,2.42,0,0,1-.62-.21l-1.38-.58c-.5-.19-1.08-.43-1.3-.53l-.73-.31-1.35-.57-1.47-.62c-.25-.12-.85-.37-1.35-.56l-1.35-.56L271,300.25c-2.56-1-2.63-1.06-3.29-1.35l-1.18-.47c-.42-.16-.94-.36-1.16-.46-.49-.21-.49-.21-2.42-1-.87-.34-1.89-.73-2.26-.86s-.78-.28-.9-.34c-.33-.14-3.47-1.37-4.45-1.74l-3.1-1.19c-.67-.27-3.52-1.28-5-1.77l-.74-.25a8.72,8.72,0,0,0-1.69-.55,18.67,18.67,0,0,0,2.06,1.13l4,2.06,3.66,1.89c3.06,1.58,4.77,2.47,5.35,2.79,2,1.09,3.64,1.94,4.51,2.31l1,.47a5.06,5.06,0,0,0,.64.26,9.26,9.26,0,0,1,.93.4l.89.39s.43.18.9.4.88.39.91.39l.81.35c1.32.6,1.41.64,2.68,1.17l1.47.62,1.69.74,2.16,1c.39.17.73.32.76.32s.45.18.92.4l.88.39s.58.25,2.88,1.32l.85.38,1.09.49c.48.22.9.4.92.4s.59.25,1.25.56,1.21.57,1.24.57a7.51,7.51,0,0,1,.76.32l2.8,1.25,5.8,2.6,1.52.67,1.47.65,1.77.77.87.38.85.38,1,.45,2,.87c1.34.58,1.84.8,2.93,1.29.31.15,1,.45,1.52.68,1.07.47,1.57.69,2.48,1.11l2.25,1,2.08.9,1.16.5c.39.16,1,.44,1.44.63s.76.33.79.33.36.14.75.32,1.07.46,1.5.63.88.36,1,.42.7.3,1.31.54,1.35.55,1.61.67l1.84.75c.74.29,1.58.63,1.86.76l.73.31,1.86.75.62.26c.3.11,1.07.44,2.11.89a3.49,3.49,0,0,0,.65.24.84.84,0,0,1,.31.1c.26.14.78.35,1.94.8.53.2,1.23.48,1.56.63a3.7,3.7,0,0,0,.7.27.89.89,0,0,1,.31.11c.11.06.9.37,1.77.69s1.84.7,2.16.85a3.31,3.31,0,0,0,.75.27.39.39,0,0,1,.23.07,12.1,12.1,0,0,0,1.88.72c.34.11,1.2.42,1.91.68,2.44.88,4.12,1.47,5,1.75l1,.34c1.28.53,10.44,3.57,13.57,4.51l2.43.73c.4.13,1.29.38,2,.57s1.54.43,1.92.54,1.46.42,2.42.67l2.14.57c1.27.34,2.7.72,4.17,1.08.34.08.82.2,1.07.28a6.3,6.3,0,0,0,.62.15c.37.07,1,.22,2.59.6l1.8.43.46.09c.62.16,4,.87,5.4,1.15l3.33.67c.52.11,2.95.56,4.68.85,1,.18,2,.35,2.14.39s2.91.51,3.32.56l1.64.27,2.47.41,2.82.44,3.72.58,2.37.35.62.1,3.15.5,3.61.58,2,.35,1.63.26c.82.1,2.95.49,5.64,1l3.66.72c2.37.46,10.08,2.39,13.69,3.42,3.24.93,8.25,2.59,11.1,3.67l2.37.9c.62.24,1.35.53,1.63.66s.84.37,1.24.53.89.36,1.07.45l1,.39,1.33.58.75.33s.7.3,1.49.68l2.23,1c1,.48,10.56,5.25,10.71,5.37s.48.29.94.53.9.48,1,.55l1.09.61c1.27.69,1.44.79,2.71,1.53l2.36,1.36c.84.47,3,1.76,3,1.81s-.29.64-.63,1.37-.84,1.75-1.09,2.28-.47,1-.49,1a1.69,1.69,0,0,1-.57-.33c-.67-.46-3.38-2.25-5.11-3.39-.71-.47-1.47-.95-1.69-1.07s-.76-.45-1.21-.74-1.34-.84-2-1.22l-1.84-1.12c-.37-.23-1-.61-1.46-.85-2.82-1.52-3.72-2-4.67-2.55-1.35-.76-8.66-4.37-8.86-4.37,0,0-1-.43-2-.92a7.51,7.51,0,0,0-.76-.32s-.34-.14-.7-.3c-1-.47-1.24-.55-2.79-1.17-.81-.31-1.57-.62-1.69-.67l-.91-.35-1-.39c-.19-.08-.79-.31-1.35-.5s-1.12-.4-1.24-.46c-.31-.15-3.46-1.17-4.28-1.4a8.26,8.26,0,0,1-1-.35,1.81,1.81,0,0,0-.47-.16c-.07,0-.67-.18-1.34-.4s-1.85-.58-2.62-.79l-1.75-.5c-.18-.06-.84-.23-1.46-.38s-1.63-.41-2.24-.58l-1.1-.3-1,.25c-1.85.43-2.82.68-3.34.84l-2.54.74c-1.11.32-2.71.81-3.55,1.09s-1.82.6-2.19.71c-1,.3-4.81,1.61-6,2.08-.59.23-1.61.6-2.26.84-1.2.44-2.35.88-3.77,1.47-1.26.52-2.76,1.12-3.54,1.42-.4.15-1,.4-1.3.54s-.77.33-1,.41a14.85,14.85,0,0,0-1.52.65c-.59.27-1.38.62-1.75.76-.58.22-1.28.51-2.25,1s-2.78,1.22-3.66,1.58c-.59.25-1.17.51-1.3.59a8.12,8.12,0,0,1-1,.44c-.4.16-1.19.51-1.75.77s-1.47.67-2,.92l-5.88,2.63-2.85,1.25-1.52.65c-.73.34-3.09,1.35-3.89,1.66l-1.07.43c-.12.06-.81.34-1.52.63-3.2,1.3-5.28,2.07-6.76,2.54-.4.13-.89.3-1.07.38s-1.84.63-5.58,1.8c-.47.15-1.5.43-2.31.62l-2.54.62c-.59.15-1.42.33-1.86.41a4.58,4.58,0,0,0-.91.23,3.76,3.76,0,0,1-.95.21c-.46.07-1.27.19-1.8.29-1.25.22-2.16.36-2.93.45l-.84.12c-.52.1-2.24.26-3.55.33-.78,0-1.44.09-1.47.11s-5.5.25-5.56.21Z"/><path class="cls-3" d="M1004.42,317.47c0-.21-4-7.11-5.3-9.14-.6-.92-2.71-4.14-5.64-8.57-2.68-4.06-6.1-8.82-8.75-12.18-2.85-3.61-5.85-7.25-6.64-8l-1.2-1.33c-1.2-1.34-1.38-1.54-4-4.46A129.87,129.87,0,0,0,962.73,264l-2.33-2.05a80.78,80.78,0,0,0-8.28-6.65l-3.57-2.62-1.57-.25a77.21,77.21,0,0,0-18,0l-1.86.21c-1.73.18-10,1.66-12.1,2.17l-3.46.83c-.65.15-1.94.49-2.86.74l-2.06.57c-1.49.4-4.31,1.23-7,2.09l-4.39,1.37-3.59,1.13-4.12,1.29c-1,.28-3,.91-4.46,1.38-3.64,1.17-3.64,1.17-5.85,1.72-1.06.27-2.2.57-2.53.68-1.17.39-4.75,1.23-6.91,1.63l-3.46.67c-.69.15-1.65.31-2.13.36a4.43,4.43,0,0,0-1.19.25,5.54,5.54,0,0,1-1.4.24c-.58,0-1.63.13-2.33.21-3.79.42-6.11.61-9.57.8-3.11.16-9.74.16-12,0-1.14-.08-5.42-.16-9.64-.18-8.53,0-18.88-.23-20.23-.4-.21,0-2-.08-3.9-.12-4.89-.11-9.23-.22-10.18-.28-.43,0-2-.08-3.45-.12-4.94-.15-6.51-.22-8.71-.41-1.21-.1-3.36-.22-4.79-.27s-2.63-.11-2.67-.14-.82-.05-1.73-.07-2.13-.07-2.71-.12-1.79-.14-2.66-.19-1.63-.12-1.67-.14-1.71-.12-5.45-.27c-1.66-.07-5.58-.34-5.58-.4s1.19-.8,3.39-2.18c3.36-2.12,9.24-5.59,9.46-5.59,0,0,.85-.44,1.81-1,3.36-1.87,6.64-3.54,10.74-5.48,5.32-2.52,6.78-3.2,9.1-4.22s11.59-5.68,12-6c.22-.18-.28-.07-1.65.38-2.42.8-4.72,1.46-7.74,2.22-2.14.55-11.83,2.5-14.17,2.86-12.69,2-17.79,3.22-27.49,6.82-5.37,2-5.63,2.09-8.71,3.2a88.7,88.7,0,0,1-12.91,3.87c-.73.13-2.82.55-4.65.92s-4.1.77-5,.9c-2.18.28-2.34.27-12.37-.73l-5.38-.53-3.79-.4c-.59-.08-2.25-.24-3.69-.36-2-.18-2.59-.27-2.46-.38s2.79-1.86,5.69-3.7c2.53-1.6,6.92-4.13,12.23-7.06,2.65-1.47,12.93-6.6,15.42-7.7.92-.4,2.5-1.13,3.53-1.62s2.28-1.07,2.79-1.29,2-.95,3.39-1.6,2.82-1.34,3.26-1.52c1.09-.46,6.58-3.28,6.52-3.35s-1.22.34-2.63.82-3.37,1.08-4.36,1.35l-3.39.94-2.79.78c-2.07.57-8,2-10.24,2.53-1.17.25-2.61.61-3.19.79l-3.79,1.15a97.74,97.74,0,0,0-11.3,3.91c-.77.35-2.18,1-3.13,1.36-2.68,1.14-8.24,3.91-12.63,6.29-6.93,3.76-13.32,6.8-12.93,6.16,0-.07,1-.76,2.1-1.52s3.21-2.22,4.69-3.25l6.07-4.22c5.42-3.76,10.06-7.14,12.43-9.06l1.77-1.39c.25-.17.42-.33.39-.36a18.75,18.75,0,0,0-2.1,1.16c-3.4,2-3.85,2.25-8.3,4.5-2,1-4,2-4.46,2.19l-3,1.3c-1.17.51-2.43,1.07-2.81,1.25s-2.11.89-3.86,1.59L667.59,255c-1.86.75-4,1.62-4.65,1.93s-1.8.77-2.46,1-1.43.59-1.71.73a1.57,1.57,0,0,1-1.07.19l-1.28-.14c-1.44-.12-2.6-.23-3-.28l-3.19-.32c-3.7-.36-3.89-.38-4.59-.46-.33,0-1.11-.1-1.73-.14-1-.07-9.33-.81-10.37-.93s-6.27-.59-7.31-.66l-2.8-.21c-3.76-.29-5.32-.39-6.71-.46a36.29,36.29,0,0,1-4.55-.39s.13-.16.34-.29,1.81-1.31,3.56-2.61c2.55-1.89,5.85-4.27,8.25-6,6.24-4.38,13.85-10.07,18-13.47,1.37-1.11,2.46-2,2.44-2.08a39.74,39.74,0,0,0-3.72,2.32c-1.16.76-3.38,2.06-6.18,3.62-2.47,1.39-2.44,1.37-3.86,2.12-3.12,1.66-4.26,2.24-7.44,3.82-5.54,2.74-12.91,6.49-14.56,7.42l-2.86,1.59c-1,.56-2.51,1.43-3.38,2-1.58.95-1.59.95-2.4.89-1.16-.08-5.36-.3-8-.4-3.84-.16-5.22-.2-8-.28-1.63,0-3.16-.1-3.39-.12-3.65-.33-32.57-.33-37.72,0l-1.86.13c-.48,0-2.33.1-4.12.14s-3.44.1-3.66.12-1.66.11-3.19.19l-4.72.28c-1.06.08-3,.2-4.32.27s-3,.19-3.79.26a51.92,51.92,0,0,1-7.78,0l-.4-.15.91-.85c.49-.47,2.05-1.76,3.45-2.89,2.4-1.92,3-2.42,6-4.74,1.59-1.24,10.85-8.22,12.36-9.32.66-.47,2.25-1.64,3.53-2.6s2.75-2,3.26-2.39,1.62-1.17,2.46-1.8,2.64-1.94,4-2.92l3.39-2.44c2.74-2,7.16-5.09,9-6.33l3.13-2.16c1.72-1.22,4.51-3.11,6.72-4.58,1.13-.75,2.89-2,3.92-2.67s2.64-1.82,3.59-2.44c1.7-1.12,2.58-1.68,6.25-4l5.25-3.29c1.87-1.18,4.23-2.62,5.25-3.2s2.37-1.38,3-1.77c1.61-1,4.67-2.76,7.91-4.54l4.52-2.49a315,315,0,0,1,29.52-13.67c4.41-1.74,9.19-3.48,13.69-5,3.11-1,13.07-3.69,18.29-4.89,3.71-.85,5.81-1.28,9.49-1.94s7.24-1.15,9.86-1.35c1.64-.12,11.15-1,11.59-1s3-.26,7.09-.53c3.31-.22,14.57-.4,26-.4,6.38,0,8.48.06,12.23.33l2.66.2c.44,0,1.64.1,2.66.14s2.37.14,3,.21c2.58.27,5.8.66,6,.71s.59.09,1.07.14,1.22.13,1.66.19,1.25.16,1.8.2c1.32.1,3.6.46,9.44,1.49,5.46,1,9.35,1.69,10.64,2l6,1.39c1.16.27,1.92.46,6.25,1.6.84.22,2,.54,2.59.72l4.06,1.13c1.64.44,3.14.86,3.32.93s.69.22,1.13.34c.82.23,4,1.25,6.05,1.93,1.84.61,5.28,1.83,6.78,2.41.76.3,2.26.83,3.32,1.19s2.56.9,3.33,1.2c2.5,1,4.71,1.86,5.45,2.2l1.33.57c.33.13.93.39,1.33.57s1.12.5,1.6.69l1.26.54,1.93.87c.84.38,2.22,1,3.06,1.32,3.13,1.31,13,6.18,15.41,7.57.39.23,1.65.91,2.79,1.5s2.77,1.48,3.61,2,2.33,1.33,3.32,1.86c2.17,1.18,4.9,2.78,6.78,4,.77.49,2.57,1.59,4,2.45s3,1.84,3.59,2.2l4,2.53c1.65,1,3.38,2.15,3.86,2.46s1.57,1,2.43,1.51c1.89,1.14,7,4.56,7,4.63a6,6,0,0,1-1-.34c-.54-.22-1.34-.52-1.78-.68s-.92-.34-1.06-.41c-.8-.34-4.29-1.57-7.32-2.59-1.9-.64-4.5-1.55-5.78-2-4-1.45-5.58-2-7.71-2.72l-6-2-5.45-1.78L860,202.76c-1-.32-2.43-.77-3.2-1l-2.12-.66c-4.66-1.5-6.19-2-8.51-2.64-1.28-.37-3.5-1-4.92-1.35s-2.78-.74-3-.81-1-.3-1.86-.52l-3.12-.88c-.92-.26-2.53-.68-3.59-.94l-5-1.2c-1.68-.41-4.43-1.08-6.12-1.51s-3.59-.87-4.25-1l-4.52-.87c-4.71-.93-9.41-1.79-11.5-2.12l-4.59-.74c-3.51-.57-6.08-1-7.45-1.13-3-.38-10.69-1.2-13.09-1.4l-1.33-.13-2.4-.13c-1.06,0-2.38-.1-2.92-.14l-2.6-.13c-.88,0-2.67-.14-4-.23-2.72-.19-20-.23-23.67-.06-6.47.3-15.83,1-19.08,1.43l-1.53.19-1.13.14-1.13.12c-4.08.39-17.83,2.63-18.14,2.95a2.73,2.73,0,0,0,.92,0l2.4-.15,2.39-.13c1.7-.1,3.58-.2,5.38-.28,1,0,1.91-.1,2.13-.12s3.15-.08,6.52-.13,6.44-.11,6.85-.14,2.43-.12,4.52-.19l5.18-.2c4.6-.21,6.76-.27,9.24-.27,3.38,0,12.4.18,13.24.27.32,0,1.88.12,3.45.2,4.34.2,5.52.28,9.38.6.75.07,2.63.26,3.66.39l1.86.19,1.86.2c.25,0,1.09.13,1.86.2s1.61.17,1.86.21l1.86.2c2.36.24,2.48.26,6.39.92l6,1c2.64.44,9.83,1.77,10.11,1.88.1,0,1,.25,2.06.45,6.08,1.24,6.11,1.25,14.62,3.38,4,1,5.37,1.36,7.45,2l2.46.73,5,1.48c.22.07,1.53.44,2.92.82s3,.85,3.59,1.05c1.58.55,8.54,2.83,10.37,3.39.88.27,2,.65,2.53.83s1.14.39,1.4.46,1.57.56,2.92,1.07,3,1.13,3.73,1.37l2.79,1c.84.3,2.13.75,2.86,1,1.62.53,3,1,9.64,3.63l3.39,1.29c2.38.87,3.81,1.43,6.45,2.49,5,2,9.12,3.67,10.9,4.36s2.15.84,5.22,2.18c.93.41,1.72.75,1.76.75a7.79,7.79,0,0,1,.76.31c.39.18,1.3.57,2,.88s1.56.66,1.86.8l2.19.93,2.08.88a3.41,3.41,0,0,0,.49.19c.07,0,1.51.66,3.81,1.75l4.52,2.13c5.88,2.74,14,7,18.2,9.51a161.91,161.91,0,0,1,18.31,12.6c1.78,1.37,5.31,4.34,7.18,6.06,4.14,3.8,7,6.62,9.71,9.5a179.52,179.52,0,0,1,14.9,17.82c4.43,5.79,4.61,6,10.81,15.49.69,1.06,2,3.24,3,4.83,1.65,2.74,1.75,2.94,1.62,3.33-.07.23-.38,1.27-.68,2.31a10.37,10.37,0,0,1-.65,1.9.1.1,0,0,1-.1-.11Z"/><path class="cls-1" d="M1113,693.45c-4.84-.21-7.14-.34-9.15-.5a181.94,181.94,0,0,1-19.09-2.2l-3.73-.62c-.25,0-.78-.14-1.19-.22l-1.86-.39c-2.38-.49-8.53-2-9.94-2.38l-2.21-.62c-1.66-.46-7.21-2.25-8.61-2.78-.48-.18-.89-.33-.93-.33-.25,0-4.68-1.75-6.45-2.54-.18-.09-.72-.31-1.18-.51s-1.06-.45-1.31-.57a3.62,3.62,0,0,0-.54-.22s-.61-.26-1.28-.58l-1.67-.78c-.71-.33-3-1.46-3.73-1.85-2.11-1.1-3.63-1.91-3.73-2s-.9-.53-1.81-1L1034,673c-.15-.1-1-.58-1.84-1.07-1.52-.87-1.87-1.07-3.44-2-.42-.26-1.44-.84-2.26-1.3l-2-1.14-.81-.45c-.46-.23-2.63-1.62-4.73-3l-2.42-1.62a7.8,7.8,0,0,1-.7-.53,1,1,0,0,0-.32-.23,9,9,0,0,1-1-.71l-1.4-1-1.76-1.31c-.7-.54-1.43-1.07-1.62-1.19s-.81-.57-2-1.49c-.21-.17-.62-.51-.9-.77l-1.26-1.07c-.41-.34-1.19-1-1.75-1.5l-1.58-1.38-1.64-1.42c-2.32-2-10-9.91-12.9-13.33-1.1-1.28-3.11-3.74-3.65-4.45-.31-.41-.8-1-1.08-1.35-.54-.63-1.36-1.73-2.06-2.75-.24-.34-.54-.76-.68-.94l-.87-1.18L978,624l-1.24-1.69c-.34-.48-.79-1.09-1-1.36-.34-.47-.95-1.35-2.15-3.1-.27-.4-.69-1.06-.92-1.46-.49-.86-1.36-2.3-1.88-3.11-.2-.31-.51-.85-.7-1.2a14.45,14.45,0,0,0-.81-1.3,4.84,4.84,0,0,1-.46-.76,2.39,2.39,0,0,0-.32-.57c-.3-.44-1.51-2.55-2.33-4.08s-1.65-3-1.92-3.45a5.19,5.19,0,0,1-.4-.75c-.06-.15-.37-.71-.68-1.24a11.4,11.4,0,0,1-.56-1c0-.05-1-2.2-1.61-3.38-.31-.63-2.77-5.78-3-6.33l-.82-1.81c-.35-.75-.75-1.7-.91-2.11s-.36-.91-.47-1.12c-.19-.36-.47-1.08-1.8-4.56-.33-.87-.77-1.94-1-2.38-.34-.75-.69-1.7-1.64-4.51-.23-.69-.66-1.88-1-2.66s-.67-1.79-.84-2.26-.45-1.23-.63-1.7-.45-1.3-.61-1.86-.48-1.61-.73-2.34-.5-1.52-.56-1.75-.39-1.34-.74-2.46-1-3-1.32-4.18-.94-3-1.28-4.07c-1-3-2.16-7-2.5-8.25-.17-.62-.43-1.48-.57-1.91-.49-1.43-.32-1.31.59.44.35.69.92,1.78,1.26,2.43l1.15,2.21c.73,1.39,1.82,3.38,2.23,4.06.19.31.63,1.09,1,1.73l1.26,2.26c.34.61.62,1.14.62,1.18a4.54,4.54,0,0,0,.32.62c.18.3.59,1.06.92,1.68s.67,1.2.75,1.3a.63.63,0,0,1,.16.24s.21.43.46.89c.49.88,1.43,2.59,2.24,4.09.26.49.57,1,.69,1.25s.35.61.52.92.49.87.73,1.24l.69,1.14c.14.25.49.84.76,1.3s.77,1.3,1.1,1.86l1.11,1.86.89,1.47c.55.92,1.06,1.76,1.68,2.73a10.53,10.53,0,0,1,.54.94,9.24,9.24,0,0,0,.56.92,8.4,8.4,0,0,1,.57.91s.3.52.66,1.09l1,1.56c.32.5.67,1,2.09,3,1.09,1.55,2.33,3.37,4.35,6.33.65,1,1.46,2.13,1.8,2.6L975,596c.57.84,1.2,1.74,1.41,2a2.78,2.78,0,0,1,.38.55,3.72,3.72,0,0,0,.48.67c.55.65,1.3,1.62,1.9,2.45.23.31.54.7.69.87s.41.49.57.7a6.87,6.87,0,0,0,.54.66c.14.14.69.81,1.24,1.49,1.2,1.49,1.71,2.11,2.38,2.88l1.07,1.25,1.19,1.35c.34.38.9,1,1.24,1.41s.85,1,1.13,1.3,1,1.09,1.51,1.73a158.59,158.59,0,0,0,13.12,13c.43.37.89.78,1,.92.45.42,4.84,4.06,5.31,4.4.26.18,1,.71,1.57,1.18l1.39,1.07c.17.12.56.43.87.68s.71.56.89.68.47.32.63.45l1.15.82,1.45,1c2.57,1.88,7.94,5.4,11.36,7.45l1.52.92.68.39c.28.15.59.33.68.39,1.4.89,7.75,4.15,10.11,5.2l2.07,1c.83.39,1.53.72,1.56.72a4.28,4.28,0,0,1,.52.21c.9.41,3.08,1.34,3.7,1.59l1,.41c.2.09.79.31,1.3.5l1.32.51,1.07.4,1.4.51c1.58.59,1.18.29-1.45-1-2.16-1.11-7-3.76-8.11-4.46a4.83,4.83,0,0,0-.8-.43.4.4,0,0,1-.24-.16,2.33,2.33,0,0,0-.6-.4c-.27-.13-1-.55-1.62-.94l-3.55-2.23c-.46-.3-1.41-.86-2.09-1.25l-1.47-.83-2.68-1.62-.93-.54c-.36-.2-.87-.53-2.35-1.51a10.29,10.29,0,0,0-.93-.58c-.11,0-2.62-1.64-4.24-2.76l-1.8-1.25c-.41-.27-.94-.65-1.19-.84-.55-.41-1.69-1.25-2-1.48-.14-.09-.65-.47-1.13-.84s-1-.78-1.21-.91-1.18-.89-3.15-2.43c-1.15-.89-2.8-2.26-3.33-2.76-.13-.13-.54-.48-.91-.79A179.25,179.25,0,0,1,994.76,614l-1.08-1.24c-1.21-1.36-3.95-4.6-4.23-5-.1-.13-.34-.42-.54-.64s-.51-.59-.68-.81c-.29-.37-1.48-1.83-2.6-3.18-.26-.32-.63-.78-.82-1s-.51-.65-.71-.89-.49-.63-.64-.86-.48-.66-.71-1a25,25,0,0,1-1.67-2.28,1.13,1.13,0,0,0-.23-.37c-.35-.44-1.77-2.51-3-4.41-.26-.4-.73-1.09-1-1.54a6.23,6.23,0,0,1-.57-.88,2,2,0,0,0-.33-.49c-.43-.55-2-2.94-2-3a6.27,6.27,0,0,0-.56-.84,9.27,9.27,0,0,1-.57-.84,5.91,5.91,0,0,0-.45-.71c-1.2-1.69-2.11-3.13-3.39-5.32-.28-.48-.65-1.07-.82-1.32a2.28,2.28,0,0,1-.31-.52,10.6,10.6,0,0,0-.62-1.06,8.87,8.87,0,0,1-.62-1.08,9.75,9.75,0,0,0-.62-1.11c-.34-.56-.62-1.05-.62-1.08s-.25-.45-.55-.93-.57-1-.61-1.07-.33-.59-.64-1.1a7.63,7.63,0,0,1-.58-1,11.94,11.94,0,0,0-.62-1.14c-.34-.58-.62-1.08-.62-1.12a7.82,7.82,0,0,0-.47-.8c-.26-.41-.64-1.06-.83-1.43-1.47-2.82-1.9-3.63-2-3.73s-.91-1.66-2.24-4.23c-.53-1-1.39-2.68-1.93-3.68-1.06-2-5.1-10-5.1-10.13s-2.43-5.14-2.78-5.8c-.1-.18-.64-1.25-1.2-2.37L944,531.75c-.4-.76-2.36-4.72-2.36-4.76s-.38-.89-.85-1.9-1-2.19-1.23-2.62c-.48-1-1.72-3.7-2.51-5.43-.35-.74-.82-1.76-1.06-2.26-1.74-3.68-3.16-6.86-3.38-7.57a2.87,2.87,0,0,0-.23-.56c-.08-.11-.56-1.25-1-2.49-.12-.31-.29-.71-.38-.9a16.64,16.64,0,0,1-.84-2c0-.05-.28-.72-.61-1.48-.73-1.64-1.31-3-1.84-4.43-.21-.56-.59-1.5-.83-2.09s-.57-1.45-.72-1.92-.46-1.36-.69-2-.48-1.36-.56-1.64-.43-1.32-.77-2.31c-1.8-5.25-4.54-13.75-4.75-14.75-.09-.4-.44-1.75-.78-3s-.8-2.9-1-3.67-.51-1.92-.69-2.54-.47-1.72-.65-2.43l-.84-3.34c-.28-1.12-.65-2.67-.82-3.44-.32-1.51-.81-3.6-1.87-8-.36-1.49-.74-3.17-.84-3.73-.22-1.27-.4-2.07-1-4.63-.54-2.26-1.63-7.25-1.92-8.81-.1-.56-.47-2.13-.82-3.49l-.63-2.47,2-2,2-2,.14.64c.4,1.91,1.19,6.67,1.39,8.42.36,3.21,1.08,7.72,1.46,9.21.12.48.3,1.33.39,1.89.22,1.33.68,3.83,1,5.54.15.74.43,2.17.61,3.16,1.07,5.7,1.74,8.82,2.5,11.64.56,2,1.86,7.43,2.2,9.09.15.72.4,1.76.56,2.32s.46,1.68.67,2.49.61,2.18.9,3.05.59,1.86.68,2.2.42,1.38.73,2.31.85,2.61,1.21,3.72l.64,2,.86.85a42.21,42.21,0,0,0,3.23,2.75c.14.09.47.35.75.57s.63.48.79.59l1.07.75a56.24,56.24,0,0,0,7.51,4.55,73,73,0,0,0,8,3.54c.28.08,1,.3,1.47.5s1.45.52,2,.7l1.47.49c.21.09.75.26,1.18.38l2.71.79c1.06.31,2,.58,2.21.61l1.8.46c1.57.4,2.85.72,4.24,1l1.92.45c1.89.45,2.69.63,3.17.72.24,0,.8.19,1.24.32s1.17.31,1.64.42c1.95.44,4.58,1.16,5.59,1.51l2.31.76c2.54.83,2.42.78,4.07,1.44,2.69,1.08,3.45,1.4,4,1.71a1.79,1.79,0,0,0,.75.25.91.91,0,0,1,.53.2c.21.14,1.12.64,2,1.11s2.22,1.2,2.93,1.64c1.14.68,1.65,1,2.94,1.88l1.24.82c.53.35,1.09.73,1.25.85l.9.66,1.09.82.9.71c.66.5,2.4,2,3.05,2.53.82.73,1.1,1,2.25,1.89l1.3,1.06c.25.2,1,.81,2,1.52l.55.4c.15.09.65.47,1.13.84l1.4,1.08c.3.21.83.62,1.19.9l1,.79c.69.54,2.35,1.87,2.75,2.21.23.19.64.51.92.7.5.35,1.22.94,3.81,3.15.73.62,1.57,1.31,1.86,1.52,2,1.46,3.59,2.72,4.67,3.66.43.38,1.29,1.1,1.92,1.59l2.3,1.86c1.15.95,1.62,1.32,2.46,2,.24.18.61.5.83.7.84.76,2.71,2.38,3.32,2.87,1.14.9,2.27,1.83,2.33,1.91a2.7,2.7,0,0,0,.3.25,8.91,8.91,0,0,1,.79.64c.3.26.91.77,1.35,1.12s1.2,1,1.7,1.44,1.43,1.28,2.09,1.87c1.16,1,1.57,1.36,3.09,2.56.76.6,2.8,2.41,2.86,2.53s-.16.11-.4.14l-3.2.52a100.38,100.38,0,0,1-17.45,1.3c-2.8,0-6,0-7.23-.06-7.19-.26-14.17-.24-13.69,0a9.88,9.88,0,0,0,1.46.33c.7.12,1.55.29,1.89.38l1.58.4c.53.13,1.27.33,1.64.45l2.54.81c1,.32,1.92.62,2,.67a5.43,5.43,0,0,0,.73.31l1.19.44,1.8.7c.68.27,1.78.73,2.43,1s1.65.74,2.21,1c1.11.44,2.12.86,2.83,1.18a53,53,0,0,0,8.24,2.75l1.19.29a69.82,69.82,0,0,0,8.53,1.3c4.35.49,6.65.78,8.76,1.14l2,.33a42.46,42.46,0,0,1,6.1,1.58l2,.68a23.46,23.46,0,0,1,6.21,2.78c.25.22,1.11,1,1.92,1.63s1.72,1.46,2,1.74l1.83,1.69c.37.33.87.8,1.12,1,.48.44,2.53,2.29,3.84,3.45l1,.9,2.27,2c2.08,1.8,3.81,3.34,4.7,4.17,1.3,1.23,1.57,1.48,2.31,2.1.43.37,1.25,1.08,1.81,1.58s1.33,1.16,1.69,1.47c.88.74,2,1.71,2.33,2.08.16.16.87.78,1.58,1.37s1.54,1.3,1.85,1.58l1.19,1,1.13,1c.78.68,1.56,1.33,2.31,1.94.36.3.9.76,1.18,1s1.18,1,2,1.69,1.49,1.25,1.52,1.3.44.39.91.77l1.33,1.12a5.88,5.88,0,0,0,.68.52,4,4,0,0,1,.42.31c.12.12.68.58,1.24,1s1.35,1.09,1.75,1.44c.79.69,4.25,3.51,4.8,3.93l.85.61a4.87,4.87,0,0,1,.62.48,4.49,4.49,0,0,0,.62.5c.59.42,1,.74,2.09,1.61s2.84,2.2,4.4,3.35l1.53,1.14,1.78,1.33c2.49,1.87,3.57,2.65,5.51,4l3.68,2.6c1.75,1.25,4.2,2.92,6.78,4.63,1,.68,1.38.91,2.65,1.7l1.41.9,1.14.74.51.33c1.07.72,1.89,1.22,2.43,1.51a24.93,24.93,0,0,1,2.53,1.53,17.73,17.73,0,0,0,2,1.23l1.35.78c1.21.71,2.82,1.6,3.36,1.85.37.17,1.33.71,2.35,1.3.31.19.86.5,1.22.7l1.19.67.81.45.59.35c.33.22,7.35,3.76,7.94,4,1.21.49,2.38,1,3.69,1.65,2.28,1.1,2.9,1.38,5.29,2.33,1.21.48,2.51,1,2.88,1.19s1.16.48,1.75.7c1.26.47,2,.74,2.43.93s1.21.47,3.79,1.35a26.79,26.79,0,0,1,5,2c.58.4.84.71.71.83a30.26,30.26,0,0,1-2.93,1.55c-2.38,1-4,1.71-5,2.08l-1.92.73a149,149,0,0,1-19.21,5.64c-2.09.49-9.74,2-10.62,2.15s-4.66.75-4.75.8-6,.85-9.88,1.3c-6.25.71-6.84.77-7.86.85-.52,0-2.08.19-3.44.33-3.82.42-4.66.47-13.45.89-8.31.4-19.29.52-24.63.28Z"/><path class="cls-2" d="M1238.6,467.56a13.86,13.86,0,0,1,0-3.88c.14-1.57.19-11.76.07-12.64,0-.21-.14-1.79-.25-3.52s-.25-3.52-.31-4-.15-1.3-.2-1.89-.27-2.2-.5-3.58-.48-3-.56-3.65c-.19-1.4-.71-4.5-1-5.6-.1-.45-.27-1.36-.38-2-.72-4.36-3.48-15.74-5.72-23.53-.13-.45-.42-1.44-.63-2.2s-.61-2.09-.88-3l-1-3.33c-.28-1-1-3.41-1.71-5.42-2.82-8.7-5.69-17.45-7.14-21.77l-2.45-7.3c-.49-1.45-1.38-4.17-2-6s-1.34-4.16-1.65-5.09-.85-2.67-1.2-3.84l-.65-2.14,0-3.59c0-6.54.13-8,2-18.18a65.32,65.32,0,0,0,1.39-15.17c0-9,.43-15.05,1.23-19,.21-1.07.16-1.27-.12-.49-.5,1.36-2.41,7.68-2.85,9.41-.08.32-.34,1.19-.57,1.95l-1.25,4.22c-1.55,5.25-2.23,7.32-3.79,11.6-.66,1.81-2.4,6-2.56,6.18s-1.87-6.53-3-11.55c-.36-1.66-.89-4-1.17-5.16-.69-2.94-2.17-10.43-2.65-13.39-.21-1.35-.52-3.07-.69-3.84-.37-1.72-1.07-6.39-1.62-10.77s-.76-5.91-1.09-7.93a53.55,53.55,0,0,1-.94-11.77c0-3.26.06-5.43.16-6.16s.21-1.7.28-2.39c.56-5.54,1.78-11.49,4.32-21.08,1.39-5.25,1.85-7,2.49-9.51.41-1.59.89-3.6,1.07-4.46s.4-1.89.49-2.28.44-2.23.75-4.11a99.49,99.49,0,0,0,1.73-17.46v-2.64l-.92-1.64c-.5-.9-1-1.83-1.16-2.08-.5-.89-.91-1.59-1.48-2.58l-1.32-2.26c-.41-.69-1.37-2.23-2.15-3.4s-1.79-2.77-2.26-3.53c-1.22-1.95-3.21-4.89-6.71-9.91-.93-1.33-2.21-3.21-2.85-4.18s-2.09-3-3.23-4.53-2.28-3.11-2.56-3.52a10.32,10.32,0,0,0-.73-1c-.22-.27-.22-.27,1-1a15,15,0,0,1,2.54-1.35,3,3,0,0,1,.59.85c.47.87,2.43,4.19,4.39,7.46.6,1,1.4,2.28,1.78,2.83s1.26,2,2,3.15,2.19,3.61,3.31,5.41c2.76,4.45,6.36,10.45,7.55,12.58,1.6,2.89,4.29,7.9,5.41,10.07,2,3.8,2.27,4.42,5,10.13.72,1.49,3.9,8.29,5,10.7,1.27,2.75,1.46,3.17,2.27,4.84,2.36,4.92,2.76,5.77,2.76,5.82s1,2.12,2.28,4.67,3,6.09,3.89,7.89,2.66,5.42,4,8.05c2.7,5.46,3.87,7.87,4.72,9.75.33.73.74,1.64.92,2,2,4.3,5.26,11.85,6.56,15.15,1.71,4.35,4.07,11.16,5.89,17.07.65,2.1,2.41,8.89,2.87,11.07s1,4.68,1.25,6.23c.15.83.35,1.93.44,2.45.89,4.85,1.77,11.38,2.34,17.31.14,1.52.45,4.15.69,5.85.55,3.92.89,6.82,1.18,10,.13,1.41.27,2.6.31,2.64s.12-8.79,0-9.66c0-.17-.08-1.56-.12-3.08-.08-2.55-.49-9.39-.64-10.57,0-.28-.15-1.47-.26-2.65-.49-5.3-1-9.16-2.44-17.36a138.16,138.16,0,0,0-3.7-16.05c-.31-1-1-3.16-1.46-4.78-1.88-6.19-3.44-10.58-6-16.8-3.55-8.77-5.5-13.29-8.46-19.64-.25-.55-1.23-2.7-2.16-4.78-1.46-3.24-4.33-9.51-4.89-10.69s-3.44-7.8-3.4-7.84a46.81,46.81,0,0,1,3.12,3.9c.94,1.21,2,2.47,6.37,7.88.71.88,1.79,2.21,2.39,3l2.82,3.55c1,1.2,2,2.56,2.32,3s.77,1.08,1,1.36.6.76.83,1.09l1.51,2.07c1.63,2.25,4.33,6.3,6.4,9.61,2.19,3.49,2.7,4.36,4.34,7.36.68,1.25,1.43,2.59,1.66,3,.51.89,1.77,3.49,3,6.2.5,1.11,1.09,2.39,1.31,2.85.67,1.44,3.1,7.64,3.76,9.61,1.23,3.67,2.62,8.47,3,10.52.13.66.41,1.88.62,2.7a135.2,135.2,0,0,1,2.84,19.81c0,.94.19,2.89.32,4.34a173.4,173.4,0,0,1,.88,18.63c0,6.62-.33,14.92-.75,19-.06.63-.15,1.56-.19,2.08-.15,2.18-.35,4.35-.58,6.42-.14,1.21-.33,3-.43,4s-.28,2.42-.38,3.21-.33,2.5-.5,3.79c-1.15,8.82-3.19,21.37-4.48,27.44-.21,1-.52,2.51-.69,3.38-.48,2.47-2.11,9.66-2.73,12.08-1.79,6.94-2.06,7.88-4.1,14.35-1.2,3.81-1.46,4.58-2.26,6.67-4.95,12.91-10.36,22-17.09,28.66-1.39,1.38-1.69,1.58-1.89,1.26Z"/><path class="cls-3" d="M782.72,730.09c-3.25-6.38-5.79-11.16-9.79-18.39-.51-.92-1.26-2.28-1.66-3-.86-1.56-1.35-2.4-1.84-3.18-.19-.31-1.26-2.09-2.37-4l-2.38-4c-.2-.3-.54-.84-.75-1.19s-.61-1-.85-1.35l-.8-1.27c-2.48-4-5.1-7.92-9-13.34l-3-4.15c-1.19-1.68-2.54-3.5-3.57-4.81l-1.51-1.92-1.51-1.88c-.57-.69-1.19-1.48-1.38-1.75-.7-1-4.55-2.82-9.3-4.5a59.94,59.94,0,0,0-21.16-3c-6,.15-11.15.77-21.24,2.55-1.7.3-3.45.6-3.89.66s-1.83.31-3.1.57-3.27.57-4.45.7-2.79.36-3.57.48a54.94,54.94,0,0,1-6.6.64c-1.18,0-3.13.16-4.33.24a22.79,22.79,0,0,1-2.38.08c-.11,0-1.38-.1-2.82-.16a107.9,107.9,0,0,1-21.71-2.8c-2.94-.67-6.69-1.33-9.44-1.66-.48-.06-3.7-.63-7.15-1.27s-6.6-1.21-7-1.27-1.93-.39-3.42-.73-4.59-1-6.9-1.35-4.25-.75-4.3-.78-3.69-.8-10-2.08c-1.53-.31-3.82-.85-5.09-1.18-1.95-.53-3.46-.88-7.47-1.74-2.25-.49-4.64-1.07-6.78-1.66-1.39-.38-3.69-1-5.14-1.27a39.39,39.39,0,0,1-6.19-1.69c0-.1,5.38-3.65,7.94-5.24,1.72-1.07,8.93-5,11.92-6.45.39-.2,1.79-.84,3.1-1.42l4.85-2.17c1.35-.61,3.53-1.56,4.84-2.11,4.26-1.8,12.12-5.58,11.95-5.75a8.56,8.56,0,0,0-1.73.35,73.45,73.45,0,0,1-13,2.22l-3,.25c-1.56.15-3.46.26-10.64.62a77.08,77.08,0,0,0-11,1.34c-3.73.74-6,1.38-14.11,4s-12,3.49-17.4,3.89l-3.34.27c-.61.06-2,.09-3.17.08-2.56,0-3.25-.23-13-3.57l-10.88-3.72c-2.19-.74-5.16-1.8-6.6-2.35s-2.91-1.09-3.26-1.2c-1-.32-5.72-2-7.7-2.78-1.68-.64-4.33-1.61-11.76-4.29-1.53-.55-4.07-1.48-5.65-2.07s-3.67-1.34-4.66-1.68-3.61-1.3-5.8-2.12c-4.54-1.7-7.33-2.68-18.22-6.38-10.26-3.49-16.8-5.5-26.3-8.09-4.59-1.25-11-2.75-14-3.26-1.05-.18-3.73-.68-6-1.11s-5-.9-6.2-1l-4.13-.47c-1.09-.12-2.88-.27-4-.33s-2.49-.17-3.1-.26-3.19-.16-5.72-.15a118.67,118.67,0,0,0-13.91.75c-3.44.39-5.43.45-5.93.19l-.44-.23.76-1c1.52-2,9.33-9.72,13.8-13.6s11.37-9.26,15.6-12.18c.72-.49,1.83-1.28,2.47-1.75,1.11-.82,5.53-3.79,7.19-4.83.44-.27,1.41-.91,2.15-1.43,1.38-.95,4.38-2.79,7.23-4.43.87-.5,2.91-1.73,4.53-2.74,4.41-2.75,10.54-6.23,13.66-7.78,1.53-.75,4.19-2.14,5.9-3.08,3.9-2.12,10.7-5.57,14.05-7.12l5.72-2.63A292.66,292.66,0,0,1,471.32,516c14.38-4.59,21.95-6.3,34.21-7.73a155.46,155.46,0,0,1,31.82.16c1.44.16,4.16.42,6,.56A125,125,0,0,1,560,511.39l4.33,1c3,.65,6.35,1.57,11.56,3.2,3.55,1.12,9.57,3.28,10.64,3.83.25.13,1.65.72,3.1,1.3a166,166,0,0,1,16.61,7.83,217.46,217.46,0,0,1,19.94,12.2l4.77,3.34c2.89,2,3.91,2.75,5.17,3.73,2.57,2,9.59,7.65,11,8.88l3.27,2.8c5.14,4.41,8.25,7.34,16.19,15.32,4.8,4.82,9.48,9.61,10.41,10.65s2.69,3,3.92,4.37c2,2.22,7,7.89,12.88,14.57,1.92,2.18,6.18,7.2,6.73,7.93.23.3.23.31-.07.08s-1.42-1.17-2.79-2.31-4.12-3.31-6.13-4.83-4.67-3.6-5.93-4.61c-3.41-2.73-13-9.82-18.73-13.77l-4.29-3c-4.86-3.39-9.43-6.41-13.54-8.94a328.8,328.8,0,0,0-29.56-16.51c-12.59-6-25.57-11.09-35.21-13.87-4.46-1.29-15.08-3.88-18.34-4.47l-2.94-.56c-1.44-.28-9.19-1.45-11.63-1.75a189.7,189.7,0,0,0-36.19-.55c-1.83.17-3.43.31-3.57.31-.34,0-.12.17.32.23.21,0,1.45.11,2.76.17s2.67.13,3,.17l3.65.31c3.43.28,9.12.91,11.37,1.26.83.12,2.86.34,4.53.48a188.38,188.38,0,0,1,31,4.85c4.18,1,5,1.2,10.91,3a202.52,202.52,0,0,1,28,10.56c.55.25,1,.46,1.06.46.26,0,8.76,4.22,14,6.94s12.55,7,17.56,10.14c1.53,1,3,1.87,3.18,2,.47.25,8,5.13,9.47,6.13,4,2.73,7.87,5.5,11.35,8.09,2.23,1.67,5.38,4,7,5.14s4.78,3.55,7,5.3,5.25,4.13,6.73,5.27c3.31,2.56,3.74,2.9,7.41,6,1.61,1.36,3.82,3.2,4.91,4.08,2.75,2.22,5.16,4.25,7.57,6.39l5.7,5c4.38,3.84,13.11,12.11,16.86,16a254.29,254.29,0,0,1,17.15,19.15c1.78,2.18,7.78,10.07,10.12,13.33,1.56,2.16,7,10.24,8.87,13.26l2.94,4.64c.44.69,1.71,2.8,2.41,4,.29.5.78,1.34,1.08,1.87s.81,1.38,1.11,1.9l1.14,1.95c.32.55.85,1.46,1.17,2s1,1.74,1.51,2.62c2,3.39,4.26,7.56,5.58,10.17.58,1.13,1.5,2.89,2,3.89s1.51,2.81,2.14,4l1.14,2.18-.21,2.07-.2,2.07Z"/><path class="cls-1" d="M1330.32,306.56c-.7-.06-.71-.07-.58-.65.37-1.68,3-6.8,5.87-11.41,2.36-3.8,7.93-12,11.38-16.83,1.68-2.33,7.38-10,11-14.78,3.52-4.64,9.2-11.86,18.62-23.66,6.34-7.94,8.27-10.39,11.46-14.57,5.17-6.77,5.86-7.86,9.14-14.29.89-1.75,1-1.9,1.69-2.1,1.55-.45,3.57-1,3.87-1.09a56.79,56.79,0,0,0,5.68-2.8,24.24,24.24,0,0,1,3.06-1.46c.9-.27,1.13-.63.3-.47-.28.05-1.11.15-1.83.21s-1.78.19-2.35.29a41.87,41.87,0,0,1-6.8.58,6.9,6.9,0,0,1,.81-2c4.68-9.3,7.39-14.14,9.62-17.14,2.51-3.38,2.38-3.27,4.77-3.95a23.3,23.3,0,0,0,6.26-2.78,40.36,40.36,0,0,1,6.36-3.19c2-.62-3.69.32-9.09,1.49-.5.11.47-.72,3.77-3.23,4.08-3.11,6-4.66,8.46-6.8,3.41-3,4.21-3.76,8.07-7.69s3.55-3.37,5.27-8.41c.36-1,1-2.85,1.42-4s.93-2.62,1.12-3.19.7-2,1.12-3.2c1-2.88,3.38-9.72,3.57-10.43.09-.31.58-1.88,1.1-3.48s1.13-3.55,1.35-4.32.45-1.56.49-1.73.88-.94,3.64-3c.49-.36,1.17-.9,1.51-1.19s.66-.48.71-.43-4.79,15.23-6.43,19.48c-.14.36-.69,1.8-1.23,3.19-2.17,5.65-5.18,13-5.65,13.89-.1.17-.82,1.74-1.6,3.5-2,4.53-4.06,8.75-7.29,15.14-3.39,6.71-6.34,12.45-6.9,13.45-.69,1.23-2.77,5.27-6.38,12.39-7.63,15.05-10,19.59-13.67,26a202.81,202.81,0,0,1-14.91,22.25c-4,5.11-3.72,5.18.45.13,3.3-4,7.26-9.23,10.24-13.52.74-1.06,4.8-7.2,5.43-8.2,1.82-2.92,8.51-14.14,8.51-14.28s.93-1.65,2.07-3.59,3-5.13,4.11-7.11,2.6-4.52,3.28-5.64,1.25-2.07,1.25-2.1,1.44-2.48,3.2-5.45,3.19-5.42,3.19-5.45.68-1.21,1.51-2.63,1.5-2.6,1.5-2.64.54-1,1.2-2.09c1.37-2.35,4.72-8.48,5.5-10.07a3.71,3.71,0,0,1,.66-1.08c.08,0,.14.31.14.7,0,.93,1.28,15.26,1.62,18.28.15,1.3.44,4.05.66,6.11s.46,4.44.56,5.27c1,8.07,1.26,19.27.67,24.63a33.34,33.34,0,0,1-.5,3.4,2.52,2.52,0,0,0-.14.76,9.17,9.17,0,0,1-.31,1.66c-.32,1.35-.38,1.45-.5.94-.4-1.59-1.12-4-1.38-4.6-.15-.36-.49-1.34-.74-2.16-.53-1.75-3.38-8.69-4.25-10.34-.33-.63-.85-1.77-1.16-2.54s-1.1-2.53-1.76-3.89a26.06,26.06,0,0,1-1.21-2.68.2.2,0,0,0-.2-.2c-.11,0-.17.06-.13.14a32,32,0,0,1,1.33,3.71c.46,1.45.91,2.93,1,3.29s.37,1.38.66,2.26a20,20,0,0,1,.64,2.32,4.38,4.38,0,0,0,.27,1,4.73,4.73,0,0,1,.29,1.07c.07.41.29,1.3.48,2a14.26,14.26,0,0,1,.45,2.12,5.37,5.37,0,0,0,.19,1,89.44,89.44,0,0,1,1.32,9.15c.14,1.58.34,5.19.4,6.87l.05,1.41-1.4,2.79c-.77,1.54-1.61,3.13-1.86,3.52a4.89,4.89,0,0,0-.46.84c0,.27-3.88,6.08-5.52,8.26a94.31,94.31,0,0,1-19,18.51c-7.46,5.53-16.41,10.74-29.59,17.23-3.85,1.9-7,3.46-7.07,3.46s-1.3.59-2.81,1.31c-2.89,1.38-8,3.74-13.47,6.26-15.2,6.95-23.89,10.39-28.89,11.43-.95.2-1.85.41-2,.47a38.61,38.61,0,0,1-5.26.3Z"/><path class="cls-3" d="M1569.81,148.26l-.57-.68a44.58,44.58,0,0,1-2.48-3.9c-.6-1.07-2.84-5.31-2.84-5.39s-.3-.65-.66-1.4c-3.59-7.49-7.4-16.53-11.92-28.33-1.14-3-2.48-6.49-3.81-10-4.23-11.29-5.56-14.72-7.32-18.87a37.74,37.74,0,0,0-3.49-6.3c-.89-1.41-1-1.57-.89-1.83s.19-.64.33-1.08.27-.92.29-1.07a2.11,2.11,0,0,1,.09-.34,7.45,7.45,0,0,0,.18-1,35,35,0,0,0,.29-4.14,11.23,11.23,0,0,1,.38-2.8c0-.05,0-.09,0-.09a20.53,20.53,0,0,0-1.57,3.28c-.61,1.44-1.75,3.82-1.94,4.08s-.18.11-.71-.7c-4.06-6.26-6.24-10.07-7.37-12.9-.69-1.71-.9-2.42-.81-2.68a24.17,24.17,0,0,0,.76-3.21c.07-.5.14-1.79.16-2.87a24.17,24.17,0,0,1,.14-3.22,13,13,0,0,1,.3-2c0-.06,0,0-.1.07a5.52,5.52,0,0,0-.39.9c-.14.39-.43,1.18-.65,1.75s-.56,1.5-.76,2.06c-.38,1.1-.69,1.86-.7,1.68s-.08-.67-.18-1.36c-.22-1.47-.25-1.76-.39-3.13-.11-1.21-.4-3.46-.6-4.79-.25-1.66-1.18-6.15-1.61-7.84-1.25-4.83-1.32-5.06-1.71-5.53-2-2.39-3.86-4.67-4.61-5.56-.5-.59-1.46-1.75-2.14-2.58-2.42-2.94-7-8.26-8.67-10-1.42-1.51-1.36-1.41-1.45-2.58,0-.33-.09-.91-.14-1.27A14.52,14.52,0,0,1,1502,0c.08-.08,0-.15,2,2.13a226.1,226.1,0,0,1,18.72,24.14c1.31,1.94,4.43,6.74,5.1,7.84.77,1.27,1.28,2.08,2.46,3.94.65,1,1.81,2.91,2.58,4.18s1.77,2.91,2.25,3.66,1.19,1.89,1.59,2.54,1.18,1.89,1.74,2.77,1.19,1.87,1.39,2.21l1.76,2.81a189.28,189.28,0,0,1,10.41,18,143.41,143.41,0,0,1,5.76,13.24c.23.6.44,1,.48.91a45.66,45.66,0,0,0-1.87-5.47c-.7-1.88-1.71-4.37-2.52-6.24l-.59-1.36c-2-4.54-4.5-9.49-8.62-16.91L1542.22,54c-.58-1.06-1.41-2.56-1.85-3.33L1539,48.22c-.32-.56-.81-1.45-1.08-2s-.91-1.68-1.41-2.58-1.48-2.7-2.18-4-1.36-2.52-1.48-2.73-.39-.69-.61-1.08l-1-1.83-1.51-2.67c-1.46-2.61-2.88-5-3.92-6.69-.62-1-.74-1.22-.51-1s5.42,2.68,7.77,3.79l1.41.68,1.64.76c1.79.8,2.11.95,4,1.85.85.42,2.35,1.11,3.34,1.55s2.31,1.06,2.95,1.39l3.48,1.74c1.26.63,2.89,1.49,3.61,1.9l1.84,1a60.62,60.62,0,0,1,5.48,3.79c.61.5,1.19,1,1.28,1a4.43,4.43,0,0,1,.62.58l.74.78c.19.21.22.27.09.2a1.56,1.56,0,0,0-.28-.11,3.3,3.3,0,0,1-.47-.11l-.51-.14-1.41-.36a16.28,16.28,0,0,0-1.65-.38,4.65,4.65,0,0,1-.53-.1c-.16-.05-.38-.09-.83-.18l-.75-.14c-.28-.06-.66-.13-.84-.15l-1.65-.24-1.64-.23c-.93-.12-1.89-.23-2.4-.27l-.89-.1-.7-.09-.66-.09c-.16,0-.58-.07-.94-.1a34.73,34.73,0,0,1-3.65-.39c-.16,0-.25,0-.21,0a1,1,0,0,0,.45.17l.45.08.61.15.66.15.66.13c.31.06,1.11.26,1.78.44l1.36.37,1.56.37c.11,0,.47.13.8.23l1.73.53c1.27.37,1.81.55,3,1l1.41.51c2.65.94,9.17,4.15,10.08,5a47.44,47.44,0,0,1,3.84,6.42c4.22,8.43,6.21,16.59,6.79,27.72.07,1.33.07,8,0,9.32,0,.49-.07,1.5-.1,2.25s-.08,1.6-.1,1.88-.11,1.47-.18,2.63c-.18,2.59-.44,5.66-.81,9.44-.1,1-.23,2.34-.28,2.91-.09.91-.18,1.78-.33,3l-.22,2.26c-.4,4.1-1.11,10.08-1.65,13.94-.3,2.12-.55,3.68-.94,5.87a34.79,34.79,0,0,1-2.41,8.11,11.23,11.23,0,0,1-1.4,2.27,2.33,2.33,0,0,1-.39-.4Z"/></g></svg>