<?xml version="1.0" encoding="UTF-8"?><svg id="Layer_1" xmlns="http://www.w3.org/2000/svg" xmlns:xlink="http://www.w3.org/1999/xlink" viewBox="0 0 1920 1624.1"><defs><style>.cls-1{fill:#027a87;}.cls-2{fill:#02707d;}.cls-3{fill:#03b6c9;}.cls-4{fill:#012c30;}.cls-5{fill:#038491;}.cls-6{fill:#0396a6;}.cls-7{fill:#f2883d;}.cls-8{fill:#f25e3d;}.cls-9{fill:#f2733d;}.cls-10{fill:#fff;}.cls-11{fill:#f2ca50;}.cls-12{fill:#f29e3d;}.cls-13{fill:#293241;}.cls-14{fill:url(#Dégradé_sans_nom_47);}.cls-15{fill:url(#Dégradé_sans_nom_48);}.cls-16{fill:url(#Dégradé_sans_nom_57);}.cls-17{fill:url(#Dégradé_sans_nom_55);}.cls-18{fill:url(#Dégradé_sans_nom_56);}</style><linearGradient id="Dégradé_sans_nom_55" x1="837.24" y1="1078.84" x2="837.24" y2="527.32" gradientTransform="matrix(1, 0, 0, 1, 0, 0)" gradientUnits="userSpaceOnUse"><stop offset="0" stop-color="#03b6c9"/><stop offset=".09" stop-color="#04b0c2"/><stop offset=".21" stop-color="#099fb1"/><stop offset=".35" stop-color="#118395"/><stop offset=".51" stop-color="#1c5d6d"/><stop offset=".65" stop-color="#293241"/></linearGradient><linearGradient id="Dégradé_sans_nom_57" x1="690.32" y1="1065.76" x2="690.32" y2="527.32" gradientTransform="matrix(1, 0, 0, 1, 0, 0)" gradientUnits="userSpaceOnUse"><stop offset="0" stop-color="#03b6c9"/><stop offset=".06" stop-color="#07b7ca"/><stop offset=".13" stop-color="#15bbcd"/><stop offset=".21" stop-color="#2dc2d2"/><stop offset=".29" stop-color="#4dcbd9"/><stop offset=".37" stop-color="#77d7e2"/><stop offset=".46" stop-color="#abe6ed"/><stop offset=".55" stop-color="#e6f7f9"/><stop offset=".58" stop-color="#fff"/></linearGradient><linearGradient id="Dégradé_sans_nom_48" x1="963.28" y1="979.45" x2="963.28" y2="796.48" gradientTransform="matrix(1, 0, 0, 1, 0, 0)" gradientUnits="userSpaceOnUse"><stop offset="0" stop-color="#03b6c9" stop-opacity=".6"/><stop offset=".29" stop-color="#48c9d7" stop-opacity=".71"/><stop offset=".96" stop-color="#f3fbfc" stop-opacity=".98"/><stop offset="1" stop-color="#fff"/></linearGradient><linearGradient id="Dégradé_sans_nom_47" x1="1113.42" y1="850.61" x2="1113.42" y2="705.18" gradientTransform="matrix(1, 0, 0, 1, 0, 0)" gradientUnits="userSpaceOnUse"><stop offset="0" stop-color="#03b6c9" stop-opacity=".6"/><stop offset=".13" stop-color="#33c4d3" stop-opacity=".68"/><stop offset=".31" stop-color="#70d5e0" stop-opacity=".77"/><stop offset=".48" stop-color="#a3e4eb" stop-opacity=".85"/><stop offset=".64" stop-color="#cbeff3" stop-opacity=".92"/><stop offset=".78" stop-color="#e7f8f9" stop-opacity=".96"/><stop offset=".91" stop-color="#f8fdfd" stop-opacity=".99"/><stop offset="1" stop-color="#fff"/></linearGradient><linearGradient id="Dégradé_sans_nom_56" x1="1442.83" y1="1078.84" x2="1442.83" y2="527.32" gradientTransform="matrix(1, 0, 0, 1, 0, 0)" gradientUnits="userSpaceOnUse"><stop offset="0" stop-color="#03b6c9"/><stop offset=".05" stop-color="#08b7ca"/><stop offset=".11" stop-color="#19bccd"/><stop offset=".19" stop-color="#35c4d3"/><stop offset=".27" stop-color="#5bcfdc"/><stop offset=".35" stop-color="#8ddee6"/><stop offset=".44" stop-color="#c8eff3"/><stop offset=".51" stop-color="#fff"/></linearGradient></defs><rect class="cls-5" y="979.45" width="1919.86" height="644.65"/><path class="cls-3" d="M1483.36,1463.11c-20.46,57.33-432.11,143.39-641.02,143.38-204.82-.02-443.03,3-600-74.65-204.13-126.33-20.4-383.31-20.4-551.81H1483.36v483.09Z"/><g><rect class="cls-8" y="-100.55" width="1920" height="1080"/><path class="cls-9" d="M71.32,221.12H929.82s-13.22-47.81-49.84-52.89c-36.62-5.09-57.98,23.4-88.49,14.24-30.52-9.15-53.91-35.6-91.55-34.58-37.64,1.02-69.17,34.58-99.68,16.27-30.52-18.31-64.08-103.75-158.68-80.36-94.6,23.4-94.6,89.51-138.34,85.44-43.74-4.07-45.77-18.31-75.27-7.12-29.5,11.19-29.5,23.4-72.22,17.29-42.72-6.1-84.43,41.7-84.43,41.7Z"/><path class="cls-7" d="M71.32,221.12H929.82s-532.18-37.72-858.5,0Z"/><path class="cls-12" d="M682.81,428.82s327.55-161.68,470.7-112.53c86.11,29.57,160.78,108.67,256.49,81.62,82.5-23.32,119.99-108.45,212.99-84.43l-55.57,169.13-136.87,44.72h-205.98l-277.53-71.05s-87.24-4.5-84.53-8.56c2.71-4.07-179.7-18.9-179.7-18.9Z"/><path class="cls-12" d="M747.54,399.43c51.41-21.13-23.2,40.9-148.25,54.14-135.08,14.3-398.7,37.71-474.89,34.35L0,467.25v-176.56c74.68-9.9,201.41-23.17,316.47-7.16,168.62,23.46,270.91,181.72,431.07,115.89Z"/><path class="cls-12" d="M1590.7,309.25s113.9-8.73,180.98-55.81c53.45-37.51,148.31,8.45,148.31,8.45,0,0,.72,160.38-1.99,163.99-2.71,3.61-125.84,50.5-125.84,50.5l-221.19-11.36s29.06-105.89,33.57-114.92-13.84-40.86-13.84-40.86Z"/><path class="cls-9" d="M1920,68.12c-22.58,9.99-41.3,33.1-41.3,33.1-139.13-95.76-211.4-6.32-283.23,26.2-71.82,32.52-121.51,4.52-162.17,3.61-40.65-.9-45.17,32.52-72.27,40.62-27.1,8.09-28.01-14.42-66.85-20.74-38.85-6.32-83.12,42.05-83.12,42.05h708.94V68.12Z"/><path class="cls-1" d="M1761.45,487.57s57.05-40.13,158.55-62.13v101.88h-97l-47.1-21.68-14.45-18.07Z"/><path class="cls-2" d="M0,452.7s45.12,31.26,157.15,29.46c112.03-1.81,323.43-55.11,541.16-53.3,217.73,1.81,526.25,98.47,526.25,98.47H0v-74.63Z"/><path class="cls-2" d="M1430.54,527.32s82.66-79.5,247.99-67.76c165.33,11.74,229.02,67.76,229.02,67.76h-477.01Z"/><path class="cls-13" d="M630.33,396.58c11.95-1.33,16.36,27.72,16.03,43.42-.33,15.7-6.68,32.36-16.03,33.05-9.35,.68-18.37-15.35-16.36-40.73,2-25.38,7.35-34.73,16.36-35.73Z"/><path class="cls-13" d="M561.99,413c10.01-.3,14.03,21.37,7.68,41.75-6.35,20.37-13.36,27.39-20.71,24.38s-11.69-21.71-6.68-36.07c5.01-14.36,8.68-29.72,19.7-30.06Z"/><path class="cls-13" d="M453.48,423.78c16.06-6.51,9.49,46.07,.9,48.33-8.58,2.26-17.62-41.56-.9-48.33Z"/><path class="cls-13" d="M1583.66,444.1c11.74-4.63,6.61,33.62,.34,35.21-6.27,1.59-12.56-30.39-.34-35.21Z"/><path class="cls-4" d="M1712.74,449.24c-11.38-4.56-8.91,25.3-2.77,27.06,6.13,1.76,14.61-22.31,2.77-27.06Z"/><path class="cls-4" d="M1766.21,481.33c-8.55-2.71-3.88,22.37,.66,23.23s8.23-20.41-.66-23.23Z"/><path class="cls-13" d="M1619.59,426.14c18.79-12.48,24.09,56.31,13.73,61.43-10.36,5.12-33.29-48.44-13.73-61.43Z"/><path class="cls-4" d="M374.5,417.16c10.43-2.52,23.75,13.02,23.75,38.07,0,24.38-6.67,33.97-17.98,34.97-11.31,1-19.19-19.76-21.09-36.41-2-17.6,4.26-33.97,15.32-36.64Z"/><rect class="cls-6" y="527.32" width="1920" height="452.12"/><polygon class="cls-17" points="1224.56 527.32 243.94 1069.89 1422.28 1078.84 1430.54 527.32 1224.56 527.32"/><path class="cls-5" d="M1224.45,527.32s-112.4,15.22-299.45,33.12c-220.32,21.09-302.32,6.58-429.06,34.58-138.88,30.68-218.94,116.42-495.94,167.42v217H407.4l817.05-452.12Z"/><path class="cls-3" d="M1224.56,527.32s-220.75,73.39-434.89,131.79c-243.78,66.48-690.31,223.43-754.17,320.33H407.4l817.16-452.12Z"/><polygon class="cls-16" points="1224.56 527.32 156.08 1065.76 251.4 1065.76 1224.56 527.32"/><path class="cls-5" d="M1430.71,527.32s38.23,39.1,199.77,66.21c161.54,27.1,210.45,39.16,289.52,73.92l-.14,186-308.93-82.19s-107.44-65.72-111.6-77.24c-4.16-11.52-24.95-63.01-29.81-69.11-4.85-6.1-33.96-53.53-33.96-53.53l-4.85-44.04Z"/><path class="cls-3" d="M1430.95,527.32s8.93,48.48,152.75,106.12c130.24,52.2,266.94,118,336.17,220l.14,126h-496.23l7.18-452.12Z"/><g><polygon class="cls-15" points="982.19 871.87 877.19 979.45 963 979.45 1049.37 871.87 982.19 871.87"/><polygon class="cls-10" points="1296.49 564.08 1326 527.32 1318.5 527.32 1282.62 564.08 1296.49 564.08"/><polygon class="cls-10" points="1277.32 569.51 1199.18 649.56 1227.86 649.56 1292.13 569.51 1277.32 569.51"/><polygon class="cls-14" points="1072.53 843.02 1216.5 663.71 1185.37 663.71 1010.35 843.02 1072.53 843.02"/></g><polygon class="cls-18" points="1430.95 527.32 1463.38 1078.84 1422.28 1078.84 1430.95 527.32"/><path class="cls-12" d="M896,448.85s148.17,31.76,270.33,78.47h58.23"/><path class="cls-13" d="M925.98,405.4c27.42-14.41,25,80.28,10.13,85.82-14.87,5.54-38.67-70.83-10.13-85.82Z"/><path class="cls-13" d="M987.6,478.71c-8.55-2.71-3.88,22.37,.66,23.23s8.23-20.41-.66-23.23Z"/><path class="cls-13" d="M874.55,424.89c16.68-4.68,4.31,46.84-4.47,48.14-8.78,1.29-12.89-43.26,4.47-48.14Z"/><path class="cls-12" d="M1570.97,465.03s-68.97,18.43-111.47,62.3h-28.86s70.16-79.61,140.33-62.3Z"/><path class="cls-7" d="M1211.06,192.96s530.67-27,708.8-23l.14,23h-708.94Z"/><path class="cls-11" d="M1001.6,474.91s106.73-106.46,232.73-66.51c73.49,23.3,196.21,118.93,196.21,118.93h-264.21l-64.6-22.74-26.52-8.41-73.61-21.27Z"/></g><path class="cls-3" d="M244.24,1532.78s-90.49-40.87-174.71-215.23c-108.35-224.32-40.35-335.88-34.03-339.16H318.66c-69.67,31.21-80.93,101.7-88.13,188.96-7.2,87.31-19.48,202.17,13.7,365.43Z"/><path class="cls-3" d="M1430.54,1499.35s109.06-47.92,193.17-134.78c95.3-98.42,266.94-131.94,336.17-245.98l.14-140.88h-496.23l-33.24,521.64Z"/><g><path class="cls-13" d="M1394.95,281.46s-3.27-.56-10.49-1.67c-5.85-.9-17.83-4.8-22.15-6.24-.91-.3-1.78-.68-2.63-1.13-2.75-1.48-7.24-3.24-7.24-3.24,.22,.03,.44-.12,.52-.33s.04-.44-.06-.64c-.1-.2-.23-.4-.38-.57,.37,.03,.72-.29,.73-.66,0-.27-.14-.6-.29-.82,.25,.04,.52-.11,.62-.35,.1-.24-.02-.6-.23-.75,.17-.01,.3-.19,.31-.36,0-.17-.07-.34-.14-.49-.16-.33-.37-.73-.55-1.04,.13,.06,.29-.05,.34-.18,.05-.13,.02-.28-.03-.42-.12-.36-.32-.72-.62-.97,.17,.02,.32-.13,.35-.3,.02-.17-.06-.33-.18-.45-.12-.12-.28-.19-.43-.26s-.31-.1-.44-.21c2.22-1.61,6.01-4.41,6.38-5.53,.02-.06,0-.13-.06-.15-.32-.16-.74-.27-1.08-.25,.76-.1,1.57-.55,2.07-1.17,.11-.13,.05-.34-.11-.4-.36-.12-.76-.16-1.12-.13,.55-.21,1.14-.58,1.53-1.05,.11-.13,.05-.33-.1-.39-.18-.08-.36-.15-.56-.23,.77-.38,1.52-.9,2.09-1.54,.13-.15,.05-.38-.14-.42-.58-.11-1.18-.15-1.76-.05,.69-.42,1.41-.93,2.01-1.5,.15-.14,.07-.4-.13-.43-.39-.06-.8-.07-1.19,0,.39-.21,.74-.49,1.05-.81,.1-.11,.26-.26,.39-.41,.14-.17,.02-.42-.2-.42-.55,.02-1.13,.05-1.64,.19,.46-.12,.85-.44,1.24-.72,1.13-.84,1.94-1.78,2.35-2.31,.14-.18-.01-.43-.24-.41-1.18,.15-2.44,.93-2.44,.93,.21-.28,.34-.5,.43-.67,.1-.19-.07-.4-.27-.36-2.45,.43-4.51,1.81-4.51,1.81,0,0,.28-.26,.09-.84-.19-.59-.51-.31-.51-.31,.33-.44,.5-.75,.59-.96,.07-.17-.06-.35-.24-.35-.44,.01-.85,.12-.85,.12,.64-.66,1.05-1.4,1.24-1.81,.08-.16-.04-.35-.22-.36-.45-.02-.75,.1-.75,.1,.53-.55,.8-1.08,.94-1.44,.08-.2-.12-.39-.32-.33-.87,.29-1.33,.65-1.33,.65,.72-.92,1.07-1.77,1.23-2.24,.06-.19-.11-.38-.31-.32-.89,.25-1.56,1-1.56,1,1.24-1.43,1.5-2.43,1.56-2.81,.01-.08-.07-.14-.14-.11-1.48,.58-2.84,1.78-3.54,2.46,1.2-1.27,1.57-1.88,1.68-2.16,.03-.08-.05-.17-.13-.14-6.42,2.18-14.97,14.26-16.09,16.47-1.13,2.23-.36,5.07,.41,9.38,.77,4.31-.32,5.41-.32,5.41,0,0-.72,.32-2.4,.23-1.17-.06-2.49-.39-3.34-.9-.68-.41-1.35-.85-2.08-1.15-1.18-.49-2.52-.38-3.76-.02-.46,.13-.94,.2-1.43,.25-.69,.06-1.5,.22-1.98,.76-.34,.37-.48,.91-.38,1.41,0,0-3.3,4.14,.77,6.74-.56-.86-.54-1.45-.5-1.76,.32,.24,.66,.48,1.06,.47,.29-.01,.55-.16,.8-.31,.33-.19,.63-.32,.95-.51,.08-.05,.8,.39,.92,.44,.32,.14,.63,.24,.98,.26,.71,.05,1.43,.03,2.15,.07,.67,.04,1.22,.3,1.82,.56,1.87,.83,2.94,2.94,4.43,4.26,1.99,1.77,5.13,1.95,7.62,2.38,1.42,.24,2.72,.37,4.16,.26,.44-.03,4.98-.76,4.97-.76l.2,.56c.08,.23,.17,.47,.32,.67,.15,.2,.37,.36,.61,.38,.47,.04,.91,.29,1.35,.11,.22,.18,.45,.25,.73,.24,.29,0,.57-.1,.83-.21,.14-.06,.28-.14,.42-.22,.31-.19,.26-.44,.46-.66,.16-.18,.29-.38,.35-.6,.13-.04,.26-.09,.39-.14,.28-.13,.63-.27,.64-.62,0-.13-.03-.26-.03-.4,0-.17,.03-.33,.06-.49,3.33-.43,6.07,.32,11.61,1.22,6.52,1.06,7.67,1.6,12.45,2.44,5.14,.9,10.44,1.48,11.61,1.61,.19,.02,.38,0,.56-.05,.49-.15,.28-.37,.28-.37Zm-38.03-2.97c-.12,.07-.19,.12-.31,.05-.12-.06-.25-.12-.39-.11-.06,0-.11,.02-.16,.05-.16,.07-.3,.21-.37,.37-.24-.03-.53-.06-.77-.09-.14-.02-.32-.05-.46-.01-.1,.03-.19,.1-.29,0-.06-.06-.09-.14-.12-.22-.08-.19-.22-.35-.39-.46-.09-.06-.19-.1-.29-.15-.12-.05-.2-.08-.26-.16,.36-.08,.72-.16,1.07-.24,.02,.03,.03,.05,.05,.08,.15,.2,.37,.36,.61,.38,.47,.04,.91,.29,1.35,.11,.22,.18,.45,.25,.73,.24,.08,0,.15-.01,.23-.02-.07,.07-.15,.13-.24,.17Zm.97-1.73c-.13,.04-.28,.02-.41,.08-.09,.04-.16,.12-.24,.19-.21,.2-.44,.14-.7,.11-.14-.02-.32-.05-.46-.01-.1,.03-.18,.09-.28,0,.26-.06,.52-.13,.77-.19,.51-.12,1-.22,1.48-.29-.05,.04-.11,.08-.17,.1Z"/><path class="cls-13" d="M1547.02,294.75c-.85,.33-1.73,.51-2.62,.7,.24-.05,.43-.26,.47-.5,.01-.07-.05-.12-.12-.11-3.01,.71-5.16,.71-5.75,.72-1.19,.02-2.38-.02-3.57-.06-3.32-.13-6.63-.54-9.88-1.24-3.24-.7-6.42-1.7-9.46-3.02-3.64-1.58-7.15-3.46-10.89-4.78-2.92-1.03-6.02-1.72-9.13-1.6-.72,.03-1.47,.23-2.18,.19-.54-.03-1.07-.16-1.62-.19-1.01-.05-2.02-.14-3.02-.33-1.01-.19-1.65-.41-2.51-.94-.61-.37-1.27-.7-1.97-.86-.88-.2-2.01-.09-2.87,.16-.51,.15-.93,.46-1.42,.63-.36,.13-.71,.34-.94,.65s-.33,.73-.2,1.1c.04,.12,.04,.24,.07,.37,0,0-1.54,2.73,1.32,4.95,0,0-.42-.6-.22-1.12,0,0,1.01,.34,1.69-.58,.39,.28,.81,.46,1.29,.53,.48,.07,.96,.08,1.43,.16,.47,.08,.95,.23,1.32,.53,.89,.73,1.79,1.42,2.72,2.05-.82,1.23-1.76,2.38-2.7,3.52-.73,.89-1.34,1.8-1.43,2.95-.09,1.15,.16,2.29,.42,3.41,.68,2.99,1.36,5.98,2.48,8.83,.69,1.75,1.54,3.44,2.63,4.97,.37,.53,.78,1.04,1.21,1.53,.21,.24,.43,.47,.66,.7,.12,.12,.25,.24,.42,.29,.25,.06,.3-.06,.32-.28,.02-.17,.03-.34,.05-.51,.29,.7,.94,1.24,1.67,1.46,.12,.04,.25,.06,.35-.01,.11-.08,.11-.24,.1-.37-.04-.71-.15-1.41-.32-2.1,.05,.19,.26,.33,.46,.37,.2,.04,.41-.04,.54-.2,.12-.16,.15-.36,.16-.56,.03-.66-.1-1.33-.38-1.93,.08,.17,.33,.3,.5,.34,.25,.06,.35-.12,.36-.34,.02-.75-.12-1.5-.41-2.19,.14,.14,.39,.16,.58,.13,.2-.03,.38-.16,.47-.33,.1-.19,.1-.42,.07-.64-.05-.43-.18-.85-.38-1.23,1.17,1.71,2.75,3.31,4.51,4.4,.31,.19,1.93,1.19,2.17,.86,.07-.1,.08-.23,.08-.36-.01-.45-.11-.89-.28-1.31,.04,.11,.32,.24,.42,.3,.16,.1,.33,.2,.5,.28,.19,.09,.42,.23,.64,.22,.37,0,.25-.48,.23-.72-.08-.81-.31-1.6-.7-2.31,.14,.03,.26,.09,.4,.09,.14,0,.29-.05,.38-.15,.18-.18,.16-.47,.1-.72-.15-.58-.46-1.12-.9-1.53,.16,.05,.26,.13,.43,.13,.17,0,.34-.09,.4-.24,.09-.2-.05-.43-.17-.61-.23-.33-.46-.66-.69-.98,.25-.05,.47-.25,.5-.51,.03-.19-.04-.39-.13-.57-.18-.35-.45-.64-.77-.85,.13-.01,.26-.06,.32-.18,.07-.12,.09-.25,.09-.38,.02-.65-.37-1.21-.92-1.52,.22-.15,.14-.59,.06-.8-.19-.45-.66-.71-1.1-.93,.15-.27,.27-.69,.21-.99-.04-.23-.2-.41-.39-.54-.19-.13-.41-.21-.63-.28,.43-.11,.74-.48,.74-.92,0-.44-.33-.86-.76-.97,.45,.11,1.03-.64,.86-1.03-.08-.18-.24-.3-.4-.41,.16-.11,.27-.26,.34-.44,2.02,.37,4.04,.82,6.05,.68,.27-.02,.55-.04,.83-.07,0,.14,0,.29-.03,.43-.02,.14,.05,.24,.15,.33,.1,.09,.23,.14,.36,.19,.28,.1,.58,.12,.86,.2,.27,.08,.43,.26,.74,.27,.27,0,.53-.07,.8-.14,.22-.06,.43-.13,.65-.16,.2-.03,.38-.08,.54-.22,.15-.12,.25-.31,.21-.5-.02-.07-.01-.14,.04-.2,.19-.24,.3-.54,.31-.84,0,.22-.22,.43-.39,.55-.06,.05-.2,.16-.28,.1-.16-.11-.01-.27,.07-.34,.11-.09,.21-.18,.27-.31,1.8-.3,3.49-.58,4.91-.61,2.75-.06,11.39,.99,16.83,1.52s9.73-.54,9.73-.54c.69-.19,1.32-.55,1.84-1.05,.14-.14,.29-.31,.29-.51,0-.04-.04-.07-.08-.05Zm-33.89,1.39c-.13,.08-.26,.08-.4,.1-.13,.02-.27,.03-.39,.08-.15,.06-.31,.18-.48,.15-.14-.03-.29-.07-.42-.14h0c.64-.1,1.27-.2,1.88-.3-.06,.04-.13,.08-.19,.12Z"/><path class="cls-13" d="M1311.07,298.5c-.06-.11-.21-.11-.33-.12-.43-.03-.79-.31-1.13-.57-1.65-1.29-3.68-2.1-5.56-3.04-1.79-.9-3.57-1.8-5.36-2.7-.04-.02-.01-.07,.03-.06,3.09,.97,6.35,1.42,9.59,1.35,.17,0,.35-.01,.5-.1,.1-.06,.18-.17,.19-.28,.01-.08-.06-.15-.14-.16-5.16-.5-8.67-1.8-10.45-2.62-1.02-.47-2.08-.82-3.18-1.02-9.15-1.71-13.44-4.14-13.51-4.18-2.32-1.89-4.78-3.6-7.35-5.14l.22,.04c.28,.05,.57,.11,.86,.1s.64-.2,.86-.39c.2,.04,.44,.06,.57-.09,.28-.34-.18-.88-.35-1.14,.07,.11,.51-.31,.54-.37,.13-.24,.06-.48-.06-.71-.09-.18-.21-.35-.25-.55-.11-.49,.44-.66,.38-1.17-.03-.3-.11-.62-.23-.9,.08,.12,.26,.15,.39,.09,.13-.06,.22-.2,.25-.34,.03-.14,0-.29-.04-.43-.07-.21-.18-.42-.33-.58,.5,.18,.74-.18,.75-.62,.01-.37-.07-.83-.33-1.08,.19,.05,.39-.13,.41-.33,.03-.2-.06-.39-.16-.56-.21-.38-.46-.76-.77-1.06,.21,.11,.45,.17,.69,.16,.09,0,.18-.02,.25-.08,.07-.06,.08-.18,.02-.23,.21,.19,.55,.23,.8,.09,.25-.14,.39-.4,.35-.69,.27,.11,.57,.19,.86,.16s.58-.19,.73-.45c.14-.26,.05-.58-.18-.77,.44-.07,.9-.25,1.1-.65,.17-.34,.13-.83-.15-1.09,.26-.03,.53-.06,.77-.17,.24-.11,.45-.31,.51-.57,.05-.24-.04-.48-.14-.71-.1-.22-.32-.44-.45-.64,.31-.03,.62-.06,.89-.22,.32-.19,.52-.55,.52-.91,0-.37-.26-.7-.58-.88,.35-.19,.68-.41,.99-.67,.16-.13,.31-.28,.37-.48,.06-.23-.03-.49-.19-.67-.16-.18-.39-.28-.59-.4,.57-.3,1.1-.67,1.6-1.08,.18-.15,.36-.31,.5-.5,.13-.17,.24-.41,.26-.63,.02-.22-.23-.25-.41-.26-.22,0-.44,0-.66,.03-.14,.02-.39-.02-.51,.05,.43-.24,.85-.48,1.28-.72,.3-.17,.6-.34,.82-.59,.18-.2,.45-.69,.2-.9-.17-.15-.72-.04-.92,0-.64,.11-1.26,.39-1.81,.73,.36-.34,1.2-1.57,.26-1.67-.48-.05-1.07,.14-1.52,.31-.74,.27-1.43,.65-2.14,.99-1.29,.62-2.56,1.28-3.82,1.97-2.16,1.18-4.31,2.4-6.4,3.71,.28-.22,.57-.48,.61-.84,.03-.25-.09-.51-.3-.65-.21-.14-.53-.19-.75-.07,.56-.34,1-.88,1.21-1.5,.05-.14,.08-.31,0-.44-.11-.2-.4-.2-.62-.14-.22,.05-.46,.15-.65,.02,1.1-.88,2.14-1.84,3.09-2.88,.27-.29,.55-.7,.38-1.06-.11-.23-.38-.35-.64-.35-.26,0-.5,.01-.73,.11,.9-.58,1.71-1.32,2.36-2.18,.14-.19,.29-.45,.16-.65-.14-.24-1-.16-1.2-.11,.14-.14,.96-.57,1.15-.73,.21-.18,.75-.72,.57-1.03-.15-.25-.62-.22-.87-.21-.39,.01-.77,.11-1.12,.29,.3-.14,1.29-.98,1.51-1.18,.48-.42,.91-.89,1.2-1.47,.09-.18,.16-.43,0-.56-.15-.13-.37-.03-.54,.06l-1.25,.72c-.32,.18-.75,.33-1.02,.57,.55-.48,1.09-.97,1.64-1.45,.1-.09,.22-.21,.18-.35-.02-.1-.12-.16-.22-.17-.1-.01-.2,.02-.29,.04-.41,.12-.76,.27-1.15,.42-3.12,1.23-8.83,7.07-10.21,9.13-.35,.52-.78,.96-1.26,1.36-1.83,1.5-3.4,3.87-4.19,5.18-.57,.95-.86,2.04-.8,3.15,.06,1.17,.33,2.36,.51,3.01,.08,.3,.12,.61,.1,.93-.06,1.09,.31,2.28,.43,4.09,.03,.51,0,1.11-.06,1.73-1.31,.05-2.62,.28-3.92,.07-.84-.14-1.67-.35-2.48-.63-.51-.18-1.04-.37-1.49-.66-.44-.28-.88-.52-1.38-.67-.96-.29-2.02-.3-2.97,.02-.6,.2-1.14,.52-1.67,.85-.23,.14-.48,.25-.73,.34-.2,.07-.37,.19-.51,.35-.28,.32-.41,.78-.33,1.2,.01,.07-.24,.37-.28,.43-.21,.36-.39,.74-.53,1.14-.38,1.08-.46,2.29,.06,3.34,.13,.27,.3,.52,.49,.74,.12,.14,.23,.28,.38,.4,.08,.06,.4,.27,.48,.12,.03-.06-.01-.1-.04-.14-.03-.06-.06-.12-.08-.18-.05-.12-.08-.25-.1-.39-.04-.26-.02-.54,.05-.8,.01-.04,.02-.08,.03-.11-.06,.18,.54,.35,.63,.37,.31,.08,.63,.09,.94,.01,.22-.06,.44-.15,.63-.29,.1-.07,.19-.15,.28-.24,.05-.05,.17-.26,.23-.28,.15-.04,.7,.46,.85,.54,.43,.23,.84,.25,1.33,.31,.49,.05,.99,.11,1.45,.31,.44,.19,.72,.56,1.14,.8,.64,.37,1.32,.7,1.93,1.13,1.46,1.05,2.91,2.13,4.38,3.17,1.62,1.14,3.25,2.28,5.09,3,1.11,.43,2.56,.98,3.78,.89,.82-.06,1.61-.09,2.39-.07,.31,.42,.61,.85,1.08,1.02,.95,.35,.79,1.73,1,2.72,.13,.61,.19,1.26,.5,1.81,.13,.24,.31,.41,.42,.66,.16,.37,.27,.77,.41,1.15,.1,.28,.2,.57,.4,.8,.19,.23,.49,.39,.79,.34,.42,.32,1.05,.44,1.48,.13,.32-.02,.65-.08,.92-.26,.16-.11,.29-.26,.35-.44-.37,.14-.66,.16-.89,.06,0,0,.39-.08,.51-.6,0,0-.41,.45-1.03,.1-.1-.23-.25-.41-.47-.53s-.47-.17-.72-.14c-.07,0-.11-.06-.15-.12-.04-.07-.05-.14-.07-.21-.05-.21-.17-.32-.29-.48-.12-.18,.08-.17,.04-.35-.02-.09-.08-.17-.14-.25-.15-.19-.36-.4-.46-.62-.08-.19,.03-.39-.03-.58-.05-.15-.14-.29-.22-.43-.32-.54-.47-1.02-.42-1.64,.05-.61,.08-1.23,0-1.83,.78,.14,1.58,.27,2.37,.33,.17,.25,.35,.52,.41,.82,.02,.12,0,.22,0,.34,.02,.18,.1,.37,.14,.55,.12,.5,.2,1.02,.24,1.54,.02,.22,.05,.45,.04,.67,0,.26-.11,.48-.08,.75,.02,.19,.08,.38,.19,.54,.22,.32,.57,.4,.91,.53,.18,.07,.18,.17,.28,.33,.11,.16,.25,.3,.41,.41,.24,.16,.54,.24,.83,.22,.08,.07,.13,.11,.24,.12,.22,.01,.42-.12,.6-.25,.1,.1,.17,.14,.31,.09,.32-.13,.28-.44,.35-.71,.09-.34,.22-.6,.04-.95,0,.15-.01,.31-.07,.44-.06,.14-.2,.25-.35,.25-.09,0-.16-.04-.25-.07,.12-.26,.12-.56-.03-.8,0,.32-.19,.63-.47,.78-.02,0-.08-.02-.1-.02,.04-.11-.02-.24-.12-.32-.1-.07-.22-.1-.33-.14-.23-.08-.45-.19-.65-.34-.25-.19-.32-.31-.38-.62,.06,.06,.17,.04,.23-.02,.06-.06,.07-.16,.06-.24s-.06-.16-.1-.24c-.08-.15-.16-.3-.24-.44-.19-.35-.28-.71-.29-1.1,0-.19,.03-.38,.05-.56,.04-.41,.03-.82,.03-1.23v-.33s.11-.01,.16-.02c.16-.02,.41-.12,.58-.07,.32,.09,.66,.65,.88,.89l.97,1.06c.65,.71,1.29,1.41,1.94,2.12,.28,.31,.57,.62,.85,.93,1.17,1.28,2.57,2.06,4.04,2.97,.73,.46,1.49,.92,2.34,1.07,.02,0,.04-.01,.04-.03,.01-.23-.1-.46-.25-.64-.16-.19-.37-.33-.57-.47-.76-.55-1.47-1.19-2.08-1.91-.03-.03,.02-.07,.05-.05,1.39,1.16,3.13,1.84,4.83,2.49,.11,.04,.22,.08,.34,.08,.12,0,.24-.08,.27-.19,.05-.24-.56-.45-.71-.54-.32-.2-.63-.41-.94-.64-.24-.18-.47-.33-.65-.57-.18-.24-.39-.45-.62-.63-.3-.23-.66-.35-.97-.56-.46-.32-.89-.68-1.33-1.04,.28,.17,.58,.32,.87,.47,2.63,1.31,5.18,2.89,7.97,3.83,.17,.06,.35,.11,.52,.07,.17-.05,.31-.24,.23-.4-.03-.06-.09-.11-.15-.15l-.6-.44c-.28-.21-.55-.48-.83-.7-.03-.02,0-.07,.03-.06,1.89,.33,3.61,1.2,4.99,2.53,.16,.16,.42-.05,.29-.24h0c-1.44-2.17-3.58-3.98-6.04-4.8,1.98,.62,3.87,1.54,5.57,2.72,1.08,.75,2.13,1.55,3.29,2.17,.11,.06,.22,.11,.34,.11,.32,0,.21-.29,.13-.48-.1-.24-.24-.46-.42-.65-1.41-1.55-3.12-2.92-4.89-4.06,1.36,.38,2.43,1.42,3.54,2.3,.62,.49,1.31,.91,1.98,1.32,.42,.26,.85,.51,1.3,.72,.15,.07,.65,.36,.83,.23,.27-.19-.52-.82-.67-.95-.87-.73-1.69-1.56-2.55-2.31,.6,.47,1.31,.77,2.02,1.07,.98,.42,1.88,.97,2.85,1.43,1.07,.51,2.14,1.01,3.21,1.5,.47,.21,1,.54,1.53,.58,.07,0,.21,.02,.26-.06,.07-.12-.43-.45-.52-.53-.41-.35-.81-.71-1.22-1.06-.03-.03,0-.07,.03-.06l.97,.41c.6,.25,1.27,.51,1.87,.27,.15-.06,.3-.21,.23-.35Z"/><path class="cls-13" d="M1385.67,349.94c-.22-.02-.4-.03-.4-.03-10.59-.96-21.03-3.98-26.68-5.83-2.28-.75-4.45-1.81-6.42-3.18-1.63-1.13-3.41-2.04-5.27-2.71-.59-1.05-1.31-2.01-2.16-2.86-.59-.59-1.24-1.13-1.91-1.63-.61-.46-1.32-.85-1.87-1.39-.45-.44-.97-.77-1.42-1.2-.52-.5-.9-1.12-1.42-1.61-.5-.47-1.06-.97-1.75-.99-.41,0-.81,.17-1.14,.42-.33,.25-.6,.57-.87,.88-.24,.28-.48,.57-.72,.85-.92-.63-1.75-1.44-2.95-1.34-.93,.08-1.78,.56-2.49,1.16s-1.33,1.3-2.01,1.93c-.26,.24-.53,.43-.8,.6-1.42-.08-2.59-.56-3.93-1.1-.44-.18-.88-.34-1.34-.43-.45-.09-.89-.08-1.33,.01-.46,.1-.88,.36-1.33,.45-.42,.08-.82,.35-1.09,.67-.1,.12-.19,.25-.22,.4-.02,.11-.01,.23,.04,.33,.06,.13,.06,.24-.02,.35-.73,.18-3.47,3.18,.13,5.87,0,0-.61-.92-.24-1.63-.06,.12,.62,.51,.69,.54,.25,.1,.52,.12,.79,.05,.16-.05,.29-.17,.44-.22,.17-.06,.23-.04,.35,.05-1.48,1.89-5.11,6.72-7.22,11.17-.02,.05-.01,.1,.02,.14,.06,.06,.14,.09,.23,.08,.13-.01,.24-.08,.35-.14,.56-.35,.95-.84,1.35-1.36,.39-.51,.82-.95,1.2-1.48,.93-1.31,1.86-2.62,2.8-3.93,0,0-4.23,6.47-4.72,8.76-.02,.11,.1,.19,.19,.13,.49-.32,1.88-1.6,5.22-6.66-.81,1.24-3.64,5.71-3.66,7.49,0,.1,.11,.16,.19,.11,.41-.25,1.65-1.48,5.03-7.19,0,0-3.01,5.34-2.93,7.25,0,.11,.14,.16,.21,.08,.48-.48,1.91-2.11,3.97-6.23-.61,1.58-1.11,3.27-1.27,4.95-.04,.37-.04,.73-.03,1.1,.05,1,.98-.54,1.09-.79,.48-1.06,.56-2.31,1.34-3.22-.15,.77-.3,1.54-.4,2.32-.03,.19-.03,.38,0,.58,.04,.32,.14,.62,.48,.65,.03,0,.31-1.21,.35-1.32,.17-.45,.42-.87,.6-1.32,.36-.92,.63-1.87,.79-2.84,0,0-.62,3.88-.18,5.57,.03,.12,.19,.16,.28,.06,.26-.31,.77-1.33,1.62-4.58,.07-.28,.15-.58,.23-.89,0,0-.24,3.2,.3,4.91,.04,.14,.23,.15,.29,.03,.31-.62,.98-2.39,1.49-6.92,0,0-.11,4.3,.7,5.17,.07,.08,.2,.05,.24-.05,.18-.41,.61-1.63,.73-4.15,0,0-.04,2.29,.75,2.94,.06,.05,.15,.05,.2,0,.19-.2,.57-.88,.39-3.06,.02,.22,.17,.48,.27,.68,.11,.21,.24,.42,.39,.61,.18,.23,.42,.7,.74,.35,.2-.22,.3-.71,.34-1,.1,.27,.2,.55,.44,.72,.15,.11,.35,.15,.52,.08,.32-.13,.15-.48,.44-.62,.09-.04,.2-.05,.31-.06,.03,0,.06,0,.09-.01,1.2,.68,2.66,.87,4.03,1.04,1.93,.24,3.88,.25,5.81,.01,.07,.05,.14,.12,.21,.17,.2,.15,.5,.36,.63,.58,.06,.1,.05,.23,.11,.34,.07,.12,.18,.23,.3,.29,.23,.12,.51,.14,.77,.13,.32-.01,.64-.13,.95-.13,.37,0,.7,.01,1.06-.1,.22-.07,.44-.18,.61-.34,.13-.12,.22-.27,.34-.4,.08-.09,.17-.18,.25-.27,.05-.06,.11-.12,.15-.19,.1-.18,.04-.44-.13-.56,.03-.12,.03-.23,0-.35,.28,0,.56,0,.85,.03,4.94,.45,9.71,.5,14.62,1.25,4.67,.71,17.02,2.34,18.84,2.39,1.68,.05,1.69,.07,2.22-.29,.05-.03,.03-.11-.03-.11Zm-37.6-3.07c-.13,0-.34,0-.42,.1-.04,.05-.05,.13-.04,.19-.04,.08-.14,.09-.23,.09-.09,0-.18-.03-.26-.06-.08-.04-.16-.08-.25-.1-.12-.03-.25-.02-.36,.03-.01-.03-.03-.06-.05-.09,.55-.11,1.1-.22,1.66-.29-.01,.06-.03,.12-.05,.12Zm.74-.12c-.09,.09-.28,.08-.4,.09,0-.04,0-.08-.01-.12,.15-.01,.3-.03,.46-.03-.01,.03-.03,.05-.05,.07Z"/><path class="cls-13" d="M1456.66,335.18c-.39-.09-.78-.19-1.16-.29-.78-.21-1.55-.43-2.31-.68-.77-.25-1.53-.51-2.29-.79-.76-.28-1.52-.57-2.27-.87-.75-.3-1.5-.62-2.24-.94-.74-.32-1.48-.65-2.22-.98-.73-.33-1.46-.66-2.19-.99-.5-.23-.99-.45-1.49-.68-3.14-1.43-6.25-2.92-9.34-4.46-1.48-.74-2.94-1.44-4.32-2.34-1.79-1.16-3.65-2.22-5.57-3.15-.08-.04-.17-.08-.25-.12,.07,.01,.15,.02,.23,.03,.18-.07,.32-.24,.36-.42,.1-.44-.28-.79-.57-1.05,.17,.01,.36,.02,.51-.07,.27-.15,.2-.59,.16-.84,.08,.15,.28,.21,.44,.17,.17-.04,.3-.17,.37-.33,.08-.15,.1-.33,.11-.5,.01-.25,.02-.53-.03-.77,.3,.07,.64,.09,.89-.09,.2-.15,.3-.4,.31-.65,.01-.25,.01-.53-.05-.77,.26,0,.51,.06,.76,.02,.21-.03,.41-.12,.55-.27,.33-.37,.08-1.07-.01-1.5,.2,.05,.41,.1,.62,.09,.21,0,.42-.07,.56-.23,.33-.36,.02-.92-.15-1.29,.33-.06,.66,0,.99,0,.33,0,.69-.06,.91-.31,.17-.19,.23-.46,.15-.7-.07-.24-.24-.42-.48-.48,.4,.06,.81,.01,1.19-.13,.45-.17,.75-.6,.2-.85-.46-.21-.95-.49-1.41-.7,.89,.1,1.79,.05,2.66-.15,.18-.04,.36-.09,.5-.2,.14-.11,.24-.3,.18-.48-.05-.17-.22-.27-.37-.36-.38-.22-.69-.47-1.08-.69,.69,.05,1.4-.07,2.03-.36,.21-.09,.43-.26,.41-.49-.02-.21-.26-.33-.46-.41-.25-.09-.47-.18-.72-.27,.68-.09,1.34-.3,1.95-.62,.12-.06,.23-.13,.31-.24,.07-.11,.09-.27,.01-.37-.08-.1-.24-.12-.37-.12-.67-.02-1.32-.02-1.99-.04,.71-.11,1.37-.43,1.91-.9,.26-.23,.48-.5,.68-.79,.16-.24,.3-.63-.18-.49-.76,.23-1.48,.35-2.24,.58,1.25-.5,2.38-1.3,3.27-2.32,.09-.1,.18-.24,.14-.37-.04-.09-.14-.15-.24-.15-.1,0-.2,.02-.29,.06l-1.01,.33c-.14,.05-.28,.09-.43,.11-.11,.02-.23,.02-.32,.09,.4-.27,.74-.62,1.03-1.01,.15-.21,.4-.54,.29-.78-1.04,.2-2.15,.5-3.12,.92,.27-.17,.51-.38,.7-.63,.1-.13,.18-.27,.2-.43,.02-.16,.02-.33-.13-.39-1.2,1.11-2.47,2.13-3.8,3.07-.54,.38-1.1,.75-1.71,1.02-.25,.11-.62,.31-.91,.31-.24,0-.31-.19-.57-.24-.15-.03-.35-.03-.46-.14,.31-.31,.63-.61,.88-.97,.22-.32,.67-1.03,.36-1.41-.17-.2-.54-.24-.8-.27,.97-.57,1.79-1.4,2.35-2.37,.07-.12,.14-.25,.13-.39,0-.15-.11-.29-.25-.34-.12-.04-.28-.06-.38,0,.56-.41,1.06-.9,1.47-1.46,.1-.14,.2-.32,.13-.48-.05-.1-.16-.17-.27-.18-.11-.02-.23,0-.34,.03-.3,.06-.63,.12-.93,.17,.04-.02,.07-.03,.11-.05,.6-.28,1.09-.78,1.43-1.34,.2-.32,0-.43-.32-.48-.64-.09-1.38,.01-2.01,.16-.44,.1-.88,.23-1.32,.32,.42-.09,1.26-.88,.78-1.31-.2-.18-.5-.15-.77-.11-5.19,.76-10.19,4.03-13.96,7.58-.62,.58-1.04,1.34-1.22,2.16-.24,1.1-.57,2.19-.75,3.3-.3,1.97-.37,4.33-1.28,6.14-.75,1.5-1.43,2.85-1.78,4.43-.74-.13-1.46-.41-2.2-.62-1.7-.47-3.36-1.08-4.9-1.93-.86-.47-1.84-.72-2.81-.7-1.03,.02-2.06,.32-2.93,.88-.32,.2-.66,.36-1.01,.5-.59,.24-1.01,.82-.71,1.45,.14,.29,.37,.53,.23,.87,0,0-1.29,1.4-.87,3.18,.39,1.64,1.24,2.24,2.18,2.57,0,0-.51-.87-.19-1.62,.82,.69,1.71,.62,2.47,.24,.74,.5,1.89,.13,2.53,.75,.99,.98,2.21,1.72,3.53,2.17,.59,.2,1.15,.47,1.67,.82,.79,.54,1.49,1.03,2.05,1.8,0,0,3.46,4.62,10.22,5.28,.9,.09,1.77,.14,2.6,.17,.66,.28,1.35,.49,2.06,.62,.96,.17,1.98,.21,2.82,.7,.59,.35,1.09,.56,1.72,.84,.12,.05,.26,.28,.37,.37,.15,.13,.3,.24,.47,.35,.33,.2,.67,.33,1.04,.44,.34,.11,.62,.28,1,.29,.23,0,.47-.03,.69-.11,.11-.04,.2-.09,.31-.09,.13,0,.23,.05,.36,.01,.17-.05,.31-.17,.42-.32,.04-.06,.08-.16,.13-.2,.06-.05,.17-.07,.24-.11,.17-.09,.31-.22,.43-.38,.16-.22,.25-.5,.25-.77-.1,.3-.44,.57-.76,.58,.01,0,.05-.15,.05-.17,.01-.07,.02-.15,.02-.23,0-.15-.02-.29-.07-.43l-.05,.24s-.02,.08-.04,.11c-.02,.03-.06,.06-.1,.06-.07,0-.07-.08-.08-.13-.01-.06-.05-.1-.1-.14,.11-.05,.19-.14,.21-.26,.06-.3,.04-.61-.06-.9-.01,.2-.05,.42-.17,.58-.12,.17-.33,.28-.53,.22-.13-.04-.23-.09-.37-.05-.13,.04-.25,.14-.3,.27-.27-.05-.57-.1-.84-.15-.11-.02-.23-.04-.35-.01-.07,.02-.13,.06-.18,.11-.04,.04-.07,.07-.13,.08-.11,0-.21-.05-.32-.08-.09-.03-.17-.05-.26-.05-.11,0-.21,.04-.31,.05-.22,.02-.24-.1-.31-.26-.07-.16-.17-.31-.28-.45-.23-.28-.51-.5-.79-.73-.08-.06-.15-.12-.23-.19,2.64-.29,4.95-.73,7.18-.96,4.34-.44,10.83,2.31,16.76,5,4.55,2.07,7.11,2.82,8.06,3.06,.45,.11,.91,.14,1.36,.04h0c.05-.01,.11-.03,.16-.06,.05-.03,.08-.08,.09-.13,0-.07-.04-.14-.11-.17-.06-.03-.15-.05-.22-.05,.3,.03,.62,.01,.92-.03,.13-.02,.26-.04,.39-.07,.16-.03,.33-.05,.49-.1,.02,0,.05-.02,.07-.04,.01,0,.02-.02,.02-.03,0-.05-1.01-.24-1.12-.26Z"/><path class="cls-13" d="M1562.72,362.88c-.83-.28-1.63-.62-2.4-1.03-2.51-1.35-6.61-2.96-6.61-2.96,.2,.03,.4-.11,.47-.3,.07-.19,.04-.4-.05-.59-.09-.18-.21-.37-.34-.52,.34,.03,.66-.27,.67-.6,0-.25-.13-.55-.27-.75,.23,.04,.48-.1,.57-.32,.09-.22-.02-.55-.21-.68,.16,0,.27-.17,.28-.33,0-.16-.06-.31-.13-.45-.15-.3-.33-.66-.5-.95,.12,.05,.26-.04,.31-.16,.04-.12,.02-.26-.03-.38-.11-.33-.3-.66-.56-.88,.15,.02,.29-.12,.32-.27,.02-.15-.06-.3-.17-.41-.11-.11-.25-.17-.39-.24-.14-.07-.29-.09-.4-.19,2.03-1.47,5.48-4.03,5.82-5.05,.02-.05,0-.11-.06-.14-.29-.15-.68-.25-.99-.23,.7-.09,1.43-.51,1.89-1.07,.1-.12,.05-.31-.1-.36-.33-.11-.69-.15-1.02-.12,.5-.19,1.04-.53,1.4-.96,.1-.12,.05-.3-.09-.36-.17-.07-.33-.14-.51-.21,.7-.35,1.39-.82,1.91-1.41,.12-.13,.04-.35-.13-.38-.53-.1-1.08-.14-1.61-.05,.48-.08,2.25-1.38,1.71-1.78-.21-.15-.76,.2-.9,0-.36-.51,1.32-.91,1.37-1.42,.03-.37-.2-.3-.54-.33-.66-.07-1.32-.07-1.98-.05-.67,.03-1.33,.09-1.99,.17-.33,.04-1.65,.02-1.86,.26,.56-.62,.91-1.28,.97-2.07,.03-.37-.07-.32,.12-.74,.1-.22,.27-.41,.36-.63,.06-.15-.06-.32-.22-.32-.4,.01-.77,.11-.77,.11,.59-.6,.95-1.28,1.13-1.65,.07-.15-.04-.32-.2-.33-.41-.02-.69,.09-.69,.09,.49-.5,.73-.99,.86-1.32,.07-.18-.11-.36-.29-.3-.8,.27-1.21,.59-1.21,.59,.66-.84,.98-1.61,1.13-2.05,.06-.17-.1-.35-.28-.3-.81,.23-1.42,.91-1.42,.91,1.13-1.31,1.37-2.22,1.43-2.57,.01-.07-.06-.13-.13-.1-1.35,.53-2.59,1.62-3.23,2.25,1.1-1.16,1.43-1.72,1.54-1.97,.03-.08-.04-.15-.12-.13-5.86,1.99-13.66,13.02-14.69,15.03-1.03,2.03-.33,4.62,.37,8.56,.7,3.94-.3,4.94-.3,4.94,0,0-.66,.29-2.19,.21-1.09-.06-2.01-.45-3.04-.74-1.06-.3-2-.9-3.07-1.18-1.3-.34-2.61-.16-3.83,.36-.7,.3-2.18,.83-1.9,1.87-.14,.17-.27,.38-.38,.58-.45,.77-.77,1.65-.77,2.54,0,1.3,.78,2.35,1.85,3.03-.51-.78-.49-1.32-.45-1.61,.29,.21,.61,.44,.96,.43,.26-.01,.5-.15,.73-.28,.3-.18,.57-.29,.87-.47,.08-.05,.73,.36,.84,.4,.29,.12,.58,.22,.9,.24,.65,.04,1.31,.03,1.96,.07,.61,.04,1.12,.27,1.66,.51,.91,.4,1.63,1.19,2.43,1.77,.92,.67,1.72,1.45,2.7,2.04,1.49,.9,3.14,1.54,4.85,1.87,1.65,.32,3.12,.75,4.83,.62,.82-.06,1.61-.23,2.42-.36,.32-.05,.64-.07,.96-.07h0c.09,.02,.18,.05,.26,.07,.39,.06,.79,.12,1.18,.19,.12,.02,.24,.04,.35,.08,.24,.1,.44,.29,.68,.39,.25,.11,.5,.24,.76,.34,.3,.11,.6,.29,.93,.19,.17-.05,.29,.08,.46,.12,.19,.04,.38,.09,.57,.06,.14-.02,.23-.12,.35-.16,.06-.02,.12-.01,.18-.03,.09-.03,.15-.09,.24-.12,.09-.03,.14-.1,.17-.19,0,0,.12-.04,.13-.05,.04-.03,.08-.06,.11-.1,.03-.05,.06-.11,.06-.17,0-.11-.05,0-.08,.03-.02,.02-.05,.03-.07,.05-.08,.03-.18,.04-.26,.02-.1-.03-.2-.07-.29-.09,.01-.02,.03-.04,.04-.06,.02-.05,.03-.1,.02-.16-.01-.03-.01-.07-.02-.1-.01-.04-.03-.07-.06-.09-.04-.04-.1-.06-.16-.07-.03,0-.05,0-.08-.01-.03-.01-.06-.03-.09-.04-.06-.02-.12-.04-.19-.03,0,0-.02,0-.03,.01,0,0-.01,.02,0,.03,.05,.01,.11,.04,.15,.07,.02,.01,.05,.03,.07,.05,.02,.02,0,.03,0,.05,0,.01,0,.01,0,.02,0,0-.02,.01-.03,.02-.02,.01-.05,0-.07,.02-.06,.02-.12,.06-.16,.1-.02,.02-.03,.03-.05,.05s-.03,.06-.05,.07c-.04,.03-.11-.02-.15-.05-.05-.03-.1-.06-.16-.07-.03,0-.06-.02-.09-.02-.03,0-.05,.01-.07,0-.02,0-.04-.02-.05-.05,0-.02,.01-.04,.01-.06,0-.03-.02-.05-.04-.06-.02-.01-.05-.02-.08-.02-.09,0-.18,.01-.27,0-.09-.01-.17-.03-.26-.04-.38-.05-.75-.14-1.11-.29-.14-.06-.37-.14-.47-.26-.05-.06-.05-.15-.08-.22,0,0-.01-.02-.02-.03,.07-.02,.14-.04,.17-.05l.61-.15c.41-.1,.81-.21,1.22-.31,.62-.16,1.23-.31,1.86-.43,.57-.11,1.17-.24,1.75-.17,.66,.08,1.34,.08,2.01,.16,1.6,.18,3.18,.43,4.77,.68,.55,.09,1.11,.21,1.66,.26,3.01,.28,6.22,.31,9.22-.03,1.63-.19,3.27-.32,4.9-.53,.81-.1,1.62-.22,2.43-.37,.74-.14,1.64-.17,2.19-.72,.08-.08,.16-.17,.24-.26-8.09,.75-17,.77-24.73-1.81Z"/></g></svg>