<svg id="Layer_1" data-name="Layer 1" xmlns="http://www.w3.org/2000/svg" viewBox="0 0 1677.5 389.85"><defs><style>.cls-1{font-size:171.4px;font-family:BaksoSapi, Bakso Sapi;letter-spacing:0em;}.cls-1,.cls-3{fill:#fff;}.cls-2{fill:#fed42b;}.cls-4{fill:#293241;}.cls-5{fill:#e0fbfc;}.cls-6{fill:#98c1d9;}.cls-7{fill:#666;}.cls-8{fill:#c9dfea;}.cls-9{fill:#fe9a11;}.cls-10{fill:#f2ca50;}.cls-11{fill:#494437;}.cls-12{fill:#cd1a58;}.cls-13{fill:#fefefe;}.cls-14{fill:#161616;}.cls-15{fill:#283241;}.cls-16{fill:#f29e3d;}.cls-17{fill:#df911d;}.cls-18{fill:#fe3379;}.cls-19{opacity:0.51;}.cls-20{fill:#d86a0b;}.cls-21{fill:#3d5a80;}.cls-22{fill:#ec8483;}</style></defs><g id="T-v8"><text class="cls-1" transform="translate(713.39 308.49)">covoitons</text></g><g id="V8"><path d="M129.54,60H366.69a32,32,0,0,1,32,32v0a0,0,0,0,1,0,0H97.54a0,0,0,0,1,0,0v0A32,32,0,0,1,129.54,60Z"/><circle class="cls-2" cx="19.43" cy="292.02" r="19.43"/><path class="cls-3" d="M6513.24,647.77c-2.91-21.56-15.59-40.49-34.07-53.36a94.32,94.32,0,0,0-13.56-7.85,6.56,6.56,0,0,1-3.73-5.94V523.2a90.33,90.33,0,0,0-90.32-90.33H6083.68a89.24,89.24,0,0,0-89.24,89.24V664a6.61,6.61,0,0,0,6.61,6.61h0a6.69,6.69,0,0,1,3,.71,20.4,20.4,0,0,0,9,2.06H6495.5a19.73,19.73,0,0,0,13-4.71,15.07,15.07,0,0,0,5.39-11.35A70.12,70.12,0,0,0,6513.24,647.77Z" transform="translate(-5979.01 -350.01)"/><path class="cls-3" d="M6174.57,665.65a73,73,0,0,1-4.49,25.27H6032.73a73.17,73.17,0,1,1,141.84-25.27Z" transform="translate(-5979.01 -350.01)"/><rect x="26.38" y="321.35" width="501.97" height="21.11" rx="10.5"/><circle cx="6101.69" cy="670.85" r="68.85" transform="translate(-4666.23 4161.03) rotate(-45)"/><circle class="cls-4" cx="6102.42" cy="671.17" r="37.67" transform="translate(-5796.97 1945.69) rotate(-21.62)"/><circle class="cls-5" cx="123.8" cy="320.96" r="15.7"/><path class="cls-3" d="M6455.6,665.8a72.93,72.93,0,0,1-4.49,25.27H6313.77A73.17,73.17,0,1,1,6455.6,665.8Z" transform="translate(-5979.01 -350.01)"/><circle cx="6382.73" cy="671.01" r="68.85" transform="translate(-4584.03 4359.8) rotate(-45)"/><circle class="cls-4" cx="404.45" cy="321.32" r="37.67"/><circle class="cls-5" cx="6383.85" cy="671.12" r="15.7" transform="translate(-4583.78 4360.62) rotate(-45)"/><path class="cls-6" d="M6166,469.44v53.72a53.71,53.71,0,0,1-53.71,53.71h-22a53.65,53.65,0,0,1-45.55-25.22,53.7,53.7,0,0,1,7.56-66.48,54.24,54.24,0,0,1,10.05-7.91,53.46,53.46,0,0,1,23.62-7.64q2.13-.18,4.32-.18Z" transform="translate(-5979.01 -350.01)"/><path class="cls-6" d="M6310.15,522.89a53.7,53.7,0,0,1-48.55,53.47c-1.7.17-3.43.25-5.17.25h-22a53.72,53.72,0,0,1,0-107.44h22A53.72,53.72,0,0,1,6310.15,522.89Z" transform="translate(-5979.01 -350.01)"/><path class="cls-6" d="M6457.12,576.87H6326.45V455.25a100.41,100.41,0,0,1,21.61-2.35h15.26c2-.06,4,0,6.06.09,3.72.19,7.44.61,11.08,1.11a139.26,139.26,0,0,1,17,3.38,108.23,108.23,0,0,1,28.83,12.1q1.94,1.19,3.8,2.46c1.52,1,3,2.13,4.45,3.29a76.72,76.72,0,0,1,17.7,19.6c3,4.8,6,10,7.36,15.4,1.5,6,1.85,12.36,2.09,18.48.49,12.25-.3,24.52.65,36.76.08,1.08.17,2.16.28,3.24C6463.12,574,6463.5,576.87,6457.12,576.87Z" transform="translate(-5979.01 -350.01)"/><path class="cls-2" d="M6514.16,649.8a29,29,0,0,1-27.72-49.74A74.79,74.79,0,0,1,6514.16,649.8Z" transform="translate(-5979.01 -350.01)"/><rect class="cls-7" x="15.43" y="269.73" width="20.57" height="7.43"/><rect class="cls-7" x="15.43" y="281.16" width="20.57" height="7.43"/><rect class="cls-7" x="15.43" y="292.59" width="20.57" height="7.43"/><path class="cls-8" d="M6423.81,507.92c-2.74-4.53-11.6-5.34-9.66-11.46,1.46-4.62,7.31-7.86,11.21-11.72.63-.65,1.26-1.3,1.88-2l7.3-7.45,30.65-31.28c-14.41-15.34-32.58-16.93-51.7-13.47A86.85,86.85,0,0,0,6369.38,453a88.31,88.31,0,0,0-27.95,63.92c0,18.71.27,37.41.42,56.12a41.51,41.51,0,0,0,2.31,3.84h84.1c.09-.24.19-.46.28-.69,8.24-19.7,10.32-39.78,3-60.29C6427.57,514.59,6425.69,511,6423.81,507.92Zm-27-45.17a17.64,17.64,0,0,1,.66-5.27,14.79,14.79,0,0,1,14.17-10.83c9.29-.34,16.27,6.28,16.35,15.53a15.91,15.91,0,0,1-1.69,7.4,15.18,15.18,0,0,1-13.66,8.22C6403.5,477.94,6397,471.76,6396.8,462.75Z" transform="translate(-5979.01 -350.01)"/><path class="cls-8" d="M6457,576.87h-28.74c.09-.24.19-.46.28-.69,8.24-19.7,10.32-39.78,3-60.29h.46C6452.14,531.5,6461.06,551.67,6457,576.87Z" transform="translate(-5979.01 -350.01)"/><path class="cls-8" d="M6423.81,507.93c-2.74-4.53-11.6-5.34-9.66-11.46,1.46-4.63,7.32-7.87,11.22-11.73,4,9.47,13,14.53,19.53,21.75,1.27,1.41,3.24,1.26,4.83.2,1.25-.83,2.54-2.5,1.38-3.6-7.57-7.22-12.52-17.55-23.87-20.3l37.94-38.74c18.74,15.68,21.07,49.47,5,67.72-3.55,4-5.66,3.33-9,0-2.05-2-3.54-7.17-8.18-3.77-6.28,4.6-13.67,6.09-21,7.9l-.46,0C6427.57,514.6,6425.69,511,6423.81,507.93Zm42.9-41.72c2.52.71,2.55-1.67,2.6-3.36.09-2.8-.52-5.34-3.86-5.83-2.38-.35-2.77,1.47-3.08,2.7C6462.54,463.22,6464,465.47,6466.71,466.21Z" transform="translate(-5979.01 -350.01)"/><path class="cls-8" d="M6344.16,576.87h-2.31V573A41.51,41.51,0,0,0,6344.16,576.87Z" transform="translate(-5979.01 -350.01)"/><path class="cls-8" d="M6396.8,462.76c-.19-9.08,6-15.77,14.83-16.1,9.3-.35,16.27,6.28,16.35,15.52a15.13,15.13,0,0,1-15.35,15.62C6403.5,477.94,6397,471.77,6396.8,462.76Zm10.81,9.42c4.3,1.71,8.56,1.5,12.19-1.77,4.49-4,3.77-7.5-1.93-9.3a7.24,7.24,0,0,1-4.4-3.82c-1.08-2,2.37-6.79-3.3-5.85a10,10,0,0,0-8.21,6.93,26.15,26.15,0,0,0-.78,3.79C6401.59,467,6403.42,470.51,6407.61,472.18Z" transform="translate(-5979.01 -350.01)"/><path class="cls-8" d="M6425.37,484.74c4,9.47,13,14.53,19.53,21.75,1.27,1.41,3.24,1.26,4.83.2,1.25-.83,2.54-2.5,1.38-3.6-7.57-7.22-12.52-17.55-23.87-20.3Z" transform="translate(-5979.01 -350.01)"/><path class="cls-8" d="M6462.37,459.72c.17,3.5,1.67,5.75,4.34,6.49,2.52.71,2.55-1.67,2.6-3.36.09-2.8-.52-5.34-3.86-5.83C6463.07,456.67,6462.68,458.49,6462.37,459.72Z" transform="translate(-5979.01 -350.01)"/><path class="cls-8" d="M6401.18,462.16c.41,4.83,2.24,8.35,6.43,10s8.56,1.5,12.19-1.77c4.49-4,3.77-7.5-1.93-9.3a7.24,7.24,0,0,1-4.4-3.82c-1.08-2,2.37-6.79-3.3-5.85a10,10,0,0,0-8.21,6.93A26.15,26.15,0,0,0,6401.18,462.16Z" transform="translate(-5979.01 -350.01)"/><path class="cls-9" d="M6423.81,507.92c-2.74-4.53-11.6-5.34-9.66-11.46,1.46-4.62,7.31-7.86,11.21-11.72.63-.65,1.26-1.3,1.88-2l7.3-7.45,30.65-31.28c-14.41-15.34-32.58-16.93-51.7-13.47A86.85,86.85,0,0,0,6369.38,453a88.31,88.31,0,0,0-27.95,63.92c0,18.71.27,37.41.42,56.12a41.51,41.51,0,0,0,2.31,3.84h84.1c.09-.24.19-.46.28-.69,8.24-19.7,10.32-39.78,3-60.29C6427.57,514.59,6425.69,511,6423.81,507.92Zm-27-45.17a17.64,17.64,0,0,1,.66-5.27,14.79,14.79,0,0,1,14.17-10.83c9.29-.34,16.27,6.28,16.35,15.53a15.91,15.91,0,0,1-1.69,7.4,15.18,15.18,0,0,1-13.66,8.22C6403.5,477.94,6397,471.76,6396.8,462.75Z" transform="translate(-5979.01 -350.01)"/><path class="cls-10" d="M6457,576.87h-28.74c.09-.24.19-.46.28-.69,8.24-19.7,10.32-39.78,3-60.29h.46C6452.14,531.5,6461.06,551.67,6457,576.87Z" transform="translate(-5979.01 -350.01)"/><path class="cls-11" d="M6423.81,507.93c-2.74-4.53-11.6-5.34-9.66-11.46,1.46-4.63,7.32-7.87,11.22-11.73,4,9.47,13,14.53,19.53,21.75,1.27,1.41,3.24,1.26,4.83.2,1.25-.83,2.54-2.5,1.38-3.6-7.57-7.22-12.52-17.55-23.87-20.3l37.94-38.74c18.74,15.68,21.07,49.47,5,67.72-3.55,4-5.66,3.33-9,0-2.05-2-3.54-7.17-8.18-3.77-6.28,4.6-13.67,6.09-21,7.9l-.46,0C6427.57,514.6,6425.69,511,6423.81,507.93Zm42.9-41.72c2.52.71,2.55-1.67,2.6-3.36.09-2.8-.52-5.34-3.86-5.83-2.38-.35-2.77,1.47-3.08,2.7C6462.54,463.22,6464,465.47,6466.71,466.21Z" transform="translate(-5979.01 -350.01)"/><path class="cls-12" d="M6344.16,576.87h-2.31V573A41.51,41.51,0,0,0,6344.16,576.87Z" transform="translate(-5979.01 -350.01)"/><path class="cls-13" d="M6396.8,462.76c-.19-9.08,6-15.77,14.83-16.1,9.3-.35,16.27,6.28,16.35,15.52a15.13,15.13,0,0,1-15.35,15.62C6403.5,477.94,6397,471.77,6396.8,462.76Zm10.81,9.42c4.3,1.71,8.56,1.5,12.19-1.77,4.49-4,3.77-7.5-1.93-9.3a7.24,7.24,0,0,1-4.4-3.82c-1.08-2,2.37-6.79-3.3-5.85a10,10,0,0,0-8.21,6.93,26.15,26.15,0,0,0-.78,3.79C6401.59,467,6403.42,470.51,6407.61,472.18Z" transform="translate(-5979.01 -350.01)"/><path class="cls-14" d="M6425.37,484.74c4,9.47,13,14.53,19.53,21.75,1.27,1.41,3.24,1.26,4.83.2,1.25-.83,2.54-2.5,1.38-3.6-7.57-7.22-12.52-17.55-23.87-20.3Z" transform="translate(-5979.01 -350.01)"/><path class="cls-14" d="M6462.37,459.72c.17,3.5,1.67,5.75,4.34,6.49,2.52.71,2.55-1.67,2.6-3.36.09-2.8-.52-5.34-3.86-5.83C6463.07,456.67,6462.68,458.49,6462.37,459.72Z" transform="translate(-5979.01 -350.01)"/><path class="cls-14" d="M6401.18,462.16c.41,4.83,2.24,8.35,6.43,10s8.56,1.5,12.19-1.77c4.49-4,3.77-7.5-1.93-9.3a7.24,7.24,0,0,1-4.4-3.82c-1.08-2,2.37-6.79-3.3-5.85a10,10,0,0,0-8.21,6.93A26.15,26.15,0,0,0,6401.18,462.16Z" transform="translate(-5979.01 -350.01)"/><path class="cls-15" d="M6122.92,469.44q-14-14.31-28.21-28.43c-13.34-13.25-28.71-24.31-49.15-21.63.08,20.17,1.06,40.36-.53,60.52q.18,6.87.35,13.75.36,14,.71,28l-.5,0c18.44-.16,30.45,11.78,31,31a51,51,0,0,0,6.37,23.69,54,54,0,0,0,7.36.5h22A53.71,53.71,0,0,0,6166,523.16v-9.29Q6144.54,491.6,6122.92,469.44Zm-52.4,10.1a16.56,16.56,0,0,1-8.18-2.28c-5.35-3.16-8.67-9.34-8.32-16.63.48-9.95,7.95-17,17.62-16.59s16.26,8.07,16,18.24a19.25,19.25,0,0,1-1.65,7.34A16.36,16.36,0,0,1,6070.52,479.54Z" transform="translate(-5979.01 -350.01)"/><path class="cls-16" d="M6076.55,552.68a51,51,0,0,0,6.37,23.69,53.76,53.76,0,0,1-38.19-24.72c-.41-9.94.36-20,.86-30C6064,521.49,6076,533.43,6076.55,552.68Z" transform="translate(-5979.01 -350.01)"/><path class="cls-9" d="M6045.56,419.38c.09,20.18,1.06,40.36-.53,60.52l-39.84.17c-19.95-.36-20.62-1.37-13.93-21.08C5999.61,434.36,6022.69,417.52,6045.56,419.38Zm-10.89,17.43c2.9.25,4.94-1.05,4.53-3.95s-2.42-5.17-5.38-5.12a5.23,5.23,0,0,0-5.25,5.15C6028.63,436.55,6032.84,435.13,6034.67,436.81Z" transform="translate(-5979.01 -350.01)"/><path class="cls-17" d="M6005.19,480.07l39.84-.17q.53,20.85,1.06,41.7C6020.33,517,6011.12,507.6,6005.19,480.07Z" transform="translate(-5979.01 -350.01)"/><path class="cls-18" d="M6206.92,558.26a2.44,2.44,0,0,1-2.13-2.63Z" transform="translate(-5979.01 -350.01)"/><path class="cls-13" d="M6071.65,444c9.53.39,16.25,8.08,16,18.25-.29,10-7.64,17.43-17.08,17.25-9.86-.19-17-8.38-16.51-18.91C6054.5,450.68,6062,443.64,6071.65,444Zm-1.19,30.09c6.36,0,10.42-3.26,12-9.45s-.94-11.11-6.35-14.06c-1.92-1.05-5.75-2.33-6,.84-.45,6.67-2.78,9.46-9.42,9.35-2.71-.05-1.75,3.22-1.12,5.11C6061.34,471.23,6065.24,473.65,6070.46,474.13Z" transform="translate(-5979.01 -350.01)"/><path class="cls-17" d="M6034.67,436.81c-1.83-1.68-6-.26-6.1-3.92a5.23,5.23,0,0,1,5.25-5.15c3-.05,5,2.33,5.38,5.12S6037.57,437.06,6034.67,436.81Z" transform="translate(-5979.01 -350.01)"/><path class="cls-14" d="M6070.45,474.14c-5.21-.49-9.11-2.91-10.85-8.22-.63-1.89-1.59-5.16,1.12-5.11,6.64.11,9-2.68,9.42-9.35.22-3.17,4-1.89,6-.84,5.41,2.95,8,7.74,6.35,14.06S6076.82,474.17,6070.45,474.14Z" transform="translate(-5979.01 -350.01)"/><path d="M6159.25,561.09c-2.18-7.9-4.37-15.83-5.85-23.9a117.07,117.07,0,0,1-1.62-24.23c.21-7.7.57-15.38.16-23.08a179.71,179.71,0,0,0-2.76-23,187.71,187.71,0,0,0-6.69-25.78c-.61-1.82-3.51-1-2.89.79a182,182,0,0,1,9.22,46c.51,7.67.27,15.31,0,23a127.45,127.45,0,0,0,1.15,24.07c1.44,9.13,3.91,18.06,6.37,27a1.5,1.5,0,0,0,2.89-.8Z" transform="translate(-5979.01 -350.01)"/><path class="cls-4" d="M6089.3,407.81c-7.29-25.14,3.73-50.43,24.61-56.49s43.72,9.41,51,34.55c6.75,23.27-2.19,46.67-20.12,54.82l2.8,4.25L6137,448l-.23-4.84C6116.92,446.64,6096.19,431.53,6089.3,407.81Z" transform="translate(-5979.01 -350.01)"/><g class="cls-19"><ellipse class="cls-3" cx="6149.94" cy="374.59" rx="4.08" ry="15.06" transform="translate(-5319.41 2820.7) rotate(-30.47)"/><path class="cls-3" d="M6156.55,393a2.25,2.25,0,1,0,1.54-2.8A2.25,2.25,0,0,0,6156.55,393Z" transform="translate(-5979.01 -350.01)"/></g><ellipse class="cls-20" cx="173.66" cy="195.21" rx="8.71" ry="12.01"/><path class="cls-6" d="M6275,470.58a15.34,15.34,0,0,0-7.22,7.6c-4.31,4.07-8.43,8.37-13,12.15-5.13,4.26-6.76,7.84.32,11.69,2.14,1.17,3.85,3.14,5.75,4.75l1.76,1.9v-.14c13.53,23.8,9.24,47.05-2.13,70.09-7.09,1.19-14.36,7.82-21.21-.66-.17-.21-1.57.52-2.37.88-12.08,5.52-14.7,4.74-20.52-6.13-10.78,11.3-14.58,11.92-28.24,4.95-1.61-.82-3.59-.92-5.4-1.36-1.8-13.77-.52-27.6-.78-41.4-.43-22.53,10.18-39.29,28.86-50.65,6.5-3.94,9-7.69,8.92-15.28-.13-22.15,14.33-42.18,35.07-50.23,21-8.15,44.37-3.15,58.95,12.6Zm-19.93-2.3a17.52,17.52,0,0,0,17.86-16.81,17.12,17.12,0,0,0-16.71-17.8,17.31,17.31,0,1,0-1.15,34.61Z" transform="translate(-5979.01 -350.01)"/><path class="cls-21" d="M6302.53,550.49a53.74,53.74,0,0,1-40.93,25.87c10.54-22.3,14.13-44.82,1-67.84,11-.5,22.76,2.76,32.33-5.85l.78.31c1.3,3.5,2.46,7.06,3.92,10.49A58.47,58.47,0,0,1,6302.53,550.49Z" transform="translate(-5979.01 -350.01)"/><path class="cls-2" d="M6325.3,494.17c-8.07,17-9.13,17.27-22.54,5a4.86,4.86,0,0,0-.79-.51c-6.82-11.45-17.14-19.55-27-28.12l38.79-39.24C6330.66,445.75,6335.56,472.51,6325.3,494.17Zm-7.87-40.92c2.52.08,3.72-2.24,3.23-4.59-.69-3.27-2.84-5.6-6.34-5.62-2.32,0-2.72,2.06-2.57,4.7C6312.38,450.3,6313.89,453.13,6317.43,453.25Z" transform="translate(-5979.01 -350.01)"/><path class="cls-21" d="M6248.41,597.26l3.21-5.44c-6.89-1.37-13.55-4.48-20.37,1.51-2.29,2-7.27.92-10.2-2.27-2.2-2.39-3.65-2.94-6.57.11-11.74,12.27-20.11,11.7-31.7-1.32a144.52,144.52,0,0,0,0,34.28c10.39.87,20.29-2,30.29-4A105.88,105.88,0,0,0,6248.41,597.26Z" transform="translate(-5979.01 -350.01)"/><path class="cls-5" d="M6182.78,589.85c11.59,13,20,13.59,31.7,1.32,2.92-3,4.37-2.5,6.57-.11,2.93,3.19,7.91,4.27,10.2,2.27,6.82-6,13.48-2.88,20.37-1.51,2.77-4.53,9.94-6.09,8.89-13.2-7.09,1.19-14.36,7.82-21.21-.66-.17-.21-1.57.52-2.37.88-12.08,5.52-14.7,4.74-20.52-6.13-10.78,11.3-14.58,11.92-28.24,4.95-1.61-.82-3.59-.92-5.4-1.36A27.27,27.27,0,0,0,6182.78,589.85Z" transform="translate(-5979.01 -350.01)"/><path class="cls-17" d="M6302,498.7c-6.82-11.45-17.14-19.55-27-28.12a15.34,15.34,0,0,0-7.22,7.6c11.46,5.5,18,16.47,27.19,24.49l.78.32Z" transform="translate(-5979.01 -350.01)"/><path class="cls-2" d="M6295,502.67c-9.19-8-15.73-19-27.19-24.49-4.31,4.07-8.43,8.37-13,12.15-5.13,4.26-6.76,7.84.32,11.69,2.14,1.17,3.85,3.14,5.75,4.75l1.76,1.9v-.14C6273.68,508,6285.4,511.28,6295,502.67Z" transform="translate(-5979.01 -350.01)"/><path class="cls-13" d="M6256.22,433.67a17.12,17.12,0,0,1,16.71,17.8,17.52,17.52,0,0,1-17.86,16.81,17.31,17.31,0,1,1,1.15-34.61ZM6250.74,462c4.78,2.23,9.58,1.7,12.8-2.28,2.66-3.28,9.56-8.7-1.92-10-2.17-.24-3.6-2-4.73-4.08s2.83-7.33-3.36-6.49a11,11,0,0,0-9.44,8,16.55,16.55,0,0,0-.51,3C6243.66,456.11,6246.05,459.84,6250.74,462Z" transform="translate(-5979.01 -350.01)"/><path class="cls-22" d="M6262.63,508.67l-1.76-1.9Z" transform="translate(-5979.01 -350.01)"/><path class="cls-9" d="M6311.75,447.74c.63,2.56,2.14,5.39,5.68,5.51,2.52.08,3.72-2.24,3.23-4.59-.69-3.27-2.84-5.6-6.34-5.62C6312,443,6311.6,445.1,6311.75,447.74Z" transform="translate(-5979.01 -350.01)"/><path class="cls-14" d="M6243.58,450.23c.08,5.88,2.47,9.61,7.16,11.8s9.58,1.7,12.8-2.28c2.66-3.28,9.56-8.7-1.92-10-2.17-.24-3.6-2-4.73-4.08s2.83-7.33-3.36-6.49a11,11,0,0,0-9.44,8A16.55,16.55,0,0,0,6243.58,450.23Z" transform="translate(-5979.01 -350.01)"/></g></svg>