<?xml version="1.0" encoding="UTF-8"?><svg id="a" xmlns="http://www.w3.org/2000/svg" viewBox="0 0 2278.34 968.53"><defs><style>.b{fill:#f2f2f2;}.c{fill:#038491;}.d{fill:#fff;}.e{fill:#ee6c4d;}.f{fill:#98c1d9;}.g{fill:#333;}.h{fill:#293241;}</style></defs><path class="b" d="M2029.2,388.08l1.84,3.09c-4.07,2.43-8.11,5.01-12.02,7.69l-2.03-2.97c3.97-2.72,8.07-5.34,12.21-7.81Z"/><g><path class="g" d="M2028.59,452.27l-135.15,135.15c-48.28,48.28-112.47,74.87-180.74,74.87s-132.47-26.59-180.74-74.87l-135.15-135.15c-60.43-60.43-158.76-60.43-219.19,0l-135.15,135.15c-48.28,48.28-112.47,74.87-180.74,74.87s-132.47-26.59-180.74-74.87l-135.15-135.15c-60.43-60.43-158.76-60.43-219.19,0-26.23,26.23-56.9,46.73-91.17,60.92-34.27,14.2-70.45,21.39-107.55,21.39H0v-100.62H127.91c48.19,0,93.49-18.77,127.57-52.84,48.28-48.28,112.47-74.87,180.74-74.87s132.47,26.59,180.74,74.87l135.15,135.15c60.43,60.43,158.76,60.43,219.18,0l135.15-135.15c48.28-48.28,112.47-74.87,180.74-74.87s132.47,26.59,180.74,74.87l135.15,135.15c60.43,60.43,158.75,60.43,219.18,0l135.15-135.15"/><path class="b" d="M2024.77,448.45l-135.15,135.15c-47.26,47.26-110.1,73.29-176.93,73.29s-129.67-26.03-176.93-73.29l-135.15-135.15c-62.53-62.53-164.28-62.53-226.81,0l-135.15,135.15c-47.26,47.26-110.1,73.29-176.93,73.29s-129.67-26.03-176.93-73.29l-135.15-135.15c-62.53-62.53-164.28-62.53-226.81,0-25.73,25.73-55.81,45.83-89.42,59.75-33.61,13.92-69.1,20.98-105.48,20.98H0v-89.84H127.91c49.63,0,96.29-19.33,131.38-54.42,47.26-47.26,110.1-73.29,176.93-73.29s129.67,26.03,176.93,73.29l135.15,135.15c62.53,62.53,164.28,62.53,226.81,0l135.15-135.15c47.26-47.26,110.1-73.29,176.93-73.29s129.67,26.03,176.93,73.29l135.15,135.15c62.53,62.53,164.28,62.53,226.81,0l135.15-135.15"/><path class="g" d="M2022.23,445.91l-135.15,135.15c-46.58,46.58-108.51,72.24-174.39,72.24s-127.81-25.65-174.39-72.24l-135.15-135.15c-63.93-63.93-167.96-63.93-231.89,0l-135.15,135.15c-46.58,46.58-108.52,72.24-174.39,72.24s-127.81-25.65-174.39-72.24l-135.15-135.15c-30.97-30.97-72.15-48.03-115.95-48.03s-84.98,17.06-115.94,48.03c-25.39,25.39-55.08,45.23-88.26,58.97-33.17,13.74-68.2,20.71-104.11,20.71H0v-82.66H127.91c50.59,0,98.15-19.7,133.92-55.47,46.58-46.58,108.51-72.24,174.39-72.24s127.81,25.65,174.39,72.24l135.15,135.15c63.93,63.93,167.96,63.93,231.89,0l135.15-135.15c46.58-46.58,108.52-72.24,174.39-72.24s127.81,25.65,174.39,72.24l135.15,135.15c63.93,63.93,167.96,63.93,231.89,0l135.15-135.15"/><g><path class="b" d="M1712.69,613.77c-1.7,0-3.39-.02-5.09-.06l.09-3.59c4.74,.11,9.52,.07,14.25-.15l.16,3.59c-3.12,.14-6.29,.21-9.41,.21Zm-850.98,0c-4.38,0-8.82-.14-13.19-.42l.23-3.59c4.29,.27,8.65,.41,12.96,.41h1.29l.02,3.59h-1.31Zm15.8-.59l-.27-3.58c4.73-.36,9.5-.89,14.17-1.58l.52,3.55c-4.75,.7-9.6,1.24-14.41,1.6Zm815.62-.32c-4.79-.45-9.63-1.08-14.38-1.87l.59-3.54c4.67,.77,9.42,1.39,14.13,1.83l-.34,3.58Zm43.43-.45l-.41-3.57c4.71-.54,9.45-1.26,14.09-2.13l.66,3.53c-4.73,.88-9.55,1.61-14.34,2.16Zm-902.46-.47c-4.78-.64-9.59-1.45-14.3-2.42l.72-3.52c4.63,.95,9.35,1.75,14.05,2.38l-.48,3.56Zm72.1-2.97l-.77-3.51c4.62-1.01,9.27-2.2,13.81-3.53l1.01,3.45c-4.62,1.36-9.35,2.57-14.05,3.6Zm758.34-.84c-4.68-1.11-9.38-2.41-13.98-3.85l1.07-3.43c4.52,1.42,9.14,2.69,13.74,3.78l-.83,3.5Zm100.53-1.05l-.91-3.48c4.59-1.19,9.18-2.56,13.66-4.07l1.15,3.41c-4.56,1.53-9.23,2.93-13.9,4.14Zm-959.35-.98c-4.64-1.3-9.29-2.78-13.82-4.4l1.21-3.38c4.45,1.59,9.02,3.04,13.58,4.32l-.97,3.46Zm128.31-5.3l-1.25-3.37c4.43-1.65,8.87-3.48,13.18-5.43l1.49,3.27c-4.39,1.99-8.9,3.85-13.41,5.53Zm702.87-1.34c-4.48-1.76-8.95-3.7-13.3-5.77l1.55-3.24c4.27,2.04,8.67,3.94,13.07,5.67l-1.31,3.35Zm155.66-1.63l-1.38-3.32c4.37-1.82,8.73-3.82,12.95-5.95l1.62,3.21c-4.3,2.16-8.74,4.2-13.19,6.06Zm-1014.12-1.48c-4.41-1.94-8.81-4.05-13.06-6.29l1.67-3.18c4.18,2.2,8.5,4.28,12.83,6.18l-1.44,3.29Zm182-7.55l-1.71-3.16c4.16-2.25,8.29-4.69,12.28-7.24l1.93,3.03c-4.06,2.59-8.27,5.07-12.5,7.37Zm650.31-1.81c-4.19-2.37-8.34-4.92-12.35-7.58l1.99-2.99c3.94,2.61,8.02,5.12,12.14,7.45l-1.77,3.13Zm207.72-2.2l-1.84-3.09c4.07-2.42,8.1-5.02,11.99-7.72l2.05,2.95c-3.96,2.75-8.06,5.39-12.2,7.85Zm-1065.67-1.93c-4.09-2.53-8.14-5.25-12.04-8.06l2.1-2.91c3.83,2.76,7.81,5.43,11.83,7.92l-1.89,3.05Zm232.1-9.65l-2.14-2.89c3.8-2.82,7.55-5.81,11.15-8.89l2.34,2.73c-3.66,3.14-7.48,6.18-11.35,9.05Zm601.71-2.23c-3.8-2.93-7.56-6.04-11.18-9.24l2.38-2.69c3.55,3.15,7.25,6.2,10.98,9.08l-2.19,2.85Zm255.69-2.73l-2.25-2.8c3.68-2.96,7.32-6.1,10.8-9.32l2.44,2.64c-3.54,3.28-7.24,6.47-10.99,9.48Zm-1112.99-2.33c-3.69-3.07-7.32-6.32-10.8-9.66l2.49-2.59c3.42,3.28,6.99,6.47,10.62,9.49l-2.3,2.76Zm277.63-11.57l-2.52-2.56c.41-.4,.81-.8,1.22-1.21l8.94-8.94,2.54,2.54-8.94,8.94c-.41,.41-.83,.82-1.24,1.23Zm557.99-2.58l-10.17-10.17,2.54-2.54,10.17,10.17-2.54,2.54Zm298.68-3.1l-2.54-2.54,10.17-10.17,2.54,2.54-10.17,10.17Zm-1155.33-2.57l-10.17-10.17,2.54-2.54,10.17,10.17-2.54,2.54Zm319.01-12.09l-2.54-2.54,10.17-10.17,2.54,2.54-10.17,10.17Zm517.3-2.57l-10.17-10.17,2.54-2.54,10.17,10.17-2.54,2.54Zm339.35-3.1l-2.54-2.54,10.17-10.17,2.54,2.54-10.17,10.17Zm-1196-2.57l-10.17-10.17,2.54-2.54,10.17,10.17-2.54,2.54Zm359.69-12.09l-2.54-2.54,10.17-10.17,2.54,2.54-10.17,10.17Zm476.63-2.57l-10.17-10.17,2.54-2.54,10.17,10.17-2.54,2.54Zm380.03-3.1l-2.54-2.54,10.17-10.17,2.54,2.54-10.17,10.17Zm-1236.68-2.57l-10.17-10.17,2.54-2.54,10.17,10.17-2.54,2.54Zm400.36-12.09l-2.54-2.54,10.17-10.17,2.54,2.54-10.17,10.17Zm435.95-2.57l-10.17-10.17,2.54-2.54,10.17,10.17-2.54,2.54Zm420.7-3.1l-2.54-2.54,10.17-10.17,2.54,2.54-10.17,10.17Zm-1801.98-1.58h-14.38v-3.59h14.38v3.59Zm-28.76,0h-14.38v-3.59h14.38v3.59Zm-28.76,0h-14.38v-3.59h14.38v3.59Zm-28.76,0h-14.38v-3.59h14.38v3.59Zm100.73-.18l-.14-3.59c4.73-.19,9.52-.52,14.23-1l.36,3.58c-4.78,.49-9.64,.83-14.45,1.02Zm510.18-.8l-10.17-10.17,2.54-2.54,10.17,10.17-2.54,2.54Zm-481.37-2.13l-.59-3.55c4.67-.77,9.38-1.7,13.99-2.77l.81,3.5c-4.69,1.08-9.47,2.02-14.21,2.81Zm28.22-6.5l-1.02-3.45c4.54-1.35,9.1-2.86,13.54-4.48l1.24,3.37c-4.52,1.65-9.14,3.19-13.75,4.55Zm894.19-3.46l-2.54-2.54,10.17-10.17,2.54,2.54-10.17,10.17Zm395.28-2.57l-10.17-10.17,2.54-2.54,10.17,10.17-2.54,2.54Zm461.38-3.1l-2.54-2.54,10.17-10.17,2.54,2.54-10.17,10.17Zm-1723.65-.82l-1.44-3.29c4.33-1.9,8.66-3.96,12.88-6.13l1.65,3.2c-4.28,2.2-8.68,4.3-13.08,6.23Zm405.62-1.75l-10.17-10.17,2.54-2.54,10.17,10.17-2.54,2.54Zm-379.87-11.52l-1.84-3.09c4.07-2.43,8.11-5.01,12.02-7.69l2.03,2.97c-3.97,2.72-8.07,5.34-12.21,7.81Zm861.57-.58l-2.54-2.54,10.17-10.17,2.54,2.54-10.17,10.17Zm354.61-2.57l-10.17-10.17,2.54-2.54,10.17,10.17-2.54,2.54Zm502.05-3.1l-2.54-2.54,10.17-10.17,2.54,2.54-10.17,10.17Zm-1358.7-2.57l-10.17-10.17,2.54-2.54,10.17,10.17-2.54,2.54Zm-335.62-7.54l-2.21-2.83c3.73-2.91,7.42-5.98,10.97-9.12l2.38,2.69c-3.6,3.19-7.35,6.31-11.14,9.27Zm858-4.55l-2.54-2.54,10.17-10.17,2.54,2.54-10.17,10.17Zm313.93-2.57l-10.17-10.17,2.54-2.54,10.17,10.17-2.54,2.54Zm552.89-13.25c-.5,.49-.99,.98-1.49,1.47l-8.68,8.68-2.54-2.54,8.68-8.68m-1405.51,8.65l-6.11-6.11c-1.34-1.34-2.71-2.67-4.08-3.97l2.47-2.61c1.39,1.32,2.79,2.68,4.15,4.04l6.11,6.11-2.54,2.54Zm-293.6-6.41l-2.54-2.55c3.42-3.41,6.99-6.73,10.62-9.87l2.35,2.72c-3.56,3.09-7.08,6.36-10.44,9.7Zm856.73-5.51l-2.44-2.64c3.55-3.27,7.25-6.45,11-9.45l2.25,2.8c-3.68,2.95-7.32,6.08-10.81,9.29Zm273.02-2.42c-3.54-3.15-7.24-6.22-10.98-9.11l2.2-2.84c3.81,2.94,7.56,6.06,11.17,9.27l-2.39,2.68Zm-857.03-5.18c-3.66-3.01-7.47-5.93-11.32-8.67l2.08-2.93c3.92,2.79,7.8,5.76,11.52,8.82l-2.28,2.77Zm-251.2-5.55l-2.16-2.87c3.85-2.89,7.85-5.68,11.88-8.29l1.95,3.02c-3.97,2.57-7.89,5.31-11.68,8.15Zm857.42-4.65l-2.04-2.96c3.96-2.74,8.07-5.37,12.2-7.82l1.83,3.09c-4.06,2.41-8.1,4.99-11.99,7.69Zm228.24-2.04c-3.94-2.62-8.03-5.14-12.14-7.48l1.78-3.12c4.19,2.38,8.34,4.94,12.35,7.61l-1.99,2.99Zm-857.69-4.28c-4.04-2.47-8.22-4.82-12.42-6.99l1.65-3.19c4.27,2.21,8.53,4.61,12.64,7.12l-1.87,3.07Zm-204.08-4.49l-1.73-3.15c4.21-2.32,8.57-4.52,12.93-6.55l1.51,3.26c-4.29,1.98-8.57,4.15-12.71,6.43Zm858.01-3.7l-1.61-3.21c4.3-2.15,8.73-4.18,13.18-6.03l1.38,3.32c-4.37,1.82-8.73,3.81-12.95,5.93Zm178.98-1.61c-4.27-2.04-8.67-3.96-13.07-5.69l1.32-3.34c4.48,1.77,8.95,3.72,13.3,5.79l-1.55,3.24Zm-858.22-3.29c-4.34-1.87-8.81-3.61-13.28-5.17l1.19-3.39c4.55,1.59,9.1,3.36,13.52,5.27l-1.42,3.3Zm-152.93-3.34l-1.28-3.36c4.5-1.71,9.12-3.28,13.73-4.66l1.04,3.44c-4.53,1.36-9.07,2.91-13.49,4.58Zm858.47-2.68l-1.14-3.41c4.56-1.53,9.24-2.92,13.9-4.12l.9,3.48c-4.58,1.19-9.18,2.55-13.66,4.05Zm126.18-1.14c-4.51-1.42-9.13-2.7-13.74-3.8l.84-3.49c4.68,1.12,9.39,2.42,13.98,3.87l-1.08,3.43Zm-858.61-2.24c-4.56-1.24-9.23-2.34-13.87-3.26l.7-3.53c4.72,.94,9.47,2.06,14.12,3.32l-.94,3.47Zm-98.77-2.15l-.79-3.51c4.69-1.06,9.49-1.97,14.25-2.7l.55,3.55c-4.68,.72-9.39,1.61-14,2.65Zm858.77-1.6l-.65-3.53c4.73-.88,9.56-1.6,14.34-2.14l.41,3.57c-4.7,.54-9.44,1.25-14.09,2.11Zm70.91-.64c-4.67-.78-9.42-1.4-14.13-1.85l.34-3.58c4.79,.46,9.63,1.09,14.38,1.88l-.59,3.54Zm-858.85-1.16c-4.69-.6-9.47-1.03-14.19-1.3l.2-3.59c4.81,.27,9.67,.72,14.44,1.32l-.45,3.57Zm-42.68-.93l-.3-3.58c4.8-.4,9.67-.63,14.48-.69l.05,3.59c-4.73,.06-9.52,.29-14.23,.68Zm858.92-.5l-.16-3.59c3.03-.13,6.11-.2,9.14-.2,1.77,0,3.58,.02,5.37,.07l-.09,3.59c-1.75-.05-3.52-.11-5.27-.07-2.98,0-6,.07-8.98,.2Z"/><rect class="b" y="482.47" width="7.19" height="3.59"/></g></g><path class="c" d="M439.95,409.67v-4.56c0-11.17,4.99-21.68,13.39-29.04,5.77-5.05,9.28-12.6,8.82-20.98-.73-13.34-12.08-24.27-25.44-24.52-14.58-.28-26.49,11.46-26.49,25.98,0,7.98,3.6,15.1,9.25,19.86,8.41,7.07,13,17.71,13,28.7v4.55c0,17.93-12.43,33.61-29.98,37.32-75.78,16-132.08,84.82-128.5,166.16,3.69,83.73,72.04,151.68,155.79,154.9,92.6,3.57,168.79-70.44,168.79-162.25,0-77.89-54.86-142.94-128.05-158.68-17.76-3.82-30.59-19.27-30.59-37.44Z"/><path class="f" d="M1024.08,362.74c0-91.8-76.19-165.81-168.79-162.25-83.74,3.23-152.1,71.18-155.79,154.9-3.56,80.84,52.03,149.32,127.11,165.86,18.32,4.04,31.36,20.27,31.36,39.03v2.32c0,11.69-5.44,22.42-14,30.39-5.41,5.04-8.66,12.36-8.22,20.43,.73,13.34,12.08,24.27,25.44,24.52,14.58,.28,26.49-11.46,26.49-25.98,0-7.69-3.34-14.59-8.65-19.33-8.57-7.67-13.6-18.52-13.6-30.02v-2.31c0-19.01,13.45-35.03,32-39.19,72.48-16.27,126.64-80.98,126.64-158.37Z"/><path class="e" d="M1290.93,409.67v-4.56c0-11.17,4.99-21.68,13.39-29.04,5.77-5.05,9.28-12.6,8.82-20.98-.73-13.34-12.08-24.27-25.44-24.52-14.58-.28-26.49,11.46-26.49,25.98,0,7.97,3.6,15.1,9.25,19.86,8.41,7.07,13,17.71,13,28.7v4.55c0,17.93-12.43,33.61-29.98,37.32-75.78,16-132.08,84.82-128.5,166.16,3.69,83.73,72.04,151.68,155.79,154.9,92.6,3.57,168.79-70.44,168.79-162.25,0-77.89-54.86-142.94-128.05-158.68-17.76-3.82-30.59-19.27-30.59-37.44Z"/><path class="h" d="M1875.06,362.74c0-91.8-76.19-165.81-168.79-162.25-83.74,3.23-152.1,71.18-155.79,154.9-3.56,80.84,52.03,149.32,127.11,165.86,18.32,4.04,31.36,20.27,31.36,39.03v2.32c0,11.69-5.44,22.42-14,30.39-5.41,5.04-8.66,12.36-8.22,20.43,.73,13.34,12.08,24.27,25.44,24.52,14.58,.28,26.49-11.46,26.49-25.98,0-7.69-3.34-14.59-8.65-19.33-8.57-7.67-13.6-18.52-13.6-30.02v-2.31c0-19.01,13.45-35.03,32-39.19,72.48-16.27,126.64-80.98,126.64-158.37Z"/><circle class="d" cx="436.22" cy="356.56" r="15.59"/><circle class="d" cx="861.71" cy="611.97" r="15.59"/><circle class="d" cx="1287.2" cy="356.56" r="15.59"/><circle class="d" cx="1712.69" cy="611.97" r="15.59"/><rect class="b" x="2269.05" y="355.24" width="7.19" height="3.59"/><path class="g" d="M1951.71,386.25c26.23-26.23,56.9-46.73,91.17-60.92,34.27-14.2,70.45-21.39,107.55-21.39h127.91v100.62h-127.91c-48.19,0-93.49,18.77-127.57,52.84"/><path class="b" d="M1953.62,391.82c25.73-25.73,55.81-45.83,89.42-59.75,33.61-13.92,69.1-20.98,105.48-20.98h127.91v89.84h-127.91c-49.63,0-96.29,19.33-131.38,54.42"/><path class="g" d="M1954.89,395.91c25.39-25.39,55.08-45.23,88.26-58.97,33.17-13.74,68.2-20.71,104.11-20.71h127.91v82.66h-127.91c-50.59,0-98.15,19.7-133.92,55.47"/><rect class="b" x="2155.73" y="352.46" width="14.38" height="3.59"/><rect class="b" x="2184.49" y="352.46" width="14.38" height="3.59"/><rect class="b" x="2213.25" y="352.46" width="14.38" height="3.59"/><rect class="b" x="2242.01" y="352.46" width="14.38" height="3.59"/><path class="b" d="M2141.28,352.64l.14,3.59c-4.73,.19-9.52,.52-14.23,1l-.36-3.58c4.78-.49,9.64-.83,14.45-1.02Z"/><path class="b" d="M2112.47,355.57l.59,3.55c-4.67,.77-9.38,1.7-13.99,2.77l-.81-3.5c4.69-1.08,9.47-2.02,14.21-2.81Z"/><path class="b" d="M2084.25,362.07l1.02,3.45c-4.54,1.35-9.1,2.86-13.54,4.48l-1.24-3.37c4.52-1.65,9.14-3.19,13.75-4.55Z"/><path class="b" d="M2057.06,372.03l1.44,3.29c-4.33,1.9-8.66,3.96-12.88,6.13l-1.65-3.2c4.28-2.2,8.68-4.3,13.08-6.23Z"/><path class="b" d="M2031.3,385.29l1.84,3.09c-4.07,2.43-8.11,5.01-12.02,7.69l-2.03-2.97c3.97-2.72,8.07-5.34,12.21-7.81Z"/><rect class="b" x="2271.15" y="352.46" width="7.19" height="3.59"/><path class="b" d="M2009.92,399.75l2.42,2.66c-3.51,3.19-6.96,6.52-10.26,9.92l-2.58-2.5c3.35-3.45,6.86-6.84,10.42-10.07Z"/><path class="b" d="M1991.36,416.67l2.42,2.66c-3.51,3.19-6.96,6.52-10.26,9.92l-2.58-2.5c3.35-3.45,6.86-6.84,10.42-10.07Z"/></svg>